G75*
%MOIN*%
%OFA0B0*%
%FSLAX25Y25*%
%IPPOS*%
%LPD*%
%AMOC8*
5,1,8,0,0,1.08239X$1,22.5*
%
%ADD10C,0.00600*%
%ADD11C,0.00500*%
%ADD12R,0.04000X0.06000*%
D10*
X0109639Y0066972D02*
X0109639Y0147839D01*
X0143497Y0147760D01*
X0159245Y0132012D01*
X0159245Y0082799D01*
X0143497Y0067051D01*
X0109639Y0066972D01*
X0111939Y0069273D02*
X0111939Y0070407D01*
X0112506Y0070974D01*
X0111939Y0072389D02*
X0115342Y0072389D01*
X0115342Y0074090D01*
X0114775Y0074657D01*
X0113640Y0074657D01*
X0113073Y0074090D01*
X0113073Y0072389D01*
X0113073Y0073523D02*
X0111939Y0074657D01*
X0111939Y0076072D02*
X0111939Y0078340D01*
X0111939Y0077206D02*
X0115342Y0077206D01*
X0114208Y0076072D01*
X0114775Y0079755D02*
X0115342Y0080322D01*
X0115342Y0081456D01*
X0114775Y0082024D01*
X0114208Y0082024D01*
X0111939Y0079755D01*
X0111939Y0082024D01*
X0111939Y0083438D02*
X0114208Y0085707D01*
X0114775Y0085707D01*
X0115342Y0085140D01*
X0115342Y0084005D01*
X0114775Y0083438D01*
X0111939Y0083438D02*
X0111939Y0085707D01*
X0112506Y0087121D02*
X0111939Y0087688D01*
X0111939Y0088823D01*
X0112506Y0089390D01*
X0114775Y0089390D01*
X0112506Y0087121D01*
X0114775Y0087121D01*
X0115342Y0087688D01*
X0115342Y0088823D01*
X0114775Y0089390D01*
X0111017Y0107406D02*
X0111024Y0107986D01*
X0111045Y0108565D01*
X0111081Y0109144D01*
X0111131Y0109721D01*
X0111195Y0110298D01*
X0111273Y0110872D01*
X0111365Y0111444D01*
X0111471Y0112014D01*
X0111591Y0112582D01*
X0111725Y0113146D01*
X0111873Y0113706D01*
X0112034Y0114263D01*
X0112209Y0114816D01*
X0112398Y0115364D01*
X0112600Y0115907D01*
X0112815Y0116446D01*
X0113044Y0116979D01*
X0113285Y0117506D01*
X0113539Y0118027D01*
X0113806Y0118541D01*
X0114086Y0119049D01*
X0114378Y0119550D01*
X0114682Y0120044D01*
X0114998Y0120530D01*
X0115326Y0121008D01*
X0115666Y0121478D01*
X0116017Y0121939D01*
X0116379Y0122392D01*
X0116752Y0122835D01*
X0117136Y0123270D01*
X0117531Y0123694D01*
X0117936Y0124109D01*
X0118351Y0124514D01*
X0118775Y0124909D01*
X0119210Y0125293D01*
X0119653Y0125666D01*
X0120106Y0126028D01*
X0120567Y0126379D01*
X0121037Y0126719D01*
X0121515Y0127047D01*
X0122001Y0127363D01*
X0122495Y0127667D01*
X0122996Y0127959D01*
X0123504Y0128239D01*
X0124018Y0128506D01*
X0124539Y0128760D01*
X0125066Y0129001D01*
X0125599Y0129230D01*
X0126138Y0129445D01*
X0126681Y0129647D01*
X0127229Y0129836D01*
X0127782Y0130011D01*
X0128339Y0130172D01*
X0128899Y0130320D01*
X0129463Y0130454D01*
X0130031Y0130574D01*
X0130601Y0130680D01*
X0131173Y0130772D01*
X0131747Y0130850D01*
X0132324Y0130914D01*
X0132901Y0130964D01*
X0133480Y0131000D01*
X0134059Y0131021D01*
X0134639Y0131028D01*
X0135219Y0131021D01*
X0135798Y0131000D01*
X0136377Y0130964D01*
X0136954Y0130914D01*
X0137531Y0130850D01*
X0138105Y0130772D01*
X0138677Y0130680D01*
X0139247Y0130574D01*
X0139815Y0130454D01*
X0140379Y0130320D01*
X0140939Y0130172D01*
X0141496Y0130011D01*
X0142049Y0129836D01*
X0142597Y0129647D01*
X0143140Y0129445D01*
X0143679Y0129230D01*
X0144212Y0129001D01*
X0144739Y0128760D01*
X0145260Y0128506D01*
X0145774Y0128239D01*
X0146282Y0127959D01*
X0146783Y0127667D01*
X0147277Y0127363D01*
X0147763Y0127047D01*
X0148241Y0126719D01*
X0148711Y0126379D01*
X0149172Y0126028D01*
X0149625Y0125666D01*
X0150068Y0125293D01*
X0150503Y0124909D01*
X0150927Y0124514D01*
X0151342Y0124109D01*
X0151747Y0123694D01*
X0152142Y0123270D01*
X0152526Y0122835D01*
X0152899Y0122392D01*
X0153261Y0121939D01*
X0153612Y0121478D01*
X0153952Y0121008D01*
X0154280Y0120530D01*
X0154596Y0120044D01*
X0154900Y0119550D01*
X0155192Y0119049D01*
X0155472Y0118541D01*
X0155739Y0118027D01*
X0155993Y0117506D01*
X0156234Y0116979D01*
X0156463Y0116446D01*
X0156678Y0115907D01*
X0156880Y0115364D01*
X0157069Y0114816D01*
X0157244Y0114263D01*
X0157405Y0113706D01*
X0157553Y0113146D01*
X0157687Y0112582D01*
X0157807Y0112014D01*
X0157913Y0111444D01*
X0158005Y0110872D01*
X0158083Y0110298D01*
X0158147Y0109721D01*
X0158197Y0109144D01*
X0158233Y0108565D01*
X0158254Y0107986D01*
X0158261Y0107406D01*
X0158254Y0106826D01*
X0158233Y0106247D01*
X0158197Y0105668D01*
X0158147Y0105091D01*
X0158083Y0104514D01*
X0158005Y0103940D01*
X0157913Y0103368D01*
X0157807Y0102798D01*
X0157687Y0102230D01*
X0157553Y0101666D01*
X0157405Y0101106D01*
X0157244Y0100549D01*
X0157069Y0099996D01*
X0156880Y0099448D01*
X0156678Y0098905D01*
X0156463Y0098366D01*
X0156234Y0097833D01*
X0155993Y0097306D01*
X0155739Y0096785D01*
X0155472Y0096271D01*
X0155192Y0095763D01*
X0154900Y0095262D01*
X0154596Y0094768D01*
X0154280Y0094282D01*
X0153952Y0093804D01*
X0153612Y0093334D01*
X0153261Y0092873D01*
X0152899Y0092420D01*
X0152526Y0091977D01*
X0152142Y0091542D01*
X0151747Y0091118D01*
X0151342Y0090703D01*
X0150927Y0090298D01*
X0150503Y0089903D01*
X0150068Y0089519D01*
X0149625Y0089146D01*
X0149172Y0088784D01*
X0148711Y0088433D01*
X0148241Y0088093D01*
X0147763Y0087765D01*
X0147277Y0087449D01*
X0146783Y0087145D01*
X0146282Y0086853D01*
X0145774Y0086573D01*
X0145260Y0086306D01*
X0144739Y0086052D01*
X0144212Y0085811D01*
X0143679Y0085582D01*
X0143140Y0085367D01*
X0142597Y0085165D01*
X0142049Y0084976D01*
X0141496Y0084801D01*
X0140939Y0084640D01*
X0140379Y0084492D01*
X0139815Y0084358D01*
X0139247Y0084238D01*
X0138677Y0084132D01*
X0138105Y0084040D01*
X0137531Y0083962D01*
X0136954Y0083898D01*
X0136377Y0083848D01*
X0135798Y0083812D01*
X0135219Y0083791D01*
X0134639Y0083784D01*
X0134059Y0083791D01*
X0133480Y0083812D01*
X0132901Y0083848D01*
X0132324Y0083898D01*
X0131747Y0083962D01*
X0131173Y0084040D01*
X0130601Y0084132D01*
X0130031Y0084238D01*
X0129463Y0084358D01*
X0128899Y0084492D01*
X0128339Y0084640D01*
X0127782Y0084801D01*
X0127229Y0084976D01*
X0126681Y0085165D01*
X0126138Y0085367D01*
X0125599Y0085582D01*
X0125066Y0085811D01*
X0124539Y0086052D01*
X0124018Y0086306D01*
X0123504Y0086573D01*
X0122996Y0086853D01*
X0122495Y0087145D01*
X0122001Y0087449D01*
X0121515Y0087765D01*
X0121037Y0088093D01*
X0120567Y0088433D01*
X0120106Y0088784D01*
X0119653Y0089146D01*
X0119210Y0089519D01*
X0118775Y0089903D01*
X0118351Y0090298D01*
X0117936Y0090703D01*
X0117531Y0091118D01*
X0117136Y0091542D01*
X0116752Y0091977D01*
X0116379Y0092420D01*
X0116017Y0092873D01*
X0115666Y0093334D01*
X0115326Y0093804D01*
X0114998Y0094282D01*
X0114682Y0094768D01*
X0114378Y0095262D01*
X0114086Y0095763D01*
X0113806Y0096271D01*
X0113539Y0096785D01*
X0113285Y0097306D01*
X0113044Y0097833D01*
X0112815Y0098366D01*
X0112600Y0098905D01*
X0112398Y0099448D01*
X0112209Y0099996D01*
X0112034Y0100549D01*
X0111873Y0101106D01*
X0111725Y0101666D01*
X0111591Y0102230D01*
X0111471Y0102798D01*
X0111365Y0103368D01*
X0111273Y0103940D01*
X0111195Y0104514D01*
X0111131Y0105091D01*
X0111081Y0105668D01*
X0111045Y0106247D01*
X0111024Y0106826D01*
X0111017Y0107406D01*
X0114775Y0070974D02*
X0115342Y0070407D01*
X0115342Y0069273D01*
X0114775Y0068706D01*
X0112506Y0068706D01*
X0111939Y0069273D01*
X0160539Y0096907D02*
X0160539Y0098608D01*
X0161106Y0099175D01*
X0161673Y0099175D01*
X0162240Y0098608D01*
X0162240Y0096907D01*
X0160539Y0096907D02*
X0163942Y0096907D01*
X0163942Y0098608D01*
X0163375Y0099175D01*
X0162808Y0099175D01*
X0162240Y0098608D01*
X0162240Y0100590D02*
X0162240Y0102858D01*
X0162808Y0102858D02*
X0160539Y0102858D01*
X0160539Y0100590D02*
X0162808Y0100590D01*
X0163942Y0101724D01*
X0162808Y0102858D01*
X0163942Y0104273D02*
X0163942Y0106542D01*
X0163942Y0105407D02*
X0160539Y0105407D01*
X0160539Y0107956D02*
X0160539Y0110225D01*
X0160539Y0109090D02*
X0163942Y0109090D01*
X0162808Y0107956D01*
X0163375Y0111639D02*
X0161106Y0111639D01*
X0163375Y0113908D01*
X0161106Y0113908D01*
X0160539Y0113341D01*
X0160539Y0112206D01*
X0161106Y0111639D01*
X0163375Y0111639D02*
X0163942Y0112206D01*
X0163942Y0113341D01*
X0163375Y0113908D01*
X0163375Y0115322D02*
X0161106Y0115322D01*
X0163375Y0117591D01*
X0161106Y0117591D01*
X0160539Y0117024D01*
X0160539Y0115890D01*
X0161106Y0115322D01*
X0163375Y0115322D02*
X0163942Y0115890D01*
X0163942Y0117024D01*
X0163375Y0117591D01*
X0228250Y0090206D02*
X0228250Y0084206D01*
X0228252Y0084119D01*
X0228258Y0084032D01*
X0228267Y0083945D01*
X0228280Y0083859D01*
X0228297Y0083773D01*
X0228318Y0083688D01*
X0228343Y0083605D01*
X0228371Y0083522D01*
X0228402Y0083441D01*
X0228437Y0083361D01*
X0228476Y0083283D01*
X0228518Y0083206D01*
X0228563Y0083131D01*
X0228612Y0083059D01*
X0228663Y0082988D01*
X0228718Y0082920D01*
X0228775Y0082855D01*
X0228836Y0082792D01*
X0228899Y0082731D01*
X0228964Y0082674D01*
X0229032Y0082619D01*
X0229103Y0082568D01*
X0229175Y0082519D01*
X0229250Y0082474D01*
X0229327Y0082432D01*
X0229405Y0082393D01*
X0229485Y0082358D01*
X0229566Y0082327D01*
X0229649Y0082299D01*
X0229732Y0082274D01*
X0229817Y0082253D01*
X0229903Y0082236D01*
X0229989Y0082223D01*
X0230076Y0082214D01*
X0230163Y0082208D01*
X0230250Y0082206D01*
X0247250Y0082206D01*
X0247337Y0082208D01*
X0247424Y0082214D01*
X0247511Y0082223D01*
X0247597Y0082236D01*
X0247683Y0082253D01*
X0247768Y0082274D01*
X0247851Y0082299D01*
X0247934Y0082327D01*
X0248015Y0082358D01*
X0248095Y0082393D01*
X0248173Y0082432D01*
X0248250Y0082474D01*
X0248325Y0082519D01*
X0248397Y0082568D01*
X0248468Y0082619D01*
X0248536Y0082674D01*
X0248601Y0082731D01*
X0248664Y0082792D01*
X0248725Y0082855D01*
X0248782Y0082920D01*
X0248837Y0082988D01*
X0248888Y0083059D01*
X0248937Y0083131D01*
X0248982Y0083206D01*
X0249024Y0083283D01*
X0249063Y0083361D01*
X0249098Y0083441D01*
X0249129Y0083522D01*
X0249157Y0083605D01*
X0249182Y0083688D01*
X0249203Y0083773D01*
X0249220Y0083859D01*
X0249233Y0083945D01*
X0249242Y0084032D01*
X0249248Y0084119D01*
X0249250Y0084206D01*
X0249250Y0090206D01*
X0249248Y0090293D01*
X0249242Y0090380D01*
X0249233Y0090467D01*
X0249220Y0090553D01*
X0249203Y0090639D01*
X0249182Y0090724D01*
X0249157Y0090807D01*
X0249129Y0090890D01*
X0249098Y0090971D01*
X0249063Y0091051D01*
X0249024Y0091129D01*
X0248982Y0091206D01*
X0248937Y0091281D01*
X0248888Y0091353D01*
X0248837Y0091424D01*
X0248782Y0091492D01*
X0248725Y0091557D01*
X0248664Y0091620D01*
X0248601Y0091681D01*
X0248536Y0091738D01*
X0248468Y0091793D01*
X0248397Y0091844D01*
X0248325Y0091893D01*
X0248250Y0091938D01*
X0248173Y0091980D01*
X0248095Y0092019D01*
X0248015Y0092054D01*
X0247934Y0092085D01*
X0247851Y0092113D01*
X0247768Y0092138D01*
X0247683Y0092159D01*
X0247597Y0092176D01*
X0247511Y0092189D01*
X0247424Y0092198D01*
X0247337Y0092204D01*
X0247250Y0092206D01*
X0230250Y0092206D01*
X0230163Y0092204D01*
X0230076Y0092198D01*
X0229989Y0092189D01*
X0229903Y0092176D01*
X0229817Y0092159D01*
X0229732Y0092138D01*
X0229649Y0092113D01*
X0229566Y0092085D01*
X0229485Y0092054D01*
X0229405Y0092019D01*
X0229327Y0091980D01*
X0229250Y0091938D01*
X0229175Y0091893D01*
X0229103Y0091844D01*
X0229032Y0091793D01*
X0228964Y0091738D01*
X0228899Y0091681D01*
X0228836Y0091620D01*
X0228775Y0091557D01*
X0228718Y0091492D01*
X0228663Y0091424D01*
X0228612Y0091353D01*
X0228563Y0091281D01*
X0228518Y0091206D01*
X0228476Y0091129D01*
X0228437Y0091051D01*
X0228402Y0090971D01*
X0228371Y0090890D01*
X0228343Y0090807D01*
X0228318Y0090724D01*
X0228297Y0090639D01*
X0228280Y0090553D01*
X0228267Y0090467D01*
X0228258Y0090380D01*
X0228252Y0090293D01*
X0228250Y0090206D01*
X0228750Y0087206D02*
X0231750Y0087206D01*
X0238750Y0090206D02*
X0238750Y0092206D01*
X0245750Y0087206D02*
X0248750Y0087206D01*
X0252650Y0087306D02*
X0256053Y0087306D01*
X0254919Y0086172D01*
X0256053Y0084757D02*
X0256053Y0083623D01*
X0256053Y0084190D02*
X0253217Y0084190D01*
X0252650Y0083623D01*
X0252650Y0083056D01*
X0253217Y0082489D01*
X0253217Y0081074D02*
X0252650Y0080507D01*
X0252650Y0079373D01*
X0253217Y0078806D01*
X0254351Y0079373D02*
X0254351Y0080507D01*
X0253784Y0081074D01*
X0253217Y0081074D01*
X0254351Y0079373D02*
X0254919Y0078806D01*
X0255486Y0078806D01*
X0256053Y0079373D01*
X0256053Y0080507D01*
X0255486Y0081074D01*
X0252650Y0086172D02*
X0252650Y0088440D01*
X0253217Y0089855D02*
X0255486Y0092124D01*
X0253217Y0092124D01*
X0252650Y0091556D01*
X0252650Y0090422D01*
X0253217Y0089855D01*
X0255486Y0089855D01*
X0256053Y0090422D01*
X0256053Y0091556D01*
X0255486Y0092124D01*
X0254919Y0093538D02*
X0256053Y0094672D01*
X0252650Y0094672D01*
X0252650Y0093538D02*
X0252650Y0095807D01*
X0238750Y0084206D02*
X0238750Y0082206D01*
X0253350Y0064407D02*
X0253350Y0062138D01*
X0255619Y0064407D01*
X0256186Y0064407D01*
X0256753Y0063840D01*
X0256753Y0062705D01*
X0256186Y0062138D01*
X0256186Y0060724D02*
X0253917Y0058455D01*
X0253350Y0059022D01*
X0253350Y0060156D01*
X0253917Y0060724D01*
X0256186Y0060724D01*
X0256753Y0060156D01*
X0256753Y0059022D01*
X0256186Y0058455D01*
X0253917Y0058455D01*
X0253350Y0057040D02*
X0253350Y0054772D01*
X0253350Y0055906D02*
X0256753Y0055906D01*
X0255619Y0054772D01*
X0256753Y0053357D02*
X0256753Y0052223D01*
X0256753Y0052790D02*
X0253917Y0052790D01*
X0253350Y0052223D01*
X0253350Y0051656D01*
X0253917Y0051089D01*
X0253917Y0049674D02*
X0253350Y0049107D01*
X0253350Y0047973D01*
X0253917Y0047406D01*
X0255051Y0047973D02*
X0255051Y0049107D01*
X0254484Y0049674D01*
X0253917Y0049674D01*
X0255051Y0047973D02*
X0255619Y0047406D01*
X0256186Y0047406D01*
X0256753Y0047973D01*
X0256753Y0049107D01*
X0256186Y0049674D01*
X0249250Y0052906D02*
X0249250Y0058906D01*
X0249248Y0058993D01*
X0249242Y0059080D01*
X0249233Y0059167D01*
X0249220Y0059253D01*
X0249203Y0059339D01*
X0249182Y0059424D01*
X0249157Y0059507D01*
X0249129Y0059590D01*
X0249098Y0059671D01*
X0249063Y0059751D01*
X0249024Y0059829D01*
X0248982Y0059906D01*
X0248937Y0059981D01*
X0248888Y0060053D01*
X0248837Y0060124D01*
X0248782Y0060192D01*
X0248725Y0060257D01*
X0248664Y0060320D01*
X0248601Y0060381D01*
X0248536Y0060438D01*
X0248468Y0060493D01*
X0248397Y0060544D01*
X0248325Y0060593D01*
X0248250Y0060638D01*
X0248173Y0060680D01*
X0248095Y0060719D01*
X0248015Y0060754D01*
X0247934Y0060785D01*
X0247851Y0060813D01*
X0247768Y0060838D01*
X0247683Y0060859D01*
X0247597Y0060876D01*
X0247511Y0060889D01*
X0247424Y0060898D01*
X0247337Y0060904D01*
X0247250Y0060906D01*
X0230250Y0060906D01*
X0230163Y0060904D01*
X0230076Y0060898D01*
X0229989Y0060889D01*
X0229903Y0060876D01*
X0229817Y0060859D01*
X0229732Y0060838D01*
X0229649Y0060813D01*
X0229566Y0060785D01*
X0229485Y0060754D01*
X0229405Y0060719D01*
X0229327Y0060680D01*
X0229250Y0060638D01*
X0229175Y0060593D01*
X0229103Y0060544D01*
X0229032Y0060493D01*
X0228964Y0060438D01*
X0228899Y0060381D01*
X0228836Y0060320D01*
X0228775Y0060257D01*
X0228718Y0060192D01*
X0228663Y0060124D01*
X0228612Y0060053D01*
X0228563Y0059981D01*
X0228518Y0059906D01*
X0228476Y0059829D01*
X0228437Y0059751D01*
X0228402Y0059671D01*
X0228371Y0059590D01*
X0228343Y0059507D01*
X0228318Y0059424D01*
X0228297Y0059339D01*
X0228280Y0059253D01*
X0228267Y0059167D01*
X0228258Y0059080D01*
X0228252Y0058993D01*
X0228250Y0058906D01*
X0228250Y0052906D01*
X0228252Y0052819D01*
X0228258Y0052732D01*
X0228267Y0052645D01*
X0228280Y0052559D01*
X0228297Y0052473D01*
X0228318Y0052388D01*
X0228343Y0052305D01*
X0228371Y0052222D01*
X0228402Y0052141D01*
X0228437Y0052061D01*
X0228476Y0051983D01*
X0228518Y0051906D01*
X0228563Y0051831D01*
X0228612Y0051759D01*
X0228663Y0051688D01*
X0228718Y0051620D01*
X0228775Y0051555D01*
X0228836Y0051492D01*
X0228899Y0051431D01*
X0228964Y0051374D01*
X0229032Y0051319D01*
X0229103Y0051268D01*
X0229175Y0051219D01*
X0229250Y0051174D01*
X0229327Y0051132D01*
X0229405Y0051093D01*
X0229485Y0051058D01*
X0229566Y0051027D01*
X0229649Y0050999D01*
X0229732Y0050974D01*
X0229817Y0050953D01*
X0229903Y0050936D01*
X0229989Y0050923D01*
X0230076Y0050914D01*
X0230163Y0050908D01*
X0230250Y0050906D01*
X0247250Y0050906D01*
X0247337Y0050908D01*
X0247424Y0050914D01*
X0247511Y0050923D01*
X0247597Y0050936D01*
X0247683Y0050953D01*
X0247768Y0050974D01*
X0247851Y0050999D01*
X0247934Y0051027D01*
X0248015Y0051058D01*
X0248095Y0051093D01*
X0248173Y0051132D01*
X0248250Y0051174D01*
X0248325Y0051219D01*
X0248397Y0051268D01*
X0248468Y0051319D01*
X0248536Y0051374D01*
X0248601Y0051431D01*
X0248664Y0051492D01*
X0248725Y0051555D01*
X0248782Y0051620D01*
X0248837Y0051688D01*
X0248888Y0051759D01*
X0248937Y0051831D01*
X0248982Y0051906D01*
X0249024Y0051983D01*
X0249063Y0052061D01*
X0249098Y0052141D01*
X0249129Y0052222D01*
X0249157Y0052305D01*
X0249182Y0052388D01*
X0249203Y0052473D01*
X0249220Y0052559D01*
X0249233Y0052645D01*
X0249242Y0052732D01*
X0249248Y0052819D01*
X0249250Y0052906D01*
X0248750Y0055906D02*
X0245750Y0055906D01*
X0238750Y0058906D02*
X0238750Y0060906D01*
X0231750Y0055906D02*
X0228750Y0055906D01*
X0238750Y0052906D02*
X0238750Y0050906D01*
X0251617Y0142206D02*
X0251050Y0142773D01*
X0251050Y0143907D01*
X0251617Y0144474D01*
X0252184Y0144474D01*
X0252751Y0143907D01*
X0252751Y0142773D01*
X0253319Y0142206D01*
X0253886Y0142206D01*
X0254453Y0142773D01*
X0254453Y0143907D01*
X0253886Y0144474D01*
X0254453Y0147023D02*
X0254453Y0148157D01*
X0254453Y0147590D02*
X0251617Y0147590D01*
X0251050Y0147023D01*
X0251050Y0146456D01*
X0251617Y0145889D01*
X0249250Y0147006D02*
X0249250Y0153006D01*
X0251050Y0153822D02*
X0251617Y0153255D01*
X0253886Y0155524D01*
X0251617Y0155524D01*
X0251050Y0154956D01*
X0251050Y0153822D01*
X0251617Y0153255D02*
X0253886Y0153255D01*
X0254453Y0153822D01*
X0254453Y0154956D01*
X0253886Y0155524D01*
X0253886Y0156938D02*
X0251617Y0156938D01*
X0253886Y0159207D01*
X0251617Y0159207D01*
X0251050Y0158640D01*
X0251050Y0157505D01*
X0251617Y0156938D01*
X0253886Y0156938D02*
X0254453Y0157505D01*
X0254453Y0158640D01*
X0253886Y0159207D01*
X0247250Y0155006D02*
X0230250Y0155006D01*
X0230163Y0155004D01*
X0230076Y0154998D01*
X0229989Y0154989D01*
X0229903Y0154976D01*
X0229817Y0154959D01*
X0229732Y0154938D01*
X0229649Y0154913D01*
X0229566Y0154885D01*
X0229485Y0154854D01*
X0229405Y0154819D01*
X0229327Y0154780D01*
X0229250Y0154738D01*
X0229175Y0154693D01*
X0229103Y0154644D01*
X0229032Y0154593D01*
X0228964Y0154538D01*
X0228899Y0154481D01*
X0228836Y0154420D01*
X0228775Y0154357D01*
X0228718Y0154292D01*
X0228663Y0154224D01*
X0228612Y0154153D01*
X0228563Y0154081D01*
X0228518Y0154006D01*
X0228476Y0153929D01*
X0228437Y0153851D01*
X0228402Y0153771D01*
X0228371Y0153690D01*
X0228343Y0153607D01*
X0228318Y0153524D01*
X0228297Y0153439D01*
X0228280Y0153353D01*
X0228267Y0153267D01*
X0228258Y0153180D01*
X0228252Y0153093D01*
X0228250Y0153006D01*
X0228250Y0147006D01*
X0228252Y0146919D01*
X0228258Y0146832D01*
X0228267Y0146745D01*
X0228280Y0146659D01*
X0228297Y0146573D01*
X0228318Y0146488D01*
X0228343Y0146405D01*
X0228371Y0146322D01*
X0228402Y0146241D01*
X0228437Y0146161D01*
X0228476Y0146083D01*
X0228518Y0146006D01*
X0228563Y0145931D01*
X0228612Y0145859D01*
X0228663Y0145788D01*
X0228718Y0145720D01*
X0228775Y0145655D01*
X0228836Y0145592D01*
X0228899Y0145531D01*
X0228964Y0145474D01*
X0229032Y0145419D01*
X0229103Y0145368D01*
X0229175Y0145319D01*
X0229250Y0145274D01*
X0229327Y0145232D01*
X0229405Y0145193D01*
X0229485Y0145158D01*
X0229566Y0145127D01*
X0229649Y0145099D01*
X0229732Y0145074D01*
X0229817Y0145053D01*
X0229903Y0145036D01*
X0229989Y0145023D01*
X0230076Y0145014D01*
X0230163Y0145008D01*
X0230250Y0145006D01*
X0247250Y0145006D01*
X0247337Y0145008D01*
X0247424Y0145014D01*
X0247511Y0145023D01*
X0247597Y0145036D01*
X0247683Y0145053D01*
X0247768Y0145074D01*
X0247851Y0145099D01*
X0247934Y0145127D01*
X0248015Y0145158D01*
X0248095Y0145193D01*
X0248173Y0145232D01*
X0248250Y0145274D01*
X0248325Y0145319D01*
X0248397Y0145368D01*
X0248468Y0145419D01*
X0248536Y0145474D01*
X0248601Y0145531D01*
X0248664Y0145592D01*
X0248725Y0145655D01*
X0248782Y0145720D01*
X0248837Y0145788D01*
X0248888Y0145859D01*
X0248937Y0145931D01*
X0248982Y0146006D01*
X0249024Y0146083D01*
X0249063Y0146161D01*
X0249098Y0146241D01*
X0249129Y0146322D01*
X0249157Y0146405D01*
X0249182Y0146488D01*
X0249203Y0146573D01*
X0249220Y0146659D01*
X0249233Y0146745D01*
X0249242Y0146832D01*
X0249248Y0146919D01*
X0249250Y0147006D01*
X0251050Y0149572D02*
X0251050Y0151840D01*
X0251050Y0150706D02*
X0254453Y0150706D01*
X0253319Y0149572D01*
X0248750Y0150006D02*
X0245750Y0150006D01*
X0249250Y0153006D02*
X0249248Y0153093D01*
X0249242Y0153180D01*
X0249233Y0153267D01*
X0249220Y0153353D01*
X0249203Y0153439D01*
X0249182Y0153524D01*
X0249157Y0153607D01*
X0249129Y0153690D01*
X0249098Y0153771D01*
X0249063Y0153851D01*
X0249024Y0153929D01*
X0248982Y0154006D01*
X0248937Y0154081D01*
X0248888Y0154153D01*
X0248837Y0154224D01*
X0248782Y0154292D01*
X0248725Y0154357D01*
X0248664Y0154420D01*
X0248601Y0154481D01*
X0248536Y0154538D01*
X0248468Y0154593D01*
X0248397Y0154644D01*
X0248325Y0154693D01*
X0248250Y0154738D01*
X0248173Y0154780D01*
X0248095Y0154819D01*
X0248015Y0154854D01*
X0247934Y0154885D01*
X0247851Y0154913D01*
X0247768Y0154938D01*
X0247683Y0154959D01*
X0247597Y0154976D01*
X0247511Y0154989D01*
X0247424Y0154998D01*
X0247337Y0155004D01*
X0247250Y0155006D01*
X0238750Y0155006D02*
X0238750Y0153006D01*
X0231750Y0150006D02*
X0228750Y0150006D01*
X0238750Y0147006D02*
X0238750Y0145006D01*
D11*
X0234501Y0152744D02*
X0234749Y0150006D01*
X0234749Y0150006D01*
X0234501Y0147268D01*
X0234500Y0147267D01*
X0234397Y0147279D01*
X0234293Y0147294D01*
X0234191Y0147313D01*
X0234089Y0147337D01*
X0233988Y0147364D01*
X0233889Y0147394D01*
X0233790Y0147429D01*
X0233693Y0147467D01*
X0233598Y0147509D01*
X0233504Y0147555D01*
X0233412Y0147604D01*
X0233321Y0147656D01*
X0233233Y0147712D01*
X0233147Y0147771D01*
X0233064Y0147834D01*
X0232983Y0147899D01*
X0232904Y0147968D01*
X0232828Y0148039D01*
X0232755Y0148114D01*
X0232684Y0148191D01*
X0232617Y0148270D01*
X0232553Y0148353D01*
X0232491Y0148437D01*
X0232434Y0148524D01*
X0232379Y0148613D01*
X0232328Y0148704D01*
X0232280Y0148797D01*
X0232236Y0148891D01*
X0232196Y0148987D01*
X0232159Y0149085D01*
X0232126Y0149184D01*
X0232096Y0149284D01*
X0232071Y0149385D01*
X0232049Y0149487D01*
X0232032Y0149590D01*
X0232018Y0149694D01*
X0232008Y0149797D01*
X0232002Y0149902D01*
X0232000Y0150006D01*
X0232002Y0150110D01*
X0232008Y0150215D01*
X0232018Y0150318D01*
X0232032Y0150422D01*
X0232049Y0150525D01*
X0232071Y0150627D01*
X0232096Y0150728D01*
X0232126Y0150828D01*
X0232159Y0150927D01*
X0232196Y0151025D01*
X0232236Y0151121D01*
X0232280Y0151215D01*
X0232328Y0151308D01*
X0232379Y0151399D01*
X0232434Y0151488D01*
X0232491Y0151575D01*
X0232553Y0151659D01*
X0232617Y0151742D01*
X0232684Y0151821D01*
X0232755Y0151898D01*
X0232828Y0151973D01*
X0232904Y0152044D01*
X0232983Y0152113D01*
X0233064Y0152178D01*
X0233147Y0152241D01*
X0233233Y0152300D01*
X0233321Y0152356D01*
X0233412Y0152408D01*
X0233504Y0152457D01*
X0233598Y0152503D01*
X0233693Y0152545D01*
X0233790Y0152583D01*
X0233889Y0152618D01*
X0233988Y0152648D01*
X0234089Y0152675D01*
X0234191Y0152699D01*
X0234293Y0152718D01*
X0234397Y0152733D01*
X0234500Y0152745D01*
X0234501Y0152268D01*
X0234406Y0152256D01*
X0234313Y0152240D01*
X0234220Y0152219D01*
X0234128Y0152195D01*
X0234037Y0152167D01*
X0233948Y0152136D01*
X0233859Y0152101D01*
X0233773Y0152062D01*
X0233688Y0152019D01*
X0233605Y0151973D01*
X0233524Y0151923D01*
X0233445Y0151871D01*
X0233368Y0151814D01*
X0233294Y0151755D01*
X0233222Y0151693D01*
X0233153Y0151628D01*
X0233087Y0151560D01*
X0233023Y0151489D01*
X0232963Y0151416D01*
X0232906Y0151340D01*
X0232852Y0151262D01*
X0232801Y0151181D01*
X0232754Y0151099D01*
X0232710Y0151015D01*
X0232669Y0150929D01*
X0232633Y0150841D01*
X0232600Y0150752D01*
X0232570Y0150662D01*
X0232545Y0150570D01*
X0232523Y0150478D01*
X0232506Y0150384D01*
X0232492Y0150290D01*
X0232482Y0150196D01*
X0232476Y0150101D01*
X0232474Y0150006D01*
X0232476Y0149911D01*
X0232482Y0149816D01*
X0232492Y0149722D01*
X0232506Y0149628D01*
X0232523Y0149534D01*
X0232545Y0149442D01*
X0232570Y0149350D01*
X0232600Y0149260D01*
X0232633Y0149171D01*
X0232669Y0149083D01*
X0232710Y0148997D01*
X0232754Y0148913D01*
X0232801Y0148831D01*
X0232852Y0148750D01*
X0232906Y0148672D01*
X0232963Y0148596D01*
X0233023Y0148523D01*
X0233087Y0148452D01*
X0233153Y0148384D01*
X0233222Y0148319D01*
X0233294Y0148257D01*
X0233368Y0148198D01*
X0233445Y0148141D01*
X0233524Y0148089D01*
X0233605Y0148039D01*
X0233688Y0147993D01*
X0233773Y0147950D01*
X0233859Y0147911D01*
X0233948Y0147876D01*
X0234037Y0147845D01*
X0234128Y0147817D01*
X0234220Y0147793D01*
X0234313Y0147772D01*
X0234406Y0147756D01*
X0234501Y0147744D01*
X0234501Y0148221D01*
X0234419Y0148235D01*
X0234337Y0148252D01*
X0234257Y0148273D01*
X0234177Y0148297D01*
X0234099Y0148326D01*
X0234022Y0148358D01*
X0233947Y0148393D01*
X0233873Y0148432D01*
X0233801Y0148474D01*
X0233731Y0148519D01*
X0233664Y0148568D01*
X0233599Y0148620D01*
X0233536Y0148674D01*
X0233476Y0148732D01*
X0233418Y0148792D01*
X0233364Y0148855D01*
X0233312Y0148920D01*
X0233263Y0148988D01*
X0233218Y0149057D01*
X0233176Y0149129D01*
X0233137Y0149203D01*
X0233102Y0149278D01*
X0233070Y0149355D01*
X0233041Y0149433D01*
X0233017Y0149513D01*
X0232996Y0149593D01*
X0232979Y0149675D01*
X0232965Y0149757D01*
X0232956Y0149840D01*
X0232950Y0149923D01*
X0232948Y0150006D01*
X0232950Y0150089D01*
X0232956Y0150172D01*
X0232965Y0150255D01*
X0232979Y0150337D01*
X0232996Y0150419D01*
X0233017Y0150499D01*
X0233041Y0150579D01*
X0233070Y0150657D01*
X0233102Y0150734D01*
X0233137Y0150809D01*
X0233176Y0150883D01*
X0233218Y0150955D01*
X0233263Y0151024D01*
X0233312Y0151092D01*
X0233364Y0151157D01*
X0233418Y0151220D01*
X0233476Y0151280D01*
X0233536Y0151338D01*
X0233599Y0151392D01*
X0233664Y0151444D01*
X0233731Y0151493D01*
X0233801Y0151538D01*
X0233873Y0151580D01*
X0233947Y0151619D01*
X0234022Y0151654D01*
X0234099Y0151686D01*
X0234177Y0151715D01*
X0234257Y0151739D01*
X0234337Y0151760D01*
X0234419Y0151777D01*
X0234501Y0151791D01*
X0234501Y0151311D01*
X0234431Y0151295D01*
X0234362Y0151276D01*
X0234294Y0151253D01*
X0234227Y0151227D01*
X0234161Y0151196D01*
X0234098Y0151163D01*
X0234036Y0151126D01*
X0233976Y0151085D01*
X0233919Y0151042D01*
X0233864Y0150995D01*
X0233812Y0150946D01*
X0233762Y0150894D01*
X0233715Y0150839D01*
X0233672Y0150781D01*
X0233631Y0150722D01*
X0233594Y0150660D01*
X0233561Y0150597D01*
X0233530Y0150531D01*
X0233504Y0150464D01*
X0233481Y0150396D01*
X0233461Y0150327D01*
X0233446Y0150256D01*
X0233434Y0150185D01*
X0233426Y0150114D01*
X0233422Y0150042D01*
X0233422Y0149970D01*
X0233426Y0149898D01*
X0233434Y0149827D01*
X0233446Y0149756D01*
X0233461Y0149685D01*
X0233481Y0149616D01*
X0233504Y0149548D01*
X0233530Y0149481D01*
X0233561Y0149415D01*
X0233594Y0149352D01*
X0233631Y0149290D01*
X0233672Y0149231D01*
X0233715Y0149173D01*
X0233762Y0149118D01*
X0233812Y0149066D01*
X0233864Y0149017D01*
X0233919Y0148970D01*
X0233976Y0148927D01*
X0234036Y0148886D01*
X0234098Y0148849D01*
X0234161Y0148816D01*
X0234227Y0148785D01*
X0234294Y0148759D01*
X0234362Y0148736D01*
X0234431Y0148717D01*
X0234501Y0148701D01*
X0234504Y0149188D01*
X0234449Y0149207D01*
X0234396Y0149229D01*
X0234345Y0149254D01*
X0234295Y0149283D01*
X0234248Y0149315D01*
X0234202Y0149351D01*
X0234159Y0149389D01*
X0234119Y0149430D01*
X0234082Y0149474D01*
X0234048Y0149520D01*
X0234017Y0149568D01*
X0233989Y0149619D01*
X0233965Y0149671D01*
X0233944Y0149724D01*
X0233927Y0149779D01*
X0233913Y0149835D01*
X0233904Y0149891D01*
X0233898Y0149949D01*
X0233896Y0150006D01*
X0233898Y0150063D01*
X0233904Y0150121D01*
X0233913Y0150177D01*
X0233927Y0150233D01*
X0233944Y0150288D01*
X0233965Y0150341D01*
X0233989Y0150393D01*
X0234017Y0150444D01*
X0234048Y0150492D01*
X0234082Y0150538D01*
X0234119Y0150582D01*
X0234159Y0150623D01*
X0234202Y0150661D01*
X0234248Y0150697D01*
X0234295Y0150729D01*
X0234345Y0150758D01*
X0234396Y0150783D01*
X0234449Y0150805D01*
X0234504Y0150824D01*
X0234518Y0150307D01*
X0234490Y0150283D01*
X0234464Y0150257D01*
X0234442Y0150228D01*
X0234422Y0150198D01*
X0234405Y0150165D01*
X0234391Y0150131D01*
X0234381Y0150096D01*
X0234374Y0150061D01*
X0234370Y0150024D01*
X0234370Y0149988D01*
X0234374Y0149951D01*
X0234381Y0149916D01*
X0234391Y0149881D01*
X0234405Y0149847D01*
X0234422Y0149814D01*
X0234442Y0149784D01*
X0234464Y0149755D01*
X0234490Y0149729D01*
X0234518Y0149705D01*
X0242999Y0147268D02*
X0242751Y0150006D01*
X0242751Y0150006D01*
X0242999Y0152744D01*
X0243000Y0152745D01*
X0243103Y0152733D01*
X0243207Y0152718D01*
X0243309Y0152699D01*
X0243411Y0152675D01*
X0243512Y0152648D01*
X0243611Y0152618D01*
X0243710Y0152583D01*
X0243807Y0152545D01*
X0243902Y0152503D01*
X0243996Y0152457D01*
X0244088Y0152408D01*
X0244179Y0152356D01*
X0244267Y0152300D01*
X0244353Y0152241D01*
X0244436Y0152178D01*
X0244517Y0152113D01*
X0244596Y0152044D01*
X0244672Y0151973D01*
X0244745Y0151898D01*
X0244816Y0151821D01*
X0244883Y0151742D01*
X0244947Y0151659D01*
X0245009Y0151575D01*
X0245066Y0151488D01*
X0245121Y0151399D01*
X0245172Y0151308D01*
X0245220Y0151215D01*
X0245264Y0151121D01*
X0245304Y0151025D01*
X0245341Y0150927D01*
X0245374Y0150828D01*
X0245404Y0150728D01*
X0245429Y0150627D01*
X0245451Y0150525D01*
X0245468Y0150422D01*
X0245482Y0150318D01*
X0245492Y0150215D01*
X0245498Y0150110D01*
X0245500Y0150006D01*
X0245498Y0149902D01*
X0245492Y0149797D01*
X0245482Y0149694D01*
X0245468Y0149590D01*
X0245451Y0149487D01*
X0245429Y0149385D01*
X0245404Y0149284D01*
X0245374Y0149184D01*
X0245341Y0149085D01*
X0245304Y0148987D01*
X0245264Y0148891D01*
X0245220Y0148797D01*
X0245172Y0148704D01*
X0245121Y0148613D01*
X0245066Y0148524D01*
X0245009Y0148437D01*
X0244947Y0148353D01*
X0244883Y0148270D01*
X0244816Y0148191D01*
X0244745Y0148114D01*
X0244672Y0148039D01*
X0244596Y0147968D01*
X0244517Y0147899D01*
X0244436Y0147834D01*
X0244353Y0147771D01*
X0244267Y0147712D01*
X0244179Y0147656D01*
X0244088Y0147604D01*
X0243996Y0147555D01*
X0243902Y0147509D01*
X0243807Y0147467D01*
X0243710Y0147429D01*
X0243611Y0147394D01*
X0243512Y0147364D01*
X0243411Y0147337D01*
X0243309Y0147313D01*
X0243207Y0147294D01*
X0243103Y0147279D01*
X0243000Y0147267D01*
X0242999Y0147744D01*
X0243094Y0147756D01*
X0243187Y0147772D01*
X0243280Y0147793D01*
X0243372Y0147817D01*
X0243463Y0147845D01*
X0243552Y0147876D01*
X0243641Y0147911D01*
X0243727Y0147950D01*
X0243812Y0147993D01*
X0243895Y0148039D01*
X0243976Y0148089D01*
X0244055Y0148141D01*
X0244132Y0148198D01*
X0244206Y0148257D01*
X0244278Y0148319D01*
X0244347Y0148384D01*
X0244413Y0148452D01*
X0244477Y0148523D01*
X0244537Y0148596D01*
X0244594Y0148672D01*
X0244648Y0148750D01*
X0244699Y0148831D01*
X0244746Y0148913D01*
X0244790Y0148997D01*
X0244831Y0149083D01*
X0244867Y0149171D01*
X0244900Y0149260D01*
X0244930Y0149350D01*
X0244955Y0149442D01*
X0244977Y0149534D01*
X0244994Y0149628D01*
X0245008Y0149722D01*
X0245018Y0149816D01*
X0245024Y0149911D01*
X0245026Y0150006D01*
X0245024Y0150101D01*
X0245018Y0150196D01*
X0245008Y0150290D01*
X0244994Y0150384D01*
X0244977Y0150478D01*
X0244955Y0150570D01*
X0244930Y0150662D01*
X0244900Y0150752D01*
X0244867Y0150841D01*
X0244831Y0150929D01*
X0244790Y0151015D01*
X0244746Y0151099D01*
X0244699Y0151181D01*
X0244648Y0151262D01*
X0244594Y0151340D01*
X0244537Y0151416D01*
X0244477Y0151489D01*
X0244413Y0151560D01*
X0244347Y0151628D01*
X0244278Y0151693D01*
X0244206Y0151755D01*
X0244132Y0151814D01*
X0244055Y0151871D01*
X0243976Y0151923D01*
X0243895Y0151973D01*
X0243812Y0152019D01*
X0243727Y0152062D01*
X0243641Y0152101D01*
X0243552Y0152136D01*
X0243463Y0152167D01*
X0243372Y0152195D01*
X0243280Y0152219D01*
X0243187Y0152240D01*
X0243094Y0152256D01*
X0242999Y0152268D01*
X0242999Y0151791D01*
X0243081Y0151777D01*
X0243163Y0151760D01*
X0243243Y0151739D01*
X0243323Y0151715D01*
X0243401Y0151686D01*
X0243478Y0151654D01*
X0243553Y0151619D01*
X0243627Y0151580D01*
X0243699Y0151538D01*
X0243769Y0151493D01*
X0243836Y0151444D01*
X0243901Y0151392D01*
X0243964Y0151338D01*
X0244024Y0151280D01*
X0244082Y0151220D01*
X0244136Y0151157D01*
X0244188Y0151092D01*
X0244237Y0151024D01*
X0244282Y0150955D01*
X0244324Y0150883D01*
X0244363Y0150809D01*
X0244398Y0150734D01*
X0244430Y0150657D01*
X0244459Y0150579D01*
X0244483Y0150499D01*
X0244504Y0150419D01*
X0244521Y0150337D01*
X0244535Y0150255D01*
X0244544Y0150172D01*
X0244550Y0150089D01*
X0244552Y0150006D01*
X0244550Y0149923D01*
X0244544Y0149840D01*
X0244535Y0149757D01*
X0244521Y0149675D01*
X0244504Y0149593D01*
X0244483Y0149513D01*
X0244459Y0149433D01*
X0244430Y0149355D01*
X0244398Y0149278D01*
X0244363Y0149203D01*
X0244324Y0149129D01*
X0244282Y0149057D01*
X0244237Y0148988D01*
X0244188Y0148920D01*
X0244136Y0148855D01*
X0244082Y0148792D01*
X0244024Y0148732D01*
X0243964Y0148674D01*
X0243901Y0148620D01*
X0243836Y0148568D01*
X0243769Y0148519D01*
X0243699Y0148474D01*
X0243627Y0148432D01*
X0243553Y0148393D01*
X0243478Y0148358D01*
X0243401Y0148326D01*
X0243323Y0148297D01*
X0243243Y0148273D01*
X0243163Y0148252D01*
X0243081Y0148235D01*
X0242999Y0148221D01*
X0242999Y0148701D01*
X0243069Y0148717D01*
X0243138Y0148736D01*
X0243206Y0148759D01*
X0243273Y0148785D01*
X0243339Y0148816D01*
X0243402Y0148849D01*
X0243464Y0148886D01*
X0243524Y0148927D01*
X0243581Y0148970D01*
X0243636Y0149017D01*
X0243688Y0149066D01*
X0243738Y0149118D01*
X0243785Y0149173D01*
X0243828Y0149231D01*
X0243869Y0149290D01*
X0243906Y0149352D01*
X0243939Y0149415D01*
X0243970Y0149481D01*
X0243996Y0149548D01*
X0244019Y0149616D01*
X0244039Y0149685D01*
X0244054Y0149756D01*
X0244066Y0149827D01*
X0244074Y0149898D01*
X0244078Y0149970D01*
X0244078Y0150042D01*
X0244074Y0150114D01*
X0244066Y0150185D01*
X0244054Y0150256D01*
X0244039Y0150327D01*
X0244019Y0150396D01*
X0243996Y0150464D01*
X0243970Y0150531D01*
X0243939Y0150597D01*
X0243906Y0150660D01*
X0243869Y0150722D01*
X0243828Y0150781D01*
X0243785Y0150839D01*
X0243738Y0150894D01*
X0243688Y0150946D01*
X0243636Y0150995D01*
X0243581Y0151042D01*
X0243524Y0151085D01*
X0243464Y0151126D01*
X0243402Y0151163D01*
X0243339Y0151196D01*
X0243273Y0151227D01*
X0243206Y0151253D01*
X0243138Y0151276D01*
X0243069Y0151295D01*
X0242999Y0151311D01*
X0242996Y0150824D01*
X0243051Y0150805D01*
X0243104Y0150783D01*
X0243155Y0150758D01*
X0243205Y0150729D01*
X0243252Y0150697D01*
X0243298Y0150661D01*
X0243341Y0150623D01*
X0243381Y0150582D01*
X0243418Y0150538D01*
X0243452Y0150492D01*
X0243483Y0150444D01*
X0243511Y0150393D01*
X0243535Y0150341D01*
X0243556Y0150288D01*
X0243573Y0150233D01*
X0243587Y0150177D01*
X0243596Y0150121D01*
X0243602Y0150063D01*
X0243604Y0150006D01*
X0243602Y0149949D01*
X0243596Y0149891D01*
X0243587Y0149835D01*
X0243573Y0149779D01*
X0243556Y0149724D01*
X0243535Y0149671D01*
X0243511Y0149619D01*
X0243483Y0149568D01*
X0243452Y0149520D01*
X0243418Y0149474D01*
X0243381Y0149430D01*
X0243341Y0149389D01*
X0243298Y0149351D01*
X0243252Y0149315D01*
X0243205Y0149283D01*
X0243155Y0149254D01*
X0243104Y0149229D01*
X0243051Y0149207D01*
X0242996Y0149188D01*
X0242982Y0149705D01*
X0243010Y0149729D01*
X0243036Y0149755D01*
X0243058Y0149784D01*
X0243078Y0149814D01*
X0243095Y0149847D01*
X0243109Y0149881D01*
X0243119Y0149916D01*
X0243126Y0149951D01*
X0243130Y0149988D01*
X0243130Y0150024D01*
X0243126Y0150061D01*
X0243119Y0150096D01*
X0243109Y0150131D01*
X0243095Y0150165D01*
X0243078Y0150198D01*
X0243058Y0150228D01*
X0243036Y0150257D01*
X0243010Y0150283D01*
X0242982Y0150307D01*
X0242999Y0084468D02*
X0242751Y0087206D01*
X0242751Y0087206D01*
X0242999Y0089944D01*
X0243000Y0089945D01*
X0243103Y0089933D01*
X0243207Y0089918D01*
X0243309Y0089899D01*
X0243411Y0089875D01*
X0243512Y0089848D01*
X0243611Y0089818D01*
X0243710Y0089783D01*
X0243807Y0089745D01*
X0243902Y0089703D01*
X0243996Y0089657D01*
X0244088Y0089608D01*
X0244179Y0089556D01*
X0244267Y0089500D01*
X0244353Y0089441D01*
X0244436Y0089378D01*
X0244517Y0089313D01*
X0244596Y0089244D01*
X0244672Y0089173D01*
X0244745Y0089098D01*
X0244816Y0089021D01*
X0244883Y0088942D01*
X0244947Y0088859D01*
X0245009Y0088775D01*
X0245066Y0088688D01*
X0245121Y0088599D01*
X0245172Y0088508D01*
X0245220Y0088415D01*
X0245264Y0088321D01*
X0245304Y0088225D01*
X0245341Y0088127D01*
X0245374Y0088028D01*
X0245404Y0087928D01*
X0245429Y0087827D01*
X0245451Y0087725D01*
X0245468Y0087622D01*
X0245482Y0087518D01*
X0245492Y0087415D01*
X0245498Y0087310D01*
X0245500Y0087206D01*
X0245498Y0087102D01*
X0245492Y0086997D01*
X0245482Y0086894D01*
X0245468Y0086790D01*
X0245451Y0086687D01*
X0245429Y0086585D01*
X0245404Y0086484D01*
X0245374Y0086384D01*
X0245341Y0086285D01*
X0245304Y0086187D01*
X0245264Y0086091D01*
X0245220Y0085997D01*
X0245172Y0085904D01*
X0245121Y0085813D01*
X0245066Y0085724D01*
X0245009Y0085637D01*
X0244947Y0085553D01*
X0244883Y0085470D01*
X0244816Y0085391D01*
X0244745Y0085314D01*
X0244672Y0085239D01*
X0244596Y0085168D01*
X0244517Y0085099D01*
X0244436Y0085034D01*
X0244353Y0084971D01*
X0244267Y0084912D01*
X0244179Y0084856D01*
X0244088Y0084804D01*
X0243996Y0084755D01*
X0243902Y0084709D01*
X0243807Y0084667D01*
X0243710Y0084629D01*
X0243611Y0084594D01*
X0243512Y0084564D01*
X0243411Y0084537D01*
X0243309Y0084513D01*
X0243207Y0084494D01*
X0243103Y0084479D01*
X0243000Y0084467D01*
X0242999Y0084944D01*
X0243094Y0084956D01*
X0243187Y0084972D01*
X0243280Y0084993D01*
X0243372Y0085017D01*
X0243463Y0085045D01*
X0243552Y0085076D01*
X0243641Y0085111D01*
X0243727Y0085150D01*
X0243812Y0085193D01*
X0243895Y0085239D01*
X0243976Y0085289D01*
X0244055Y0085341D01*
X0244132Y0085398D01*
X0244206Y0085457D01*
X0244278Y0085519D01*
X0244347Y0085584D01*
X0244413Y0085652D01*
X0244477Y0085723D01*
X0244537Y0085796D01*
X0244594Y0085872D01*
X0244648Y0085950D01*
X0244699Y0086031D01*
X0244746Y0086113D01*
X0244790Y0086197D01*
X0244831Y0086283D01*
X0244867Y0086371D01*
X0244900Y0086460D01*
X0244930Y0086550D01*
X0244955Y0086642D01*
X0244977Y0086734D01*
X0244994Y0086828D01*
X0245008Y0086922D01*
X0245018Y0087016D01*
X0245024Y0087111D01*
X0245026Y0087206D01*
X0245024Y0087301D01*
X0245018Y0087396D01*
X0245008Y0087490D01*
X0244994Y0087584D01*
X0244977Y0087678D01*
X0244955Y0087770D01*
X0244930Y0087862D01*
X0244900Y0087952D01*
X0244867Y0088041D01*
X0244831Y0088129D01*
X0244790Y0088215D01*
X0244746Y0088299D01*
X0244699Y0088381D01*
X0244648Y0088462D01*
X0244594Y0088540D01*
X0244537Y0088616D01*
X0244477Y0088689D01*
X0244413Y0088760D01*
X0244347Y0088828D01*
X0244278Y0088893D01*
X0244206Y0088955D01*
X0244132Y0089014D01*
X0244055Y0089071D01*
X0243976Y0089123D01*
X0243895Y0089173D01*
X0243812Y0089219D01*
X0243727Y0089262D01*
X0243641Y0089301D01*
X0243552Y0089336D01*
X0243463Y0089367D01*
X0243372Y0089395D01*
X0243280Y0089419D01*
X0243187Y0089440D01*
X0243094Y0089456D01*
X0242999Y0089468D01*
X0242999Y0088991D01*
X0243081Y0088977D01*
X0243163Y0088960D01*
X0243243Y0088939D01*
X0243323Y0088915D01*
X0243401Y0088886D01*
X0243478Y0088854D01*
X0243553Y0088819D01*
X0243627Y0088780D01*
X0243699Y0088738D01*
X0243769Y0088693D01*
X0243836Y0088644D01*
X0243901Y0088592D01*
X0243964Y0088538D01*
X0244024Y0088480D01*
X0244082Y0088420D01*
X0244136Y0088357D01*
X0244188Y0088292D01*
X0244237Y0088224D01*
X0244282Y0088155D01*
X0244324Y0088083D01*
X0244363Y0088009D01*
X0244398Y0087934D01*
X0244430Y0087857D01*
X0244459Y0087779D01*
X0244483Y0087699D01*
X0244504Y0087619D01*
X0244521Y0087537D01*
X0244535Y0087455D01*
X0244544Y0087372D01*
X0244550Y0087289D01*
X0244552Y0087206D01*
X0244550Y0087123D01*
X0244544Y0087040D01*
X0244535Y0086957D01*
X0244521Y0086875D01*
X0244504Y0086793D01*
X0244483Y0086713D01*
X0244459Y0086633D01*
X0244430Y0086555D01*
X0244398Y0086478D01*
X0244363Y0086403D01*
X0244324Y0086329D01*
X0244282Y0086257D01*
X0244237Y0086188D01*
X0244188Y0086120D01*
X0244136Y0086055D01*
X0244082Y0085992D01*
X0244024Y0085932D01*
X0243964Y0085874D01*
X0243901Y0085820D01*
X0243836Y0085768D01*
X0243769Y0085719D01*
X0243699Y0085674D01*
X0243627Y0085632D01*
X0243553Y0085593D01*
X0243478Y0085558D01*
X0243401Y0085526D01*
X0243323Y0085497D01*
X0243243Y0085473D01*
X0243163Y0085452D01*
X0243081Y0085435D01*
X0242999Y0085421D01*
X0242999Y0085901D01*
X0243069Y0085917D01*
X0243138Y0085936D01*
X0243206Y0085959D01*
X0243273Y0085985D01*
X0243339Y0086016D01*
X0243402Y0086049D01*
X0243464Y0086086D01*
X0243524Y0086127D01*
X0243581Y0086170D01*
X0243636Y0086217D01*
X0243688Y0086266D01*
X0243738Y0086318D01*
X0243785Y0086373D01*
X0243828Y0086431D01*
X0243869Y0086490D01*
X0243906Y0086552D01*
X0243939Y0086615D01*
X0243970Y0086681D01*
X0243996Y0086748D01*
X0244019Y0086816D01*
X0244039Y0086885D01*
X0244054Y0086956D01*
X0244066Y0087027D01*
X0244074Y0087098D01*
X0244078Y0087170D01*
X0244078Y0087242D01*
X0244074Y0087314D01*
X0244066Y0087385D01*
X0244054Y0087456D01*
X0244039Y0087527D01*
X0244019Y0087596D01*
X0243996Y0087664D01*
X0243970Y0087731D01*
X0243939Y0087797D01*
X0243906Y0087860D01*
X0243869Y0087922D01*
X0243828Y0087981D01*
X0243785Y0088039D01*
X0243738Y0088094D01*
X0243688Y0088146D01*
X0243636Y0088195D01*
X0243581Y0088242D01*
X0243524Y0088285D01*
X0243464Y0088326D01*
X0243402Y0088363D01*
X0243339Y0088396D01*
X0243273Y0088427D01*
X0243206Y0088453D01*
X0243138Y0088476D01*
X0243069Y0088495D01*
X0242999Y0088511D01*
X0242996Y0088024D01*
X0243051Y0088005D01*
X0243104Y0087983D01*
X0243155Y0087958D01*
X0243205Y0087929D01*
X0243252Y0087897D01*
X0243298Y0087861D01*
X0243341Y0087823D01*
X0243381Y0087782D01*
X0243418Y0087738D01*
X0243452Y0087692D01*
X0243483Y0087644D01*
X0243511Y0087593D01*
X0243535Y0087541D01*
X0243556Y0087488D01*
X0243573Y0087433D01*
X0243587Y0087377D01*
X0243596Y0087321D01*
X0243602Y0087263D01*
X0243604Y0087206D01*
X0243602Y0087149D01*
X0243596Y0087091D01*
X0243587Y0087035D01*
X0243573Y0086979D01*
X0243556Y0086924D01*
X0243535Y0086871D01*
X0243511Y0086819D01*
X0243483Y0086768D01*
X0243452Y0086720D01*
X0243418Y0086674D01*
X0243381Y0086630D01*
X0243341Y0086589D01*
X0243298Y0086551D01*
X0243252Y0086515D01*
X0243205Y0086483D01*
X0243155Y0086454D01*
X0243104Y0086429D01*
X0243051Y0086407D01*
X0242996Y0086388D01*
X0242982Y0086905D01*
X0243010Y0086929D01*
X0243036Y0086955D01*
X0243058Y0086984D01*
X0243078Y0087014D01*
X0243095Y0087047D01*
X0243109Y0087081D01*
X0243119Y0087116D01*
X0243126Y0087151D01*
X0243130Y0087188D01*
X0243130Y0087224D01*
X0243126Y0087261D01*
X0243119Y0087296D01*
X0243109Y0087331D01*
X0243095Y0087365D01*
X0243078Y0087398D01*
X0243058Y0087428D01*
X0243036Y0087457D01*
X0243010Y0087483D01*
X0242982Y0087507D01*
X0234501Y0089944D02*
X0234749Y0087206D01*
X0234749Y0087206D01*
X0234501Y0084468D01*
X0234500Y0084467D01*
X0234397Y0084479D01*
X0234293Y0084494D01*
X0234191Y0084513D01*
X0234089Y0084537D01*
X0233988Y0084564D01*
X0233889Y0084594D01*
X0233790Y0084629D01*
X0233693Y0084667D01*
X0233598Y0084709D01*
X0233504Y0084755D01*
X0233412Y0084804D01*
X0233321Y0084856D01*
X0233233Y0084912D01*
X0233147Y0084971D01*
X0233064Y0085034D01*
X0232983Y0085099D01*
X0232904Y0085168D01*
X0232828Y0085239D01*
X0232755Y0085314D01*
X0232684Y0085391D01*
X0232617Y0085470D01*
X0232553Y0085553D01*
X0232491Y0085637D01*
X0232434Y0085724D01*
X0232379Y0085813D01*
X0232328Y0085904D01*
X0232280Y0085997D01*
X0232236Y0086091D01*
X0232196Y0086187D01*
X0232159Y0086285D01*
X0232126Y0086384D01*
X0232096Y0086484D01*
X0232071Y0086585D01*
X0232049Y0086687D01*
X0232032Y0086790D01*
X0232018Y0086894D01*
X0232008Y0086997D01*
X0232002Y0087102D01*
X0232000Y0087206D01*
X0232002Y0087310D01*
X0232008Y0087415D01*
X0232018Y0087518D01*
X0232032Y0087622D01*
X0232049Y0087725D01*
X0232071Y0087827D01*
X0232096Y0087928D01*
X0232126Y0088028D01*
X0232159Y0088127D01*
X0232196Y0088225D01*
X0232236Y0088321D01*
X0232280Y0088415D01*
X0232328Y0088508D01*
X0232379Y0088599D01*
X0232434Y0088688D01*
X0232491Y0088775D01*
X0232553Y0088859D01*
X0232617Y0088942D01*
X0232684Y0089021D01*
X0232755Y0089098D01*
X0232828Y0089173D01*
X0232904Y0089244D01*
X0232983Y0089313D01*
X0233064Y0089378D01*
X0233147Y0089441D01*
X0233233Y0089500D01*
X0233321Y0089556D01*
X0233412Y0089608D01*
X0233504Y0089657D01*
X0233598Y0089703D01*
X0233693Y0089745D01*
X0233790Y0089783D01*
X0233889Y0089818D01*
X0233988Y0089848D01*
X0234089Y0089875D01*
X0234191Y0089899D01*
X0234293Y0089918D01*
X0234397Y0089933D01*
X0234500Y0089945D01*
X0234501Y0089468D01*
X0234406Y0089456D01*
X0234313Y0089440D01*
X0234220Y0089419D01*
X0234128Y0089395D01*
X0234037Y0089367D01*
X0233948Y0089336D01*
X0233859Y0089301D01*
X0233773Y0089262D01*
X0233688Y0089219D01*
X0233605Y0089173D01*
X0233524Y0089123D01*
X0233445Y0089071D01*
X0233368Y0089014D01*
X0233294Y0088955D01*
X0233222Y0088893D01*
X0233153Y0088828D01*
X0233087Y0088760D01*
X0233023Y0088689D01*
X0232963Y0088616D01*
X0232906Y0088540D01*
X0232852Y0088462D01*
X0232801Y0088381D01*
X0232754Y0088299D01*
X0232710Y0088215D01*
X0232669Y0088129D01*
X0232633Y0088041D01*
X0232600Y0087952D01*
X0232570Y0087862D01*
X0232545Y0087770D01*
X0232523Y0087678D01*
X0232506Y0087584D01*
X0232492Y0087490D01*
X0232482Y0087396D01*
X0232476Y0087301D01*
X0232474Y0087206D01*
X0232476Y0087111D01*
X0232482Y0087016D01*
X0232492Y0086922D01*
X0232506Y0086828D01*
X0232523Y0086734D01*
X0232545Y0086642D01*
X0232570Y0086550D01*
X0232600Y0086460D01*
X0232633Y0086371D01*
X0232669Y0086283D01*
X0232710Y0086197D01*
X0232754Y0086113D01*
X0232801Y0086031D01*
X0232852Y0085950D01*
X0232906Y0085872D01*
X0232963Y0085796D01*
X0233023Y0085723D01*
X0233087Y0085652D01*
X0233153Y0085584D01*
X0233222Y0085519D01*
X0233294Y0085457D01*
X0233368Y0085398D01*
X0233445Y0085341D01*
X0233524Y0085289D01*
X0233605Y0085239D01*
X0233688Y0085193D01*
X0233773Y0085150D01*
X0233859Y0085111D01*
X0233948Y0085076D01*
X0234037Y0085045D01*
X0234128Y0085017D01*
X0234220Y0084993D01*
X0234313Y0084972D01*
X0234406Y0084956D01*
X0234501Y0084944D01*
X0234501Y0085421D01*
X0234419Y0085435D01*
X0234337Y0085452D01*
X0234257Y0085473D01*
X0234177Y0085497D01*
X0234099Y0085526D01*
X0234022Y0085558D01*
X0233947Y0085593D01*
X0233873Y0085632D01*
X0233801Y0085674D01*
X0233731Y0085719D01*
X0233664Y0085768D01*
X0233599Y0085820D01*
X0233536Y0085874D01*
X0233476Y0085932D01*
X0233418Y0085992D01*
X0233364Y0086055D01*
X0233312Y0086120D01*
X0233263Y0086188D01*
X0233218Y0086257D01*
X0233176Y0086329D01*
X0233137Y0086403D01*
X0233102Y0086478D01*
X0233070Y0086555D01*
X0233041Y0086633D01*
X0233017Y0086713D01*
X0232996Y0086793D01*
X0232979Y0086875D01*
X0232965Y0086957D01*
X0232956Y0087040D01*
X0232950Y0087123D01*
X0232948Y0087206D01*
X0232950Y0087289D01*
X0232956Y0087372D01*
X0232965Y0087455D01*
X0232979Y0087537D01*
X0232996Y0087619D01*
X0233017Y0087699D01*
X0233041Y0087779D01*
X0233070Y0087857D01*
X0233102Y0087934D01*
X0233137Y0088009D01*
X0233176Y0088083D01*
X0233218Y0088155D01*
X0233263Y0088224D01*
X0233312Y0088292D01*
X0233364Y0088357D01*
X0233418Y0088420D01*
X0233476Y0088480D01*
X0233536Y0088538D01*
X0233599Y0088592D01*
X0233664Y0088644D01*
X0233731Y0088693D01*
X0233801Y0088738D01*
X0233873Y0088780D01*
X0233947Y0088819D01*
X0234022Y0088854D01*
X0234099Y0088886D01*
X0234177Y0088915D01*
X0234257Y0088939D01*
X0234337Y0088960D01*
X0234419Y0088977D01*
X0234501Y0088991D01*
X0234501Y0088511D01*
X0234431Y0088495D01*
X0234362Y0088476D01*
X0234294Y0088453D01*
X0234227Y0088427D01*
X0234161Y0088396D01*
X0234098Y0088363D01*
X0234036Y0088326D01*
X0233976Y0088285D01*
X0233919Y0088242D01*
X0233864Y0088195D01*
X0233812Y0088146D01*
X0233762Y0088094D01*
X0233715Y0088039D01*
X0233672Y0087981D01*
X0233631Y0087922D01*
X0233594Y0087860D01*
X0233561Y0087797D01*
X0233530Y0087731D01*
X0233504Y0087664D01*
X0233481Y0087596D01*
X0233461Y0087527D01*
X0233446Y0087456D01*
X0233434Y0087385D01*
X0233426Y0087314D01*
X0233422Y0087242D01*
X0233422Y0087170D01*
X0233426Y0087098D01*
X0233434Y0087027D01*
X0233446Y0086956D01*
X0233461Y0086885D01*
X0233481Y0086816D01*
X0233504Y0086748D01*
X0233530Y0086681D01*
X0233561Y0086615D01*
X0233594Y0086552D01*
X0233631Y0086490D01*
X0233672Y0086431D01*
X0233715Y0086373D01*
X0233762Y0086318D01*
X0233812Y0086266D01*
X0233864Y0086217D01*
X0233919Y0086170D01*
X0233976Y0086127D01*
X0234036Y0086086D01*
X0234098Y0086049D01*
X0234161Y0086016D01*
X0234227Y0085985D01*
X0234294Y0085959D01*
X0234362Y0085936D01*
X0234431Y0085917D01*
X0234501Y0085901D01*
X0234504Y0086388D01*
X0234449Y0086407D01*
X0234396Y0086429D01*
X0234345Y0086454D01*
X0234295Y0086483D01*
X0234248Y0086515D01*
X0234202Y0086551D01*
X0234159Y0086589D01*
X0234119Y0086630D01*
X0234082Y0086674D01*
X0234048Y0086720D01*
X0234017Y0086768D01*
X0233989Y0086819D01*
X0233965Y0086871D01*
X0233944Y0086924D01*
X0233927Y0086979D01*
X0233913Y0087035D01*
X0233904Y0087091D01*
X0233898Y0087149D01*
X0233896Y0087206D01*
X0233898Y0087263D01*
X0233904Y0087321D01*
X0233913Y0087377D01*
X0233927Y0087433D01*
X0233944Y0087488D01*
X0233965Y0087541D01*
X0233989Y0087593D01*
X0234017Y0087644D01*
X0234048Y0087692D01*
X0234082Y0087738D01*
X0234119Y0087782D01*
X0234159Y0087823D01*
X0234202Y0087861D01*
X0234248Y0087897D01*
X0234295Y0087929D01*
X0234345Y0087958D01*
X0234396Y0087983D01*
X0234449Y0088005D01*
X0234504Y0088024D01*
X0234518Y0087507D01*
X0234490Y0087483D01*
X0234464Y0087457D01*
X0234442Y0087428D01*
X0234422Y0087398D01*
X0234405Y0087365D01*
X0234391Y0087331D01*
X0234381Y0087296D01*
X0234374Y0087261D01*
X0234370Y0087224D01*
X0234370Y0087188D01*
X0234374Y0087151D01*
X0234381Y0087116D01*
X0234391Y0087081D01*
X0234405Y0087047D01*
X0234422Y0087014D01*
X0234442Y0086984D01*
X0234464Y0086955D01*
X0234490Y0086929D01*
X0234518Y0086905D01*
X0234501Y0058644D02*
X0234749Y0055906D01*
X0234749Y0055906D01*
X0234501Y0053168D01*
X0234500Y0053167D01*
X0234397Y0053179D01*
X0234293Y0053194D01*
X0234191Y0053213D01*
X0234089Y0053237D01*
X0233988Y0053264D01*
X0233889Y0053294D01*
X0233790Y0053329D01*
X0233693Y0053367D01*
X0233598Y0053409D01*
X0233504Y0053455D01*
X0233412Y0053504D01*
X0233321Y0053556D01*
X0233233Y0053612D01*
X0233147Y0053671D01*
X0233064Y0053734D01*
X0232983Y0053799D01*
X0232904Y0053868D01*
X0232828Y0053939D01*
X0232755Y0054014D01*
X0232684Y0054091D01*
X0232617Y0054170D01*
X0232553Y0054253D01*
X0232491Y0054337D01*
X0232434Y0054424D01*
X0232379Y0054513D01*
X0232328Y0054604D01*
X0232280Y0054697D01*
X0232236Y0054791D01*
X0232196Y0054887D01*
X0232159Y0054985D01*
X0232126Y0055084D01*
X0232096Y0055184D01*
X0232071Y0055285D01*
X0232049Y0055387D01*
X0232032Y0055490D01*
X0232018Y0055594D01*
X0232008Y0055697D01*
X0232002Y0055802D01*
X0232000Y0055906D01*
X0232002Y0056010D01*
X0232008Y0056115D01*
X0232018Y0056218D01*
X0232032Y0056322D01*
X0232049Y0056425D01*
X0232071Y0056527D01*
X0232096Y0056628D01*
X0232126Y0056728D01*
X0232159Y0056827D01*
X0232196Y0056925D01*
X0232236Y0057021D01*
X0232280Y0057115D01*
X0232328Y0057208D01*
X0232379Y0057299D01*
X0232434Y0057388D01*
X0232491Y0057475D01*
X0232553Y0057559D01*
X0232617Y0057642D01*
X0232684Y0057721D01*
X0232755Y0057798D01*
X0232828Y0057873D01*
X0232904Y0057944D01*
X0232983Y0058013D01*
X0233064Y0058078D01*
X0233147Y0058141D01*
X0233233Y0058200D01*
X0233321Y0058256D01*
X0233412Y0058308D01*
X0233504Y0058357D01*
X0233598Y0058403D01*
X0233693Y0058445D01*
X0233790Y0058483D01*
X0233889Y0058518D01*
X0233988Y0058548D01*
X0234089Y0058575D01*
X0234191Y0058599D01*
X0234293Y0058618D01*
X0234397Y0058633D01*
X0234500Y0058645D01*
X0234501Y0058168D01*
X0234406Y0058156D01*
X0234313Y0058140D01*
X0234220Y0058119D01*
X0234128Y0058095D01*
X0234037Y0058067D01*
X0233948Y0058036D01*
X0233859Y0058001D01*
X0233773Y0057962D01*
X0233688Y0057919D01*
X0233605Y0057873D01*
X0233524Y0057823D01*
X0233445Y0057771D01*
X0233368Y0057714D01*
X0233294Y0057655D01*
X0233222Y0057593D01*
X0233153Y0057528D01*
X0233087Y0057460D01*
X0233023Y0057389D01*
X0232963Y0057316D01*
X0232906Y0057240D01*
X0232852Y0057162D01*
X0232801Y0057081D01*
X0232754Y0056999D01*
X0232710Y0056915D01*
X0232669Y0056829D01*
X0232633Y0056741D01*
X0232600Y0056652D01*
X0232570Y0056562D01*
X0232545Y0056470D01*
X0232523Y0056378D01*
X0232506Y0056284D01*
X0232492Y0056190D01*
X0232482Y0056096D01*
X0232476Y0056001D01*
X0232474Y0055906D01*
X0232476Y0055811D01*
X0232482Y0055716D01*
X0232492Y0055622D01*
X0232506Y0055528D01*
X0232523Y0055434D01*
X0232545Y0055342D01*
X0232570Y0055250D01*
X0232600Y0055160D01*
X0232633Y0055071D01*
X0232669Y0054983D01*
X0232710Y0054897D01*
X0232754Y0054813D01*
X0232801Y0054731D01*
X0232852Y0054650D01*
X0232906Y0054572D01*
X0232963Y0054496D01*
X0233023Y0054423D01*
X0233087Y0054352D01*
X0233153Y0054284D01*
X0233222Y0054219D01*
X0233294Y0054157D01*
X0233368Y0054098D01*
X0233445Y0054041D01*
X0233524Y0053989D01*
X0233605Y0053939D01*
X0233688Y0053893D01*
X0233773Y0053850D01*
X0233859Y0053811D01*
X0233948Y0053776D01*
X0234037Y0053745D01*
X0234128Y0053717D01*
X0234220Y0053693D01*
X0234313Y0053672D01*
X0234406Y0053656D01*
X0234501Y0053644D01*
X0234501Y0054121D01*
X0234419Y0054135D01*
X0234337Y0054152D01*
X0234257Y0054173D01*
X0234177Y0054197D01*
X0234099Y0054226D01*
X0234022Y0054258D01*
X0233947Y0054293D01*
X0233873Y0054332D01*
X0233801Y0054374D01*
X0233731Y0054419D01*
X0233664Y0054468D01*
X0233599Y0054520D01*
X0233536Y0054574D01*
X0233476Y0054632D01*
X0233418Y0054692D01*
X0233364Y0054755D01*
X0233312Y0054820D01*
X0233263Y0054888D01*
X0233218Y0054957D01*
X0233176Y0055029D01*
X0233137Y0055103D01*
X0233102Y0055178D01*
X0233070Y0055255D01*
X0233041Y0055333D01*
X0233017Y0055413D01*
X0232996Y0055493D01*
X0232979Y0055575D01*
X0232965Y0055657D01*
X0232956Y0055740D01*
X0232950Y0055823D01*
X0232948Y0055906D01*
X0232950Y0055989D01*
X0232956Y0056072D01*
X0232965Y0056155D01*
X0232979Y0056237D01*
X0232996Y0056319D01*
X0233017Y0056399D01*
X0233041Y0056479D01*
X0233070Y0056557D01*
X0233102Y0056634D01*
X0233137Y0056709D01*
X0233176Y0056783D01*
X0233218Y0056855D01*
X0233263Y0056924D01*
X0233312Y0056992D01*
X0233364Y0057057D01*
X0233418Y0057120D01*
X0233476Y0057180D01*
X0233536Y0057238D01*
X0233599Y0057292D01*
X0233664Y0057344D01*
X0233731Y0057393D01*
X0233801Y0057438D01*
X0233873Y0057480D01*
X0233947Y0057519D01*
X0234022Y0057554D01*
X0234099Y0057586D01*
X0234177Y0057615D01*
X0234257Y0057639D01*
X0234337Y0057660D01*
X0234419Y0057677D01*
X0234501Y0057691D01*
X0234501Y0057211D01*
X0234431Y0057195D01*
X0234362Y0057176D01*
X0234294Y0057153D01*
X0234227Y0057127D01*
X0234161Y0057096D01*
X0234098Y0057063D01*
X0234036Y0057026D01*
X0233976Y0056985D01*
X0233919Y0056942D01*
X0233864Y0056895D01*
X0233812Y0056846D01*
X0233762Y0056794D01*
X0233715Y0056739D01*
X0233672Y0056681D01*
X0233631Y0056622D01*
X0233594Y0056560D01*
X0233561Y0056497D01*
X0233530Y0056431D01*
X0233504Y0056364D01*
X0233481Y0056296D01*
X0233461Y0056227D01*
X0233446Y0056156D01*
X0233434Y0056085D01*
X0233426Y0056014D01*
X0233422Y0055942D01*
X0233422Y0055870D01*
X0233426Y0055798D01*
X0233434Y0055727D01*
X0233446Y0055656D01*
X0233461Y0055585D01*
X0233481Y0055516D01*
X0233504Y0055448D01*
X0233530Y0055381D01*
X0233561Y0055315D01*
X0233594Y0055252D01*
X0233631Y0055190D01*
X0233672Y0055131D01*
X0233715Y0055073D01*
X0233762Y0055018D01*
X0233812Y0054966D01*
X0233864Y0054917D01*
X0233919Y0054870D01*
X0233976Y0054827D01*
X0234036Y0054786D01*
X0234098Y0054749D01*
X0234161Y0054716D01*
X0234227Y0054685D01*
X0234294Y0054659D01*
X0234362Y0054636D01*
X0234431Y0054617D01*
X0234501Y0054601D01*
X0234504Y0055088D01*
X0234449Y0055107D01*
X0234396Y0055129D01*
X0234345Y0055154D01*
X0234295Y0055183D01*
X0234248Y0055215D01*
X0234202Y0055251D01*
X0234159Y0055289D01*
X0234119Y0055330D01*
X0234082Y0055374D01*
X0234048Y0055420D01*
X0234017Y0055468D01*
X0233989Y0055519D01*
X0233965Y0055571D01*
X0233944Y0055624D01*
X0233927Y0055679D01*
X0233913Y0055735D01*
X0233904Y0055791D01*
X0233898Y0055849D01*
X0233896Y0055906D01*
X0233898Y0055963D01*
X0233904Y0056021D01*
X0233913Y0056077D01*
X0233927Y0056133D01*
X0233944Y0056188D01*
X0233965Y0056241D01*
X0233989Y0056293D01*
X0234017Y0056344D01*
X0234048Y0056392D01*
X0234082Y0056438D01*
X0234119Y0056482D01*
X0234159Y0056523D01*
X0234202Y0056561D01*
X0234248Y0056597D01*
X0234295Y0056629D01*
X0234345Y0056658D01*
X0234396Y0056683D01*
X0234449Y0056705D01*
X0234504Y0056724D01*
X0234518Y0056207D01*
X0234490Y0056183D01*
X0234464Y0056157D01*
X0234442Y0056128D01*
X0234422Y0056098D01*
X0234405Y0056065D01*
X0234391Y0056031D01*
X0234381Y0055996D01*
X0234374Y0055961D01*
X0234370Y0055924D01*
X0234370Y0055888D01*
X0234374Y0055851D01*
X0234381Y0055816D01*
X0234391Y0055781D01*
X0234405Y0055747D01*
X0234422Y0055714D01*
X0234442Y0055684D01*
X0234464Y0055655D01*
X0234490Y0055629D01*
X0234518Y0055605D01*
X0242999Y0053168D02*
X0242751Y0055906D01*
X0242751Y0055906D01*
X0242999Y0058644D01*
X0243000Y0058645D01*
X0243103Y0058633D01*
X0243207Y0058618D01*
X0243309Y0058599D01*
X0243411Y0058575D01*
X0243512Y0058548D01*
X0243611Y0058518D01*
X0243710Y0058483D01*
X0243807Y0058445D01*
X0243902Y0058403D01*
X0243996Y0058357D01*
X0244088Y0058308D01*
X0244179Y0058256D01*
X0244267Y0058200D01*
X0244353Y0058141D01*
X0244436Y0058078D01*
X0244517Y0058013D01*
X0244596Y0057944D01*
X0244672Y0057873D01*
X0244745Y0057798D01*
X0244816Y0057721D01*
X0244883Y0057642D01*
X0244947Y0057559D01*
X0245009Y0057475D01*
X0245066Y0057388D01*
X0245121Y0057299D01*
X0245172Y0057208D01*
X0245220Y0057115D01*
X0245264Y0057021D01*
X0245304Y0056925D01*
X0245341Y0056827D01*
X0245374Y0056728D01*
X0245404Y0056628D01*
X0245429Y0056527D01*
X0245451Y0056425D01*
X0245468Y0056322D01*
X0245482Y0056218D01*
X0245492Y0056115D01*
X0245498Y0056010D01*
X0245500Y0055906D01*
X0245498Y0055802D01*
X0245492Y0055697D01*
X0245482Y0055594D01*
X0245468Y0055490D01*
X0245451Y0055387D01*
X0245429Y0055285D01*
X0245404Y0055184D01*
X0245374Y0055084D01*
X0245341Y0054985D01*
X0245304Y0054887D01*
X0245264Y0054791D01*
X0245220Y0054697D01*
X0245172Y0054604D01*
X0245121Y0054513D01*
X0245066Y0054424D01*
X0245009Y0054337D01*
X0244947Y0054253D01*
X0244883Y0054170D01*
X0244816Y0054091D01*
X0244745Y0054014D01*
X0244672Y0053939D01*
X0244596Y0053868D01*
X0244517Y0053799D01*
X0244436Y0053734D01*
X0244353Y0053671D01*
X0244267Y0053612D01*
X0244179Y0053556D01*
X0244088Y0053504D01*
X0243996Y0053455D01*
X0243902Y0053409D01*
X0243807Y0053367D01*
X0243710Y0053329D01*
X0243611Y0053294D01*
X0243512Y0053264D01*
X0243411Y0053237D01*
X0243309Y0053213D01*
X0243207Y0053194D01*
X0243103Y0053179D01*
X0243000Y0053167D01*
X0242999Y0053644D01*
X0243094Y0053656D01*
X0243187Y0053672D01*
X0243280Y0053693D01*
X0243372Y0053717D01*
X0243463Y0053745D01*
X0243552Y0053776D01*
X0243641Y0053811D01*
X0243727Y0053850D01*
X0243812Y0053893D01*
X0243895Y0053939D01*
X0243976Y0053989D01*
X0244055Y0054041D01*
X0244132Y0054098D01*
X0244206Y0054157D01*
X0244278Y0054219D01*
X0244347Y0054284D01*
X0244413Y0054352D01*
X0244477Y0054423D01*
X0244537Y0054496D01*
X0244594Y0054572D01*
X0244648Y0054650D01*
X0244699Y0054731D01*
X0244746Y0054813D01*
X0244790Y0054897D01*
X0244831Y0054983D01*
X0244867Y0055071D01*
X0244900Y0055160D01*
X0244930Y0055250D01*
X0244955Y0055342D01*
X0244977Y0055434D01*
X0244994Y0055528D01*
X0245008Y0055622D01*
X0245018Y0055716D01*
X0245024Y0055811D01*
X0245026Y0055906D01*
X0245024Y0056001D01*
X0245018Y0056096D01*
X0245008Y0056190D01*
X0244994Y0056284D01*
X0244977Y0056378D01*
X0244955Y0056470D01*
X0244930Y0056562D01*
X0244900Y0056652D01*
X0244867Y0056741D01*
X0244831Y0056829D01*
X0244790Y0056915D01*
X0244746Y0056999D01*
X0244699Y0057081D01*
X0244648Y0057162D01*
X0244594Y0057240D01*
X0244537Y0057316D01*
X0244477Y0057389D01*
X0244413Y0057460D01*
X0244347Y0057528D01*
X0244278Y0057593D01*
X0244206Y0057655D01*
X0244132Y0057714D01*
X0244055Y0057771D01*
X0243976Y0057823D01*
X0243895Y0057873D01*
X0243812Y0057919D01*
X0243727Y0057962D01*
X0243641Y0058001D01*
X0243552Y0058036D01*
X0243463Y0058067D01*
X0243372Y0058095D01*
X0243280Y0058119D01*
X0243187Y0058140D01*
X0243094Y0058156D01*
X0242999Y0058168D01*
X0242999Y0057691D01*
X0243081Y0057677D01*
X0243163Y0057660D01*
X0243243Y0057639D01*
X0243323Y0057615D01*
X0243401Y0057586D01*
X0243478Y0057554D01*
X0243553Y0057519D01*
X0243627Y0057480D01*
X0243699Y0057438D01*
X0243769Y0057393D01*
X0243836Y0057344D01*
X0243901Y0057292D01*
X0243964Y0057238D01*
X0244024Y0057180D01*
X0244082Y0057120D01*
X0244136Y0057057D01*
X0244188Y0056992D01*
X0244237Y0056924D01*
X0244282Y0056855D01*
X0244324Y0056783D01*
X0244363Y0056709D01*
X0244398Y0056634D01*
X0244430Y0056557D01*
X0244459Y0056479D01*
X0244483Y0056399D01*
X0244504Y0056319D01*
X0244521Y0056237D01*
X0244535Y0056155D01*
X0244544Y0056072D01*
X0244550Y0055989D01*
X0244552Y0055906D01*
X0244550Y0055823D01*
X0244544Y0055740D01*
X0244535Y0055657D01*
X0244521Y0055575D01*
X0244504Y0055493D01*
X0244483Y0055413D01*
X0244459Y0055333D01*
X0244430Y0055255D01*
X0244398Y0055178D01*
X0244363Y0055103D01*
X0244324Y0055029D01*
X0244282Y0054957D01*
X0244237Y0054888D01*
X0244188Y0054820D01*
X0244136Y0054755D01*
X0244082Y0054692D01*
X0244024Y0054632D01*
X0243964Y0054574D01*
X0243901Y0054520D01*
X0243836Y0054468D01*
X0243769Y0054419D01*
X0243699Y0054374D01*
X0243627Y0054332D01*
X0243553Y0054293D01*
X0243478Y0054258D01*
X0243401Y0054226D01*
X0243323Y0054197D01*
X0243243Y0054173D01*
X0243163Y0054152D01*
X0243081Y0054135D01*
X0242999Y0054121D01*
X0242999Y0054601D01*
X0243069Y0054617D01*
X0243138Y0054636D01*
X0243206Y0054659D01*
X0243273Y0054685D01*
X0243339Y0054716D01*
X0243402Y0054749D01*
X0243464Y0054786D01*
X0243524Y0054827D01*
X0243581Y0054870D01*
X0243636Y0054917D01*
X0243688Y0054966D01*
X0243738Y0055018D01*
X0243785Y0055073D01*
X0243828Y0055131D01*
X0243869Y0055190D01*
X0243906Y0055252D01*
X0243939Y0055315D01*
X0243970Y0055381D01*
X0243996Y0055448D01*
X0244019Y0055516D01*
X0244039Y0055585D01*
X0244054Y0055656D01*
X0244066Y0055727D01*
X0244074Y0055798D01*
X0244078Y0055870D01*
X0244078Y0055942D01*
X0244074Y0056014D01*
X0244066Y0056085D01*
X0244054Y0056156D01*
X0244039Y0056227D01*
X0244019Y0056296D01*
X0243996Y0056364D01*
X0243970Y0056431D01*
X0243939Y0056497D01*
X0243906Y0056560D01*
X0243869Y0056622D01*
X0243828Y0056681D01*
X0243785Y0056739D01*
X0243738Y0056794D01*
X0243688Y0056846D01*
X0243636Y0056895D01*
X0243581Y0056942D01*
X0243524Y0056985D01*
X0243464Y0057026D01*
X0243402Y0057063D01*
X0243339Y0057096D01*
X0243273Y0057127D01*
X0243206Y0057153D01*
X0243138Y0057176D01*
X0243069Y0057195D01*
X0242999Y0057211D01*
X0242996Y0056724D01*
X0243051Y0056705D01*
X0243104Y0056683D01*
X0243155Y0056658D01*
X0243205Y0056629D01*
X0243252Y0056597D01*
X0243298Y0056561D01*
X0243341Y0056523D01*
X0243381Y0056482D01*
X0243418Y0056438D01*
X0243452Y0056392D01*
X0243483Y0056344D01*
X0243511Y0056293D01*
X0243535Y0056241D01*
X0243556Y0056188D01*
X0243573Y0056133D01*
X0243587Y0056077D01*
X0243596Y0056021D01*
X0243602Y0055963D01*
X0243604Y0055906D01*
X0243602Y0055849D01*
X0243596Y0055791D01*
X0243587Y0055735D01*
X0243573Y0055679D01*
X0243556Y0055624D01*
X0243535Y0055571D01*
X0243511Y0055519D01*
X0243483Y0055468D01*
X0243452Y0055420D01*
X0243418Y0055374D01*
X0243381Y0055330D01*
X0243341Y0055289D01*
X0243298Y0055251D01*
X0243252Y0055215D01*
X0243205Y0055183D01*
X0243155Y0055154D01*
X0243104Y0055129D01*
X0243051Y0055107D01*
X0242996Y0055088D01*
X0242982Y0055605D01*
X0243010Y0055629D01*
X0243036Y0055655D01*
X0243058Y0055684D01*
X0243078Y0055714D01*
X0243095Y0055747D01*
X0243109Y0055781D01*
X0243119Y0055816D01*
X0243126Y0055851D01*
X0243130Y0055888D01*
X0243130Y0055924D01*
X0243126Y0055961D01*
X0243119Y0055996D01*
X0243109Y0056031D01*
X0243095Y0056065D01*
X0243078Y0056098D01*
X0243058Y0056128D01*
X0243036Y0056157D01*
X0243010Y0056183D01*
X0242982Y0056207D01*
D12*
X0238750Y0055906D03*
X0238750Y0087206D03*
X0238750Y0150006D03*
M02*
