G75*
%MOIN*%
%OFA0B0*%
%FSLAX25Y25*%
%IPPOS*%
%LPD*%
%AMOC8*
5,1,8,0,0,1.08239X$1,22.5*
%
%ADD10C,0.06400*%
%ADD11C,0.24422*%
%ADD12C,0.06400*%
%ADD13C,0.09400*%
%ADD14C,0.00918*%
%ADD15C,0.00950*%
%ADD16C,0.11455*%
%ADD17C,0.06000*%
%ADD18R,0.06400X0.06400*%
%ADD19OC8,0.06400*%
%ADD20C,0.01205*%
%ADD21C,0.36233*%
%ADD22C,0.04800*%
D10*
X0015198Y0158906D02*
X0020798Y0158906D01*
X0020798Y0168906D02*
X0015198Y0168906D01*
X0015198Y0178906D02*
X0020798Y0178906D01*
X0020798Y0188906D02*
X0015198Y0188906D01*
X0063161Y0188906D02*
X0068761Y0188906D01*
X0068761Y0178906D02*
X0063161Y0178906D01*
X0063161Y0168906D02*
X0068761Y0168906D01*
X0068761Y0158906D02*
X0063161Y0158906D01*
D11*
X0067211Y0020685D03*
X0295557Y0020685D03*
X0295557Y0213598D03*
X0067211Y0213598D03*
X0016030Y0213598D03*
D12*
X0176050Y0191406D03*
X0196050Y0191406D03*
X0206050Y0191406D03*
X0216050Y0191406D03*
X0216050Y0171406D03*
X0206050Y0171406D03*
X0196050Y0171406D03*
X0203850Y0160006D03*
X0223850Y0160006D03*
X0233850Y0160006D03*
X0243850Y0160006D03*
X0243850Y0140006D03*
X0233850Y0140006D03*
X0223850Y0140006D03*
X0223850Y0128506D03*
X0233850Y0128506D03*
X0243850Y0128506D03*
X0243850Y0108506D03*
X0233850Y0108506D03*
X0223850Y0108506D03*
X0223850Y0097206D03*
X0233850Y0097206D03*
X0243850Y0097206D03*
X0243850Y0077206D03*
X0233850Y0077206D03*
X0223850Y0077206D03*
X0223850Y0065806D03*
X0233850Y0065806D03*
X0243850Y0065806D03*
X0243850Y0045806D03*
X0233850Y0045806D03*
X0223850Y0045806D03*
X0217150Y0034506D03*
X0203850Y0045806D03*
X0203850Y0065806D03*
X0203850Y0077206D03*
X0203850Y0097206D03*
X0203850Y0108506D03*
X0203850Y0128506D03*
X0203850Y0140006D03*
X0176050Y0171406D03*
X0237150Y0034506D03*
X0247150Y0034506D03*
X0257150Y0034506D03*
X0257150Y0014506D03*
X0247150Y0014506D03*
X0237150Y0014506D03*
X0217150Y0014506D03*
D13*
X0269483Y0054298D03*
X0289168Y0068077D03*
X0269483Y0081857D03*
X0289168Y0095636D03*
X0269483Y0109416D03*
X0289168Y0123195D03*
X0269483Y0136975D03*
X0289168Y0150754D03*
X0269483Y0164534D03*
X0289168Y0178313D03*
D14*
X0246991Y0146915D02*
X0242509Y0146915D01*
X0242509Y0153097D01*
X0246991Y0153097D01*
X0246991Y0146915D01*
X0246991Y0147832D02*
X0242509Y0147832D01*
X0242509Y0148749D02*
X0246991Y0148749D01*
X0246991Y0149666D02*
X0242509Y0149666D01*
X0242509Y0150583D02*
X0246991Y0150583D01*
X0246991Y0151500D02*
X0242509Y0151500D01*
X0242509Y0152417D02*
X0246991Y0152417D01*
X0234991Y0146915D02*
X0230509Y0146915D01*
X0230509Y0153097D01*
X0234991Y0153097D01*
X0234991Y0146915D01*
X0234991Y0147832D02*
X0230509Y0147832D01*
X0230509Y0148749D02*
X0234991Y0148749D01*
X0234991Y0149666D02*
X0230509Y0149666D01*
X0230509Y0150583D02*
X0234991Y0150583D01*
X0234991Y0151500D02*
X0230509Y0151500D01*
X0230509Y0152417D02*
X0234991Y0152417D01*
X0234991Y0084115D02*
X0230509Y0084115D01*
X0230509Y0090297D01*
X0234991Y0090297D01*
X0234991Y0084115D01*
X0234991Y0085032D02*
X0230509Y0085032D01*
X0230509Y0085949D02*
X0234991Y0085949D01*
X0234991Y0086866D02*
X0230509Y0086866D01*
X0230509Y0087783D02*
X0234991Y0087783D01*
X0234991Y0088700D02*
X0230509Y0088700D01*
X0230509Y0089617D02*
X0234991Y0089617D01*
X0242509Y0084115D02*
X0246991Y0084115D01*
X0242509Y0084115D02*
X0242509Y0090297D01*
X0246991Y0090297D01*
X0246991Y0084115D01*
X0246991Y0085032D02*
X0242509Y0085032D01*
X0242509Y0085949D02*
X0246991Y0085949D01*
X0246991Y0086866D02*
X0242509Y0086866D01*
X0242509Y0087783D02*
X0246991Y0087783D01*
X0246991Y0088700D02*
X0242509Y0088700D01*
X0242509Y0089617D02*
X0246991Y0089617D01*
X0246991Y0052815D02*
X0242509Y0052815D01*
X0242509Y0058997D01*
X0246991Y0058997D01*
X0246991Y0052815D01*
X0246991Y0053732D02*
X0242509Y0053732D01*
X0242509Y0054649D02*
X0246991Y0054649D01*
X0246991Y0055566D02*
X0242509Y0055566D01*
X0242509Y0056483D02*
X0246991Y0056483D01*
X0246991Y0057400D02*
X0242509Y0057400D01*
X0242509Y0058317D02*
X0246991Y0058317D01*
X0234991Y0052815D02*
X0230509Y0052815D01*
X0230509Y0058997D01*
X0234991Y0058997D01*
X0234991Y0052815D01*
X0234991Y0053732D02*
X0230509Y0053732D01*
X0230509Y0054649D02*
X0234991Y0054649D01*
X0234991Y0055566D02*
X0230509Y0055566D01*
X0230509Y0056483D02*
X0234991Y0056483D01*
X0234991Y0057400D02*
X0230509Y0057400D01*
X0230509Y0058317D02*
X0234991Y0058317D01*
D15*
X0236725Y0052831D02*
X0240775Y0052831D01*
X0236725Y0052831D02*
X0236725Y0058981D01*
X0240775Y0058981D01*
X0240775Y0052831D01*
X0240775Y0053780D02*
X0236725Y0053780D01*
X0236725Y0054729D02*
X0240775Y0054729D01*
X0240775Y0055678D02*
X0236725Y0055678D01*
X0236725Y0056627D02*
X0240775Y0056627D01*
X0240775Y0057576D02*
X0236725Y0057576D01*
X0236725Y0058525D02*
X0240775Y0058525D01*
X0240775Y0084131D02*
X0236725Y0084131D01*
X0236725Y0090281D01*
X0240775Y0090281D01*
X0240775Y0084131D01*
X0240775Y0085080D02*
X0236725Y0085080D01*
X0236725Y0086029D02*
X0240775Y0086029D01*
X0240775Y0086978D02*
X0236725Y0086978D01*
X0236725Y0087927D02*
X0240775Y0087927D01*
X0240775Y0088876D02*
X0236725Y0088876D01*
X0236725Y0089825D02*
X0240775Y0089825D01*
X0240775Y0146931D02*
X0236725Y0146931D01*
X0236725Y0153081D01*
X0240775Y0153081D01*
X0240775Y0146931D01*
X0240775Y0147880D02*
X0236725Y0147880D01*
X0236725Y0148829D02*
X0240775Y0148829D01*
X0240775Y0149778D02*
X0236725Y0149778D01*
X0236725Y0150727D02*
X0240775Y0150727D01*
X0240775Y0151676D02*
X0236725Y0151676D01*
X0236725Y0152625D02*
X0240775Y0152625D01*
D16*
X0148227Y0051533D02*
X0148227Y0040878D01*
X0096495Y0040878D02*
X0096495Y0051533D01*
D17*
X0108581Y0054275D02*
X0108581Y0059475D01*
X0118424Y0059475D02*
X0118424Y0054275D01*
X0126298Y0054275D02*
X0126298Y0059475D01*
X0136141Y0059475D02*
X0136141Y0054275D01*
D18*
X0086384Y0208598D03*
D19*
X0096384Y0208598D03*
X0106384Y0208598D03*
X0116384Y0208598D03*
X0126384Y0208598D03*
X0136384Y0208598D03*
X0146384Y0208598D03*
X0156384Y0208598D03*
X0166384Y0208598D03*
X0176384Y0208598D03*
X0186384Y0208598D03*
X0196384Y0208598D03*
X0206384Y0208598D03*
X0206384Y0218598D03*
X0196384Y0218598D03*
X0186384Y0218598D03*
X0176384Y0218598D03*
X0166384Y0218598D03*
X0156384Y0218598D03*
X0146384Y0218598D03*
X0136384Y0218598D03*
X0126384Y0218598D03*
X0116384Y0218598D03*
X0106384Y0218598D03*
X0096384Y0218598D03*
X0086384Y0218598D03*
D20*
X0126633Y0145667D02*
X0142645Y0145667D01*
X0142645Y0129655D01*
X0126633Y0129655D01*
X0126633Y0145667D01*
X0126633Y0130859D02*
X0142645Y0130859D01*
X0142645Y0132063D02*
X0126633Y0132063D01*
X0126633Y0133267D02*
X0142645Y0133267D01*
X0142645Y0134471D02*
X0126633Y0134471D01*
X0126633Y0135675D02*
X0142645Y0135675D01*
X0142645Y0136879D02*
X0126633Y0136879D01*
X0126633Y0138083D02*
X0142645Y0138083D01*
X0142645Y0139287D02*
X0126633Y0139287D01*
X0126633Y0140491D02*
X0142645Y0140491D01*
X0142645Y0141695D02*
X0126633Y0141695D01*
X0126633Y0142899D02*
X0142645Y0142899D01*
X0142645Y0144103D02*
X0126633Y0144103D01*
X0126633Y0145307D02*
X0142645Y0145307D01*
X0142645Y0085156D02*
X0126633Y0085156D01*
X0142645Y0085156D02*
X0142645Y0069144D01*
X0126633Y0069144D01*
X0126633Y0085156D01*
X0126633Y0070348D02*
X0142645Y0070348D01*
X0142645Y0071552D02*
X0126633Y0071552D01*
X0126633Y0072756D02*
X0142645Y0072756D01*
X0142645Y0073960D02*
X0126633Y0073960D01*
X0126633Y0075164D02*
X0142645Y0075164D01*
X0142645Y0076368D02*
X0126633Y0076368D01*
X0126633Y0077572D02*
X0142645Y0077572D01*
X0142645Y0078776D02*
X0126633Y0078776D01*
X0126633Y0079980D02*
X0142645Y0079980D01*
X0142645Y0081184D02*
X0126633Y0081184D01*
X0126633Y0082388D02*
X0142645Y0082388D01*
X0142645Y0083592D02*
X0126633Y0083592D01*
X0126633Y0084796D02*
X0142645Y0084796D01*
D21*
X0134639Y0107406D03*
D22*
X0088450Y0102806D03*
X0082450Y0102806D03*
X0082350Y0096006D03*
X0088450Y0095906D03*
X0098350Y0184806D03*
X0141950Y0185906D03*
X0163950Y0196606D03*
X0238750Y0087206D03*
X0238750Y0055906D03*
M02*
