G75*
%MOIN*%
%OFA0B0*%
%FSLAX25Y25*%
%IPPOS*%
%LPD*%
%AMOC8*
5,1,8,0,0,1.08239X$1,22.5*
%
%ADD10C,0.00000*%
D10*
X0001850Y0006906D02*
X0001850Y0227378D01*
X0308937Y0227378D01*
X0308937Y0006906D01*
X0001850Y0006906D01*
X0004587Y0010843D02*
X0004589Y0010912D01*
X0004595Y0010981D01*
X0004605Y0011049D01*
X0004619Y0011117D01*
X0004636Y0011184D01*
X0004658Y0011250D01*
X0004683Y0011314D01*
X0004712Y0011377D01*
X0004745Y0011438D01*
X0004781Y0011497D01*
X0004820Y0011554D01*
X0004863Y0011608D01*
X0004908Y0011660D01*
X0004957Y0011710D01*
X0005008Y0011756D01*
X0005062Y0011799D01*
X0005119Y0011840D01*
X0005177Y0011876D01*
X0005238Y0011910D01*
X0005300Y0011940D01*
X0005364Y0011966D01*
X0005429Y0011988D01*
X0005496Y0012007D01*
X0005564Y0012022D01*
X0005632Y0012033D01*
X0005701Y0012040D01*
X0005770Y0012043D01*
X0005839Y0012042D01*
X0005908Y0012037D01*
X0005976Y0012028D01*
X0006044Y0012015D01*
X0006111Y0011998D01*
X0006178Y0011978D01*
X0006242Y0011953D01*
X0006305Y0011925D01*
X0006367Y0011894D01*
X0006426Y0011858D01*
X0006484Y0011820D01*
X0006539Y0011778D01*
X0006592Y0011733D01*
X0006642Y0011685D01*
X0006689Y0011635D01*
X0006733Y0011581D01*
X0006774Y0011526D01*
X0006812Y0011468D01*
X0006846Y0011408D01*
X0006877Y0011346D01*
X0006904Y0011282D01*
X0006927Y0011217D01*
X0006947Y0011151D01*
X0006963Y0011083D01*
X0006975Y0011015D01*
X0006983Y0010947D01*
X0006987Y0010878D01*
X0006987Y0010808D01*
X0006983Y0010739D01*
X0006975Y0010671D01*
X0006963Y0010603D01*
X0006947Y0010535D01*
X0006927Y0010469D01*
X0006904Y0010404D01*
X0006877Y0010340D01*
X0006846Y0010278D01*
X0006812Y0010218D01*
X0006774Y0010160D01*
X0006733Y0010105D01*
X0006689Y0010051D01*
X0006642Y0010001D01*
X0006592Y0009953D01*
X0006539Y0009908D01*
X0006484Y0009866D01*
X0006426Y0009828D01*
X0006367Y0009792D01*
X0006305Y0009761D01*
X0006242Y0009733D01*
X0006178Y0009708D01*
X0006111Y0009688D01*
X0006044Y0009671D01*
X0005976Y0009658D01*
X0005908Y0009649D01*
X0005839Y0009644D01*
X0005770Y0009643D01*
X0005701Y0009646D01*
X0005632Y0009653D01*
X0005564Y0009664D01*
X0005496Y0009679D01*
X0005429Y0009698D01*
X0005364Y0009720D01*
X0005300Y0009746D01*
X0005238Y0009776D01*
X0005177Y0009810D01*
X0005119Y0009846D01*
X0005062Y0009887D01*
X0005008Y0009930D01*
X0004957Y0009976D01*
X0004908Y0010026D01*
X0004863Y0010078D01*
X0004820Y0010132D01*
X0004781Y0010189D01*
X0004745Y0010248D01*
X0004712Y0010309D01*
X0004683Y0010372D01*
X0004658Y0010436D01*
X0004636Y0010502D01*
X0004619Y0010569D01*
X0004605Y0010637D01*
X0004595Y0010705D01*
X0004589Y0010774D01*
X0004587Y0010843D01*
X0012461Y0010843D02*
X0012463Y0010912D01*
X0012469Y0010981D01*
X0012479Y0011049D01*
X0012493Y0011117D01*
X0012510Y0011184D01*
X0012532Y0011250D01*
X0012557Y0011314D01*
X0012586Y0011377D01*
X0012619Y0011438D01*
X0012655Y0011497D01*
X0012694Y0011554D01*
X0012737Y0011608D01*
X0012782Y0011660D01*
X0012831Y0011710D01*
X0012882Y0011756D01*
X0012936Y0011799D01*
X0012993Y0011840D01*
X0013051Y0011876D01*
X0013112Y0011910D01*
X0013174Y0011940D01*
X0013238Y0011966D01*
X0013303Y0011988D01*
X0013370Y0012007D01*
X0013438Y0012022D01*
X0013506Y0012033D01*
X0013575Y0012040D01*
X0013644Y0012043D01*
X0013713Y0012042D01*
X0013782Y0012037D01*
X0013850Y0012028D01*
X0013918Y0012015D01*
X0013985Y0011998D01*
X0014052Y0011978D01*
X0014116Y0011953D01*
X0014179Y0011925D01*
X0014241Y0011894D01*
X0014300Y0011858D01*
X0014358Y0011820D01*
X0014413Y0011778D01*
X0014466Y0011733D01*
X0014516Y0011685D01*
X0014563Y0011635D01*
X0014607Y0011581D01*
X0014648Y0011526D01*
X0014686Y0011468D01*
X0014720Y0011408D01*
X0014751Y0011346D01*
X0014778Y0011282D01*
X0014801Y0011217D01*
X0014821Y0011151D01*
X0014837Y0011083D01*
X0014849Y0011015D01*
X0014857Y0010947D01*
X0014861Y0010878D01*
X0014861Y0010808D01*
X0014857Y0010739D01*
X0014849Y0010671D01*
X0014837Y0010603D01*
X0014821Y0010535D01*
X0014801Y0010469D01*
X0014778Y0010404D01*
X0014751Y0010340D01*
X0014720Y0010278D01*
X0014686Y0010218D01*
X0014648Y0010160D01*
X0014607Y0010105D01*
X0014563Y0010051D01*
X0014516Y0010001D01*
X0014466Y0009953D01*
X0014413Y0009908D01*
X0014358Y0009866D01*
X0014300Y0009828D01*
X0014241Y0009792D01*
X0014179Y0009761D01*
X0014116Y0009733D01*
X0014052Y0009708D01*
X0013985Y0009688D01*
X0013918Y0009671D01*
X0013850Y0009658D01*
X0013782Y0009649D01*
X0013713Y0009644D01*
X0013644Y0009643D01*
X0013575Y0009646D01*
X0013506Y0009653D01*
X0013438Y0009664D01*
X0013370Y0009679D01*
X0013303Y0009698D01*
X0013238Y0009720D01*
X0013174Y0009746D01*
X0013112Y0009776D01*
X0013051Y0009810D01*
X0012993Y0009846D01*
X0012936Y0009887D01*
X0012882Y0009930D01*
X0012831Y0009976D01*
X0012782Y0010026D01*
X0012737Y0010078D01*
X0012694Y0010132D01*
X0012655Y0010189D01*
X0012619Y0010248D01*
X0012586Y0010309D01*
X0012557Y0010372D01*
X0012532Y0010436D01*
X0012510Y0010502D01*
X0012493Y0010569D01*
X0012479Y0010637D01*
X0012469Y0010705D01*
X0012463Y0010774D01*
X0012461Y0010843D01*
X0020335Y0010843D02*
X0020337Y0010912D01*
X0020343Y0010981D01*
X0020353Y0011049D01*
X0020367Y0011117D01*
X0020384Y0011184D01*
X0020406Y0011250D01*
X0020431Y0011314D01*
X0020460Y0011377D01*
X0020493Y0011438D01*
X0020529Y0011497D01*
X0020568Y0011554D01*
X0020611Y0011608D01*
X0020656Y0011660D01*
X0020705Y0011710D01*
X0020756Y0011756D01*
X0020810Y0011799D01*
X0020867Y0011840D01*
X0020925Y0011876D01*
X0020986Y0011910D01*
X0021048Y0011940D01*
X0021112Y0011966D01*
X0021177Y0011988D01*
X0021244Y0012007D01*
X0021312Y0012022D01*
X0021380Y0012033D01*
X0021449Y0012040D01*
X0021518Y0012043D01*
X0021587Y0012042D01*
X0021656Y0012037D01*
X0021724Y0012028D01*
X0021792Y0012015D01*
X0021859Y0011998D01*
X0021926Y0011978D01*
X0021990Y0011953D01*
X0022053Y0011925D01*
X0022115Y0011894D01*
X0022174Y0011858D01*
X0022232Y0011820D01*
X0022287Y0011778D01*
X0022340Y0011733D01*
X0022390Y0011685D01*
X0022437Y0011635D01*
X0022481Y0011581D01*
X0022522Y0011526D01*
X0022560Y0011468D01*
X0022594Y0011408D01*
X0022625Y0011346D01*
X0022652Y0011282D01*
X0022675Y0011217D01*
X0022695Y0011151D01*
X0022711Y0011083D01*
X0022723Y0011015D01*
X0022731Y0010947D01*
X0022735Y0010878D01*
X0022735Y0010808D01*
X0022731Y0010739D01*
X0022723Y0010671D01*
X0022711Y0010603D01*
X0022695Y0010535D01*
X0022675Y0010469D01*
X0022652Y0010404D01*
X0022625Y0010340D01*
X0022594Y0010278D01*
X0022560Y0010218D01*
X0022522Y0010160D01*
X0022481Y0010105D01*
X0022437Y0010051D01*
X0022390Y0010001D01*
X0022340Y0009953D01*
X0022287Y0009908D01*
X0022232Y0009866D01*
X0022174Y0009828D01*
X0022115Y0009792D01*
X0022053Y0009761D01*
X0021990Y0009733D01*
X0021926Y0009708D01*
X0021859Y0009688D01*
X0021792Y0009671D01*
X0021724Y0009658D01*
X0021656Y0009649D01*
X0021587Y0009644D01*
X0021518Y0009643D01*
X0021449Y0009646D01*
X0021380Y0009653D01*
X0021312Y0009664D01*
X0021244Y0009679D01*
X0021177Y0009698D01*
X0021112Y0009720D01*
X0021048Y0009746D01*
X0020986Y0009776D01*
X0020925Y0009810D01*
X0020867Y0009846D01*
X0020810Y0009887D01*
X0020756Y0009930D01*
X0020705Y0009976D01*
X0020656Y0010026D01*
X0020611Y0010078D01*
X0020568Y0010132D01*
X0020529Y0010189D01*
X0020493Y0010248D01*
X0020460Y0010309D01*
X0020431Y0010372D01*
X0020406Y0010436D01*
X0020384Y0010502D01*
X0020367Y0010569D01*
X0020353Y0010637D01*
X0020343Y0010705D01*
X0020337Y0010774D01*
X0020335Y0010843D01*
X0028209Y0010843D02*
X0028211Y0010912D01*
X0028217Y0010981D01*
X0028227Y0011049D01*
X0028241Y0011117D01*
X0028258Y0011184D01*
X0028280Y0011250D01*
X0028305Y0011314D01*
X0028334Y0011377D01*
X0028367Y0011438D01*
X0028403Y0011497D01*
X0028442Y0011554D01*
X0028485Y0011608D01*
X0028530Y0011660D01*
X0028579Y0011710D01*
X0028630Y0011756D01*
X0028684Y0011799D01*
X0028741Y0011840D01*
X0028799Y0011876D01*
X0028860Y0011910D01*
X0028922Y0011940D01*
X0028986Y0011966D01*
X0029051Y0011988D01*
X0029118Y0012007D01*
X0029186Y0012022D01*
X0029254Y0012033D01*
X0029323Y0012040D01*
X0029392Y0012043D01*
X0029461Y0012042D01*
X0029530Y0012037D01*
X0029598Y0012028D01*
X0029666Y0012015D01*
X0029733Y0011998D01*
X0029800Y0011978D01*
X0029864Y0011953D01*
X0029927Y0011925D01*
X0029989Y0011894D01*
X0030048Y0011858D01*
X0030106Y0011820D01*
X0030161Y0011778D01*
X0030214Y0011733D01*
X0030264Y0011685D01*
X0030311Y0011635D01*
X0030355Y0011581D01*
X0030396Y0011526D01*
X0030434Y0011468D01*
X0030468Y0011408D01*
X0030499Y0011346D01*
X0030526Y0011282D01*
X0030549Y0011217D01*
X0030569Y0011151D01*
X0030585Y0011083D01*
X0030597Y0011015D01*
X0030605Y0010947D01*
X0030609Y0010878D01*
X0030609Y0010808D01*
X0030605Y0010739D01*
X0030597Y0010671D01*
X0030585Y0010603D01*
X0030569Y0010535D01*
X0030549Y0010469D01*
X0030526Y0010404D01*
X0030499Y0010340D01*
X0030468Y0010278D01*
X0030434Y0010218D01*
X0030396Y0010160D01*
X0030355Y0010105D01*
X0030311Y0010051D01*
X0030264Y0010001D01*
X0030214Y0009953D01*
X0030161Y0009908D01*
X0030106Y0009866D01*
X0030048Y0009828D01*
X0029989Y0009792D01*
X0029927Y0009761D01*
X0029864Y0009733D01*
X0029800Y0009708D01*
X0029733Y0009688D01*
X0029666Y0009671D01*
X0029598Y0009658D01*
X0029530Y0009649D01*
X0029461Y0009644D01*
X0029392Y0009643D01*
X0029323Y0009646D01*
X0029254Y0009653D01*
X0029186Y0009664D01*
X0029118Y0009679D01*
X0029051Y0009698D01*
X0028986Y0009720D01*
X0028922Y0009746D01*
X0028860Y0009776D01*
X0028799Y0009810D01*
X0028741Y0009846D01*
X0028684Y0009887D01*
X0028630Y0009930D01*
X0028579Y0009976D01*
X0028530Y0010026D01*
X0028485Y0010078D01*
X0028442Y0010132D01*
X0028403Y0010189D01*
X0028367Y0010248D01*
X0028334Y0010309D01*
X0028305Y0010372D01*
X0028280Y0010436D01*
X0028258Y0010502D01*
X0028241Y0010569D01*
X0028227Y0010637D01*
X0028217Y0010705D01*
X0028211Y0010774D01*
X0028209Y0010843D01*
X0031283Y0017843D02*
X0031285Y0017912D01*
X0031291Y0017981D01*
X0031301Y0018049D01*
X0031315Y0018117D01*
X0031332Y0018184D01*
X0031354Y0018250D01*
X0031379Y0018314D01*
X0031408Y0018377D01*
X0031441Y0018438D01*
X0031477Y0018497D01*
X0031516Y0018554D01*
X0031559Y0018608D01*
X0031604Y0018660D01*
X0031653Y0018710D01*
X0031704Y0018756D01*
X0031758Y0018799D01*
X0031815Y0018840D01*
X0031873Y0018876D01*
X0031934Y0018910D01*
X0031996Y0018940D01*
X0032060Y0018966D01*
X0032125Y0018988D01*
X0032192Y0019007D01*
X0032260Y0019022D01*
X0032328Y0019033D01*
X0032397Y0019040D01*
X0032466Y0019043D01*
X0032535Y0019042D01*
X0032604Y0019037D01*
X0032672Y0019028D01*
X0032740Y0019015D01*
X0032807Y0018998D01*
X0032874Y0018978D01*
X0032938Y0018953D01*
X0033001Y0018925D01*
X0033063Y0018894D01*
X0033122Y0018858D01*
X0033180Y0018820D01*
X0033235Y0018778D01*
X0033288Y0018733D01*
X0033338Y0018685D01*
X0033385Y0018635D01*
X0033429Y0018581D01*
X0033470Y0018526D01*
X0033508Y0018468D01*
X0033542Y0018408D01*
X0033573Y0018346D01*
X0033600Y0018282D01*
X0033623Y0018217D01*
X0033643Y0018151D01*
X0033659Y0018083D01*
X0033671Y0018015D01*
X0033679Y0017947D01*
X0033683Y0017878D01*
X0033683Y0017808D01*
X0033679Y0017739D01*
X0033671Y0017671D01*
X0033659Y0017603D01*
X0033643Y0017535D01*
X0033623Y0017469D01*
X0033600Y0017404D01*
X0033573Y0017340D01*
X0033542Y0017278D01*
X0033508Y0017218D01*
X0033470Y0017160D01*
X0033429Y0017105D01*
X0033385Y0017051D01*
X0033338Y0017001D01*
X0033288Y0016953D01*
X0033235Y0016908D01*
X0033180Y0016866D01*
X0033122Y0016828D01*
X0033063Y0016792D01*
X0033001Y0016761D01*
X0032938Y0016733D01*
X0032874Y0016708D01*
X0032807Y0016688D01*
X0032740Y0016671D01*
X0032672Y0016658D01*
X0032604Y0016649D01*
X0032535Y0016644D01*
X0032466Y0016643D01*
X0032397Y0016646D01*
X0032328Y0016653D01*
X0032260Y0016664D01*
X0032192Y0016679D01*
X0032125Y0016698D01*
X0032060Y0016720D01*
X0031996Y0016746D01*
X0031934Y0016776D01*
X0031873Y0016810D01*
X0031815Y0016846D01*
X0031758Y0016887D01*
X0031704Y0016930D01*
X0031653Y0016976D01*
X0031604Y0017026D01*
X0031559Y0017078D01*
X0031516Y0017132D01*
X0031477Y0017189D01*
X0031441Y0017248D01*
X0031408Y0017309D01*
X0031379Y0017372D01*
X0031354Y0017436D01*
X0031332Y0017502D01*
X0031315Y0017569D01*
X0031301Y0017637D01*
X0031291Y0017705D01*
X0031285Y0017774D01*
X0031283Y0017843D01*
X0025250Y0028506D02*
X0025252Y0028575D01*
X0025258Y0028644D01*
X0025268Y0028712D01*
X0025282Y0028780D01*
X0025299Y0028847D01*
X0025321Y0028913D01*
X0025346Y0028977D01*
X0025375Y0029040D01*
X0025408Y0029101D01*
X0025444Y0029160D01*
X0025483Y0029217D01*
X0025526Y0029271D01*
X0025571Y0029323D01*
X0025620Y0029373D01*
X0025671Y0029419D01*
X0025725Y0029462D01*
X0025782Y0029503D01*
X0025840Y0029539D01*
X0025901Y0029573D01*
X0025963Y0029603D01*
X0026027Y0029629D01*
X0026092Y0029651D01*
X0026159Y0029670D01*
X0026227Y0029685D01*
X0026295Y0029696D01*
X0026364Y0029703D01*
X0026433Y0029706D01*
X0026502Y0029705D01*
X0026571Y0029700D01*
X0026639Y0029691D01*
X0026707Y0029678D01*
X0026774Y0029661D01*
X0026841Y0029641D01*
X0026905Y0029616D01*
X0026968Y0029588D01*
X0027030Y0029557D01*
X0027089Y0029521D01*
X0027147Y0029483D01*
X0027202Y0029441D01*
X0027255Y0029396D01*
X0027305Y0029348D01*
X0027352Y0029298D01*
X0027396Y0029244D01*
X0027437Y0029189D01*
X0027475Y0029131D01*
X0027509Y0029071D01*
X0027540Y0029009D01*
X0027567Y0028945D01*
X0027590Y0028880D01*
X0027610Y0028814D01*
X0027626Y0028746D01*
X0027638Y0028678D01*
X0027646Y0028610D01*
X0027650Y0028541D01*
X0027650Y0028471D01*
X0027646Y0028402D01*
X0027638Y0028334D01*
X0027626Y0028266D01*
X0027610Y0028198D01*
X0027590Y0028132D01*
X0027567Y0028067D01*
X0027540Y0028003D01*
X0027509Y0027941D01*
X0027475Y0027881D01*
X0027437Y0027823D01*
X0027396Y0027768D01*
X0027352Y0027714D01*
X0027305Y0027664D01*
X0027255Y0027616D01*
X0027202Y0027571D01*
X0027147Y0027529D01*
X0027089Y0027491D01*
X0027030Y0027455D01*
X0026968Y0027424D01*
X0026905Y0027396D01*
X0026841Y0027371D01*
X0026774Y0027351D01*
X0026707Y0027334D01*
X0026639Y0027321D01*
X0026571Y0027312D01*
X0026502Y0027307D01*
X0026433Y0027306D01*
X0026364Y0027309D01*
X0026295Y0027316D01*
X0026227Y0027327D01*
X0026159Y0027342D01*
X0026092Y0027361D01*
X0026027Y0027383D01*
X0025963Y0027409D01*
X0025901Y0027439D01*
X0025840Y0027473D01*
X0025782Y0027509D01*
X0025725Y0027550D01*
X0025671Y0027593D01*
X0025620Y0027639D01*
X0025571Y0027689D01*
X0025526Y0027741D01*
X0025483Y0027795D01*
X0025444Y0027852D01*
X0025408Y0027911D01*
X0025375Y0027972D01*
X0025346Y0028035D01*
X0025321Y0028099D01*
X0025299Y0028165D01*
X0025282Y0028232D01*
X0025268Y0028300D01*
X0025258Y0028368D01*
X0025252Y0028437D01*
X0025250Y0028506D01*
X0025250Y0034406D02*
X0025252Y0034475D01*
X0025258Y0034544D01*
X0025268Y0034612D01*
X0025282Y0034680D01*
X0025299Y0034747D01*
X0025321Y0034813D01*
X0025346Y0034877D01*
X0025375Y0034940D01*
X0025408Y0035001D01*
X0025444Y0035060D01*
X0025483Y0035117D01*
X0025526Y0035171D01*
X0025571Y0035223D01*
X0025620Y0035273D01*
X0025671Y0035319D01*
X0025725Y0035362D01*
X0025782Y0035403D01*
X0025840Y0035439D01*
X0025901Y0035473D01*
X0025963Y0035503D01*
X0026027Y0035529D01*
X0026092Y0035551D01*
X0026159Y0035570D01*
X0026227Y0035585D01*
X0026295Y0035596D01*
X0026364Y0035603D01*
X0026433Y0035606D01*
X0026502Y0035605D01*
X0026571Y0035600D01*
X0026639Y0035591D01*
X0026707Y0035578D01*
X0026774Y0035561D01*
X0026841Y0035541D01*
X0026905Y0035516D01*
X0026968Y0035488D01*
X0027030Y0035457D01*
X0027089Y0035421D01*
X0027147Y0035383D01*
X0027202Y0035341D01*
X0027255Y0035296D01*
X0027305Y0035248D01*
X0027352Y0035198D01*
X0027396Y0035144D01*
X0027437Y0035089D01*
X0027475Y0035031D01*
X0027509Y0034971D01*
X0027540Y0034909D01*
X0027567Y0034845D01*
X0027590Y0034780D01*
X0027610Y0034714D01*
X0027626Y0034646D01*
X0027638Y0034578D01*
X0027646Y0034510D01*
X0027650Y0034441D01*
X0027650Y0034371D01*
X0027646Y0034302D01*
X0027638Y0034234D01*
X0027626Y0034166D01*
X0027610Y0034098D01*
X0027590Y0034032D01*
X0027567Y0033967D01*
X0027540Y0033903D01*
X0027509Y0033841D01*
X0027475Y0033781D01*
X0027437Y0033723D01*
X0027396Y0033668D01*
X0027352Y0033614D01*
X0027305Y0033564D01*
X0027255Y0033516D01*
X0027202Y0033471D01*
X0027147Y0033429D01*
X0027089Y0033391D01*
X0027030Y0033355D01*
X0026968Y0033324D01*
X0026905Y0033296D01*
X0026841Y0033271D01*
X0026774Y0033251D01*
X0026707Y0033234D01*
X0026639Y0033221D01*
X0026571Y0033212D01*
X0026502Y0033207D01*
X0026433Y0033206D01*
X0026364Y0033209D01*
X0026295Y0033216D01*
X0026227Y0033227D01*
X0026159Y0033242D01*
X0026092Y0033261D01*
X0026027Y0033283D01*
X0025963Y0033309D01*
X0025901Y0033339D01*
X0025840Y0033373D01*
X0025782Y0033409D01*
X0025725Y0033450D01*
X0025671Y0033493D01*
X0025620Y0033539D01*
X0025571Y0033589D01*
X0025526Y0033641D01*
X0025483Y0033695D01*
X0025444Y0033752D01*
X0025408Y0033811D01*
X0025375Y0033872D01*
X0025346Y0033935D01*
X0025321Y0033999D01*
X0025299Y0034065D01*
X0025282Y0034132D01*
X0025268Y0034200D01*
X0025258Y0034268D01*
X0025252Y0034337D01*
X0025250Y0034406D01*
X0009350Y0034106D02*
X0009352Y0034175D01*
X0009358Y0034244D01*
X0009368Y0034312D01*
X0009382Y0034380D01*
X0009399Y0034447D01*
X0009421Y0034513D01*
X0009446Y0034577D01*
X0009475Y0034640D01*
X0009508Y0034701D01*
X0009544Y0034760D01*
X0009583Y0034817D01*
X0009626Y0034871D01*
X0009671Y0034923D01*
X0009720Y0034973D01*
X0009771Y0035019D01*
X0009825Y0035062D01*
X0009882Y0035103D01*
X0009940Y0035139D01*
X0010001Y0035173D01*
X0010063Y0035203D01*
X0010127Y0035229D01*
X0010192Y0035251D01*
X0010259Y0035270D01*
X0010327Y0035285D01*
X0010395Y0035296D01*
X0010464Y0035303D01*
X0010533Y0035306D01*
X0010602Y0035305D01*
X0010671Y0035300D01*
X0010739Y0035291D01*
X0010807Y0035278D01*
X0010874Y0035261D01*
X0010941Y0035241D01*
X0011005Y0035216D01*
X0011068Y0035188D01*
X0011130Y0035157D01*
X0011189Y0035121D01*
X0011247Y0035083D01*
X0011302Y0035041D01*
X0011355Y0034996D01*
X0011405Y0034948D01*
X0011452Y0034898D01*
X0011496Y0034844D01*
X0011537Y0034789D01*
X0011575Y0034731D01*
X0011609Y0034671D01*
X0011640Y0034609D01*
X0011667Y0034545D01*
X0011690Y0034480D01*
X0011710Y0034414D01*
X0011726Y0034346D01*
X0011738Y0034278D01*
X0011746Y0034210D01*
X0011750Y0034141D01*
X0011750Y0034071D01*
X0011746Y0034002D01*
X0011738Y0033934D01*
X0011726Y0033866D01*
X0011710Y0033798D01*
X0011690Y0033732D01*
X0011667Y0033667D01*
X0011640Y0033603D01*
X0011609Y0033541D01*
X0011575Y0033481D01*
X0011537Y0033423D01*
X0011496Y0033368D01*
X0011452Y0033314D01*
X0011405Y0033264D01*
X0011355Y0033216D01*
X0011302Y0033171D01*
X0011247Y0033129D01*
X0011189Y0033091D01*
X0011130Y0033055D01*
X0011068Y0033024D01*
X0011005Y0032996D01*
X0010941Y0032971D01*
X0010874Y0032951D01*
X0010807Y0032934D01*
X0010739Y0032921D01*
X0010671Y0032912D01*
X0010602Y0032907D01*
X0010533Y0032906D01*
X0010464Y0032909D01*
X0010395Y0032916D01*
X0010327Y0032927D01*
X0010259Y0032942D01*
X0010192Y0032961D01*
X0010127Y0032983D01*
X0010063Y0033009D01*
X0010001Y0033039D01*
X0009940Y0033073D01*
X0009882Y0033109D01*
X0009825Y0033150D01*
X0009771Y0033193D01*
X0009720Y0033239D01*
X0009671Y0033289D01*
X0009626Y0033341D01*
X0009583Y0033395D01*
X0009544Y0033452D01*
X0009508Y0033511D01*
X0009475Y0033572D01*
X0009446Y0033635D01*
X0009421Y0033699D01*
X0009399Y0033765D01*
X0009382Y0033832D01*
X0009368Y0033900D01*
X0009358Y0033968D01*
X0009352Y0034037D01*
X0009350Y0034106D01*
X0009450Y0028306D02*
X0009452Y0028375D01*
X0009458Y0028444D01*
X0009468Y0028512D01*
X0009482Y0028580D01*
X0009499Y0028647D01*
X0009521Y0028713D01*
X0009546Y0028777D01*
X0009575Y0028840D01*
X0009608Y0028901D01*
X0009644Y0028960D01*
X0009683Y0029017D01*
X0009726Y0029071D01*
X0009771Y0029123D01*
X0009820Y0029173D01*
X0009871Y0029219D01*
X0009925Y0029262D01*
X0009982Y0029303D01*
X0010040Y0029339D01*
X0010101Y0029373D01*
X0010163Y0029403D01*
X0010227Y0029429D01*
X0010292Y0029451D01*
X0010359Y0029470D01*
X0010427Y0029485D01*
X0010495Y0029496D01*
X0010564Y0029503D01*
X0010633Y0029506D01*
X0010702Y0029505D01*
X0010771Y0029500D01*
X0010839Y0029491D01*
X0010907Y0029478D01*
X0010974Y0029461D01*
X0011041Y0029441D01*
X0011105Y0029416D01*
X0011168Y0029388D01*
X0011230Y0029357D01*
X0011289Y0029321D01*
X0011347Y0029283D01*
X0011402Y0029241D01*
X0011455Y0029196D01*
X0011505Y0029148D01*
X0011552Y0029098D01*
X0011596Y0029044D01*
X0011637Y0028989D01*
X0011675Y0028931D01*
X0011709Y0028871D01*
X0011740Y0028809D01*
X0011767Y0028745D01*
X0011790Y0028680D01*
X0011810Y0028614D01*
X0011826Y0028546D01*
X0011838Y0028478D01*
X0011846Y0028410D01*
X0011850Y0028341D01*
X0011850Y0028271D01*
X0011846Y0028202D01*
X0011838Y0028134D01*
X0011826Y0028066D01*
X0011810Y0027998D01*
X0011790Y0027932D01*
X0011767Y0027867D01*
X0011740Y0027803D01*
X0011709Y0027741D01*
X0011675Y0027681D01*
X0011637Y0027623D01*
X0011596Y0027568D01*
X0011552Y0027514D01*
X0011505Y0027464D01*
X0011455Y0027416D01*
X0011402Y0027371D01*
X0011347Y0027329D01*
X0011289Y0027291D01*
X0011230Y0027255D01*
X0011168Y0027224D01*
X0011105Y0027196D01*
X0011041Y0027171D01*
X0010974Y0027151D01*
X0010907Y0027134D01*
X0010839Y0027121D01*
X0010771Y0027112D01*
X0010702Y0027107D01*
X0010633Y0027106D01*
X0010564Y0027109D01*
X0010495Y0027116D01*
X0010427Y0027127D01*
X0010359Y0027142D01*
X0010292Y0027161D01*
X0010227Y0027183D01*
X0010163Y0027209D01*
X0010101Y0027239D01*
X0010040Y0027273D01*
X0009982Y0027309D01*
X0009925Y0027350D01*
X0009871Y0027393D01*
X0009820Y0027439D01*
X0009771Y0027489D01*
X0009726Y0027541D01*
X0009683Y0027595D01*
X0009644Y0027652D01*
X0009608Y0027711D01*
X0009575Y0027772D01*
X0009546Y0027835D01*
X0009521Y0027899D01*
X0009499Y0027965D01*
X0009482Y0028032D01*
X0009468Y0028100D01*
X0009458Y0028168D01*
X0009452Y0028237D01*
X0009450Y0028306D01*
M02*
