G75*
%MOIN*%
%OFA0B0*%
%FSLAX25Y25*%
%IPPOS*%
%LPD*%
%AMOC8*
5,1,8,0,0,1.08239X$1,22.5*
%
%ADD10C,0.00797*%
%ADD11C,0.00785*%
%ADD12C,0.00803*%
%ADD13C,0.00815*%
%ADD14C,0.00827*%
%ADD15C,0.00780*%
%ADD16C,0.00770*%
%ADD17C,0.00806*%
%ADD18C,0.00787*%
%ADD19C,0.01240*%
%ADD20C,0.01142*%
%ADD21C,0.00984*%
%ADD22C,0.00819*%
D10*
X0011014Y0016252D02*
X0013564Y0016252D01*
X0013564Y0015276D01*
X0011014Y0015276D01*
X0011014Y0016252D01*
X0011014Y0016072D02*
X0013564Y0016072D01*
X0013564Y0020189D02*
X0011014Y0020189D01*
X0013564Y0020189D02*
X0013564Y0019213D01*
X0011014Y0019213D01*
X0011014Y0020189D01*
X0011014Y0020009D02*
X0013564Y0020009D01*
X0013564Y0024126D02*
X0011014Y0024126D01*
X0013564Y0024126D02*
X0013564Y0023150D01*
X0011014Y0023150D01*
X0011014Y0024126D01*
X0011014Y0023946D02*
X0013564Y0023946D01*
X0022432Y0024126D02*
X0024982Y0024126D01*
X0024982Y0023150D01*
X0022432Y0023150D01*
X0022432Y0024126D01*
X0022432Y0023946D02*
X0024982Y0023946D01*
X0024982Y0020189D02*
X0022432Y0020189D01*
X0024982Y0020189D02*
X0024982Y0019213D01*
X0022432Y0019213D01*
X0022432Y0020189D01*
X0022432Y0020009D02*
X0024982Y0020009D01*
X0024982Y0016252D02*
X0022432Y0016252D01*
X0024982Y0016252D02*
X0024982Y0015276D01*
X0022432Y0015276D01*
X0022432Y0016252D01*
X0022432Y0016072D02*
X0024982Y0016072D01*
X0071485Y0074683D02*
X0076003Y0074683D01*
X0071485Y0074683D02*
X0071485Y0084911D01*
X0076003Y0084911D01*
X0076003Y0074683D01*
X0076003Y0075479D02*
X0071485Y0075479D01*
X0071485Y0076275D02*
X0076003Y0076275D01*
X0076003Y0077071D02*
X0071485Y0077071D01*
X0071485Y0077867D02*
X0076003Y0077867D01*
X0076003Y0078663D02*
X0071485Y0078663D01*
X0071485Y0079459D02*
X0076003Y0079459D01*
X0076003Y0080255D02*
X0071485Y0080255D01*
X0071485Y0081051D02*
X0076003Y0081051D01*
X0076003Y0081847D02*
X0071485Y0081847D01*
X0071485Y0082643D02*
X0076003Y0082643D01*
X0076003Y0083439D02*
X0071485Y0083439D01*
X0071485Y0084235D02*
X0076003Y0084235D01*
X0082312Y0074683D02*
X0086830Y0074683D01*
X0082312Y0074683D02*
X0082312Y0084911D01*
X0086830Y0084911D01*
X0086830Y0074683D01*
X0086830Y0075479D02*
X0082312Y0075479D01*
X0082312Y0076275D02*
X0086830Y0076275D01*
X0086830Y0077071D02*
X0082312Y0077071D01*
X0082312Y0077867D02*
X0086830Y0077867D01*
X0086830Y0078663D02*
X0082312Y0078663D01*
X0082312Y0079459D02*
X0086830Y0079459D01*
X0086830Y0080255D02*
X0082312Y0080255D01*
X0082312Y0081051D02*
X0086830Y0081051D01*
X0086830Y0081847D02*
X0082312Y0081847D01*
X0082312Y0082643D02*
X0086830Y0082643D01*
X0086830Y0083439D02*
X0082312Y0083439D01*
X0082312Y0084235D02*
X0086830Y0084235D01*
D11*
X0062780Y0082006D02*
X0062780Y0079050D01*
X0059824Y0079050D01*
X0059824Y0082006D01*
X0062780Y0082006D01*
X0062780Y0079834D02*
X0059824Y0079834D01*
X0059824Y0080618D02*
X0062780Y0080618D01*
X0062780Y0081402D02*
X0059824Y0081402D01*
X0062780Y0076298D02*
X0062780Y0073342D01*
X0059824Y0073342D01*
X0059824Y0076298D01*
X0062780Y0076298D01*
X0062780Y0074126D02*
X0059824Y0074126D01*
X0059824Y0074910D02*
X0062780Y0074910D01*
X0062780Y0075694D02*
X0059824Y0075694D01*
X0081029Y0151384D02*
X0083985Y0151384D01*
X0083985Y0148428D01*
X0081029Y0148428D01*
X0081029Y0151384D01*
X0081029Y0149212D02*
X0083985Y0149212D01*
X0083985Y0149996D02*
X0081029Y0149996D01*
X0081029Y0150780D02*
X0083985Y0150780D01*
X0086737Y0151384D02*
X0089693Y0151384D01*
X0089693Y0148428D01*
X0086737Y0148428D01*
X0086737Y0151384D01*
X0086737Y0149212D02*
X0089693Y0149212D01*
X0089693Y0149996D02*
X0086737Y0149996D01*
X0086737Y0150780D02*
X0089693Y0150780D01*
X0097825Y0189625D02*
X0097825Y0192581D01*
X0097825Y0189625D02*
X0094869Y0189625D01*
X0094869Y0192581D01*
X0097825Y0192581D01*
X0097825Y0190409D02*
X0094869Y0190409D01*
X0094869Y0191193D02*
X0097825Y0191193D01*
X0097825Y0191977D02*
X0094869Y0191977D01*
X0097825Y0195334D02*
X0097825Y0198290D01*
X0097825Y0195334D02*
X0094869Y0195334D01*
X0094869Y0198290D01*
X0097825Y0198290D01*
X0097825Y0196118D02*
X0094869Y0196118D01*
X0094869Y0196902D02*
X0097825Y0196902D01*
X0097825Y0197686D02*
X0094869Y0197686D01*
X0107939Y0198238D02*
X0107939Y0195282D01*
X0104983Y0195282D01*
X0104983Y0198238D01*
X0107939Y0198238D01*
X0107939Y0196066D02*
X0104983Y0196066D01*
X0104983Y0196850D02*
X0107939Y0196850D01*
X0107939Y0197634D02*
X0104983Y0197634D01*
X0107939Y0192529D02*
X0107939Y0189573D01*
X0104983Y0189573D01*
X0104983Y0192529D01*
X0107939Y0192529D01*
X0107939Y0190357D02*
X0104983Y0190357D01*
X0104983Y0191141D02*
X0107939Y0191141D01*
X0107939Y0191925D02*
X0104983Y0191925D01*
X0136918Y0196572D02*
X0139874Y0196572D01*
X0139874Y0193616D01*
X0136918Y0193616D01*
X0136918Y0196572D01*
X0136918Y0194400D02*
X0139874Y0194400D01*
X0139874Y0195184D02*
X0136918Y0195184D01*
X0136918Y0195968D02*
X0139874Y0195968D01*
X0142626Y0196572D02*
X0145582Y0196572D01*
X0145582Y0193616D01*
X0142626Y0193616D01*
X0142626Y0196572D01*
X0142626Y0194400D02*
X0145582Y0194400D01*
X0145582Y0195184D02*
X0142626Y0195184D01*
X0142626Y0195968D02*
X0145582Y0195968D01*
X0148318Y0196572D02*
X0151274Y0196572D01*
X0151274Y0193616D01*
X0148318Y0193616D01*
X0148318Y0196572D01*
X0148318Y0194400D02*
X0151274Y0194400D01*
X0151274Y0195184D02*
X0148318Y0195184D01*
X0148318Y0195968D02*
X0151274Y0195968D01*
X0154026Y0196572D02*
X0156982Y0196572D01*
X0156982Y0193616D01*
X0154026Y0193616D01*
X0154026Y0196572D01*
X0154026Y0194400D02*
X0156982Y0194400D01*
X0156982Y0195184D02*
X0154026Y0195184D01*
X0154026Y0195968D02*
X0156982Y0195968D01*
X0150672Y0168138D02*
X0150672Y0165182D01*
X0150672Y0168138D02*
X0153628Y0168138D01*
X0153628Y0165182D01*
X0150672Y0165182D01*
X0150672Y0165966D02*
X0153628Y0165966D01*
X0153628Y0166750D02*
X0150672Y0166750D01*
X0150672Y0167534D02*
X0153628Y0167534D01*
X0150672Y0162429D02*
X0150672Y0159473D01*
X0150672Y0162429D02*
X0153628Y0162429D01*
X0153628Y0159473D01*
X0150672Y0159473D01*
X0150672Y0160257D02*
X0153628Y0160257D01*
X0153628Y0161041D02*
X0150672Y0161041D01*
X0150672Y0161825D02*
X0153628Y0161825D01*
X0165072Y0162927D02*
X0165072Y0159971D01*
X0165072Y0162927D02*
X0168028Y0162927D01*
X0168028Y0159971D01*
X0165072Y0159971D01*
X0165072Y0160755D02*
X0168028Y0160755D01*
X0168028Y0161539D02*
X0165072Y0161539D01*
X0165072Y0162323D02*
X0168028Y0162323D01*
X0173118Y0157439D02*
X0176074Y0157439D01*
X0173118Y0157439D02*
X0173118Y0160395D01*
X0176074Y0160395D01*
X0176074Y0157439D01*
X0176074Y0158223D02*
X0173118Y0158223D01*
X0173118Y0159007D02*
X0176074Y0159007D01*
X0176074Y0159791D02*
X0173118Y0159791D01*
X0178826Y0157439D02*
X0181782Y0157439D01*
X0178826Y0157439D02*
X0178826Y0160395D01*
X0181782Y0160395D01*
X0181782Y0157439D01*
X0181782Y0158223D02*
X0178826Y0158223D01*
X0178826Y0159007D02*
X0181782Y0159007D01*
X0181782Y0159791D02*
X0178826Y0159791D01*
X0165072Y0157218D02*
X0165072Y0154262D01*
X0165072Y0157218D02*
X0168028Y0157218D01*
X0168028Y0154262D01*
X0165072Y0154262D01*
X0165072Y0155046D02*
X0168028Y0155046D01*
X0168028Y0155830D02*
X0165072Y0155830D01*
X0165072Y0156614D02*
X0168028Y0156614D01*
X0175718Y0134339D02*
X0178674Y0134339D01*
X0175718Y0134339D02*
X0175718Y0137295D01*
X0178674Y0137295D01*
X0178674Y0134339D01*
X0178674Y0135123D02*
X0175718Y0135123D01*
X0175718Y0135907D02*
X0178674Y0135907D01*
X0178674Y0136691D02*
X0175718Y0136691D01*
X0181426Y0134339D02*
X0184382Y0134339D01*
X0181426Y0134339D02*
X0181426Y0137295D01*
X0184382Y0137295D01*
X0184382Y0134339D01*
X0184382Y0135123D02*
X0181426Y0135123D01*
X0181426Y0135907D02*
X0184382Y0135907D01*
X0184382Y0136691D02*
X0181426Y0136691D01*
X0167572Y0134627D02*
X0167572Y0131671D01*
X0167572Y0134627D02*
X0170528Y0134627D01*
X0170528Y0131671D01*
X0167572Y0131671D01*
X0167572Y0132455D02*
X0170528Y0132455D01*
X0170528Y0133239D02*
X0167572Y0133239D01*
X0167572Y0134023D02*
X0170528Y0134023D01*
X0167572Y0128918D02*
X0167572Y0125962D01*
X0167572Y0128918D02*
X0170528Y0128918D01*
X0170528Y0125962D01*
X0167572Y0125962D01*
X0167572Y0126746D02*
X0170528Y0126746D01*
X0170528Y0127530D02*
X0167572Y0127530D01*
X0167572Y0128314D02*
X0170528Y0128314D01*
X0174918Y0093239D02*
X0177874Y0093239D01*
X0174918Y0093239D02*
X0174918Y0096195D01*
X0177874Y0096195D01*
X0177874Y0093239D01*
X0177874Y0094023D02*
X0174918Y0094023D01*
X0174918Y0094807D02*
X0177874Y0094807D01*
X0177874Y0095591D02*
X0174918Y0095591D01*
X0180626Y0093239D02*
X0183582Y0093239D01*
X0180626Y0093239D02*
X0180626Y0096195D01*
X0183582Y0096195D01*
X0183582Y0093239D01*
X0183582Y0094023D02*
X0180626Y0094023D01*
X0180626Y0094807D02*
X0183582Y0094807D01*
X0183582Y0095591D02*
X0180626Y0095591D01*
X0166683Y0093638D02*
X0166683Y0090682D01*
X0166683Y0093638D02*
X0169639Y0093638D01*
X0169639Y0090682D01*
X0166683Y0090682D01*
X0166683Y0091466D02*
X0169639Y0091466D01*
X0169639Y0092250D02*
X0166683Y0092250D01*
X0166683Y0093034D02*
X0169639Y0093034D01*
X0166683Y0087929D02*
X0166683Y0084973D01*
X0166683Y0087929D02*
X0169639Y0087929D01*
X0169639Y0084973D01*
X0166683Y0084973D01*
X0166683Y0085757D02*
X0169639Y0085757D01*
X0169639Y0086541D02*
X0166683Y0086541D01*
X0166683Y0087325D02*
X0169639Y0087325D01*
X0175202Y0064502D02*
X0178158Y0064502D01*
X0175202Y0064502D02*
X0175202Y0067458D01*
X0178158Y0067458D01*
X0178158Y0064502D01*
X0178158Y0065286D02*
X0175202Y0065286D01*
X0175202Y0066070D02*
X0178158Y0066070D01*
X0178158Y0066854D02*
X0175202Y0066854D01*
X0167346Y0066169D02*
X0167346Y0063213D01*
X0167346Y0066169D02*
X0170302Y0066169D01*
X0170302Y0063213D01*
X0167346Y0063213D01*
X0167346Y0063997D02*
X0170302Y0063997D01*
X0170302Y0064781D02*
X0167346Y0064781D01*
X0167346Y0065565D02*
X0170302Y0065565D01*
X0167346Y0060461D02*
X0167346Y0057505D01*
X0167346Y0060461D02*
X0170302Y0060461D01*
X0170302Y0057505D01*
X0167346Y0057505D01*
X0167346Y0058289D02*
X0170302Y0058289D01*
X0170302Y0059073D02*
X0167346Y0059073D01*
X0167346Y0059857D02*
X0170302Y0059857D01*
X0180911Y0064502D02*
X0183867Y0064502D01*
X0180911Y0064502D02*
X0180911Y0067458D01*
X0183867Y0067458D01*
X0183867Y0064502D01*
X0183867Y0065286D02*
X0180911Y0065286D01*
X0180911Y0066070D02*
X0183867Y0066070D01*
X0183867Y0066854D02*
X0180911Y0066854D01*
X0167878Y0036632D02*
X0167878Y0033676D01*
X0167878Y0036632D02*
X0170834Y0036632D01*
X0170834Y0033676D01*
X0167878Y0033676D01*
X0167878Y0034460D02*
X0170834Y0034460D01*
X0170834Y0035244D02*
X0167878Y0035244D01*
X0167878Y0036028D02*
X0170834Y0036028D01*
X0167878Y0030924D02*
X0167878Y0027968D01*
X0167878Y0030924D02*
X0170834Y0030924D01*
X0170834Y0027968D01*
X0167878Y0027968D01*
X0167878Y0028752D02*
X0170834Y0028752D01*
X0170834Y0029536D02*
X0167878Y0029536D01*
X0167878Y0030320D02*
X0170834Y0030320D01*
X0175946Y0029743D02*
X0175946Y0026787D01*
X0175946Y0029743D02*
X0178902Y0029743D01*
X0178902Y0026787D01*
X0175946Y0026787D01*
X0175946Y0027571D02*
X0178902Y0027571D01*
X0178902Y0028355D02*
X0175946Y0028355D01*
X0175946Y0029139D02*
X0178902Y0029139D01*
X0175946Y0024035D02*
X0175946Y0021079D01*
X0175946Y0024035D02*
X0178902Y0024035D01*
X0178902Y0021079D01*
X0175946Y0021079D01*
X0175946Y0021863D02*
X0178902Y0021863D01*
X0178902Y0022647D02*
X0175946Y0022647D01*
X0175946Y0023431D02*
X0178902Y0023431D01*
D12*
X0076139Y0038153D02*
X0076139Y0044437D01*
X0082029Y0044437D01*
X0082029Y0038153D01*
X0076139Y0038153D01*
X0076139Y0038955D02*
X0082029Y0038955D01*
X0082029Y0039757D02*
X0076139Y0039757D01*
X0076139Y0040559D02*
X0082029Y0040559D01*
X0082029Y0041361D02*
X0076139Y0041361D01*
X0076139Y0042163D02*
X0082029Y0042163D01*
X0082029Y0042965D02*
X0076139Y0042965D01*
X0076139Y0043767D02*
X0082029Y0043767D01*
X0076139Y0054295D02*
X0076139Y0060579D01*
X0082029Y0060579D01*
X0082029Y0054295D01*
X0076139Y0054295D01*
X0076139Y0055097D02*
X0082029Y0055097D01*
X0082029Y0055899D02*
X0076139Y0055899D01*
X0076139Y0056701D02*
X0082029Y0056701D01*
X0082029Y0057503D02*
X0076139Y0057503D01*
X0076139Y0058305D02*
X0082029Y0058305D01*
X0082029Y0059107D02*
X0076139Y0059107D01*
X0076139Y0059909D02*
X0082029Y0059909D01*
X0235181Y0194251D02*
X0235181Y0198173D01*
X0240363Y0198173D01*
X0240363Y0194251D01*
X0235181Y0194251D01*
X0235181Y0195053D02*
X0240363Y0195053D01*
X0240363Y0195855D02*
X0235181Y0195855D01*
X0235181Y0196657D02*
X0240363Y0196657D01*
X0240363Y0197459D02*
X0235181Y0197459D01*
X0226384Y0200793D02*
X0226384Y0207077D01*
X0226384Y0200793D02*
X0220494Y0200793D01*
X0220494Y0207077D01*
X0226384Y0207077D01*
X0226384Y0201595D02*
X0220494Y0201595D01*
X0220494Y0202397D02*
X0226384Y0202397D01*
X0226384Y0203199D02*
X0220494Y0203199D01*
X0220494Y0204001D02*
X0226384Y0204001D01*
X0226384Y0204803D02*
X0220494Y0204803D01*
X0220494Y0205605D02*
X0226384Y0205605D01*
X0226384Y0206407D02*
X0220494Y0206407D01*
X0226384Y0216934D02*
X0226384Y0223218D01*
X0226384Y0216934D02*
X0220494Y0216934D01*
X0220494Y0223218D01*
X0226384Y0223218D01*
X0226384Y0217736D02*
X0220494Y0217736D01*
X0220494Y0218538D02*
X0226384Y0218538D01*
X0226384Y0219340D02*
X0220494Y0219340D01*
X0220494Y0220142D02*
X0226384Y0220142D01*
X0226384Y0220944D02*
X0220494Y0220944D01*
X0220494Y0221746D02*
X0226384Y0221746D01*
X0226384Y0222548D02*
X0220494Y0222548D01*
X0235181Y0218685D02*
X0235181Y0214763D01*
X0235181Y0218685D02*
X0240363Y0218685D01*
X0240363Y0214763D01*
X0235181Y0214763D01*
X0235181Y0215565D02*
X0240363Y0215565D01*
X0240363Y0216367D02*
X0235181Y0216367D01*
X0235181Y0217169D02*
X0240363Y0217169D01*
X0240363Y0217971D02*
X0235181Y0217971D01*
X0274773Y0218685D02*
X0274773Y0214763D01*
X0269591Y0214763D01*
X0269591Y0218685D01*
X0274773Y0218685D01*
X0274773Y0215565D02*
X0269591Y0215565D01*
X0269591Y0216367D02*
X0274773Y0216367D01*
X0274773Y0217169D02*
X0269591Y0217169D01*
X0269591Y0217971D02*
X0274773Y0217971D01*
X0274773Y0198173D02*
X0274773Y0194251D01*
X0269591Y0194251D01*
X0269591Y0198173D01*
X0274773Y0198173D01*
X0274773Y0195053D02*
X0269591Y0195053D01*
X0269591Y0195855D02*
X0274773Y0195855D01*
X0274773Y0196657D02*
X0269591Y0196657D01*
X0269591Y0197459D02*
X0274773Y0197459D01*
D13*
X0184554Y0142119D02*
X0181826Y0142119D01*
X0181826Y0145241D01*
X0184554Y0145241D01*
X0184554Y0142119D01*
X0184554Y0142933D02*
X0181826Y0142933D01*
X0181826Y0143747D02*
X0184554Y0143747D01*
X0184554Y0144561D02*
X0181826Y0144561D01*
X0177074Y0142119D02*
X0174346Y0142119D01*
X0174346Y0145241D01*
X0177074Y0145241D01*
X0177074Y0142119D01*
X0177074Y0142933D02*
X0174346Y0142933D01*
X0174346Y0143747D02*
X0177074Y0143747D01*
X0177074Y0144561D02*
X0174346Y0144561D01*
X0178086Y0149993D02*
X0180814Y0149993D01*
X0178086Y0149993D02*
X0178086Y0153115D01*
X0180814Y0153115D01*
X0180814Y0149993D01*
X0180814Y0150807D02*
X0178086Y0150807D01*
X0178086Y0151621D02*
X0180814Y0151621D01*
X0180814Y0152435D02*
X0178086Y0152435D01*
X0178186Y0125293D02*
X0180914Y0125293D01*
X0178186Y0125293D02*
X0178186Y0128415D01*
X0180914Y0128415D01*
X0180914Y0125293D01*
X0180914Y0126107D02*
X0178186Y0126107D01*
X0178186Y0126921D02*
X0180914Y0126921D01*
X0180914Y0127735D02*
X0178186Y0127735D01*
X0177174Y0117419D02*
X0174446Y0117419D01*
X0174446Y0120541D01*
X0177174Y0120541D01*
X0177174Y0117419D01*
X0177174Y0118233D02*
X0174446Y0118233D01*
X0174446Y0119047D02*
X0177174Y0119047D01*
X0177174Y0119861D02*
X0174446Y0119861D01*
X0181926Y0117419D02*
X0184654Y0117419D01*
X0181926Y0117419D02*
X0181926Y0120541D01*
X0184654Y0120541D01*
X0184654Y0117419D01*
X0184654Y0118233D02*
X0181926Y0118233D01*
X0181926Y0119047D02*
X0184654Y0119047D01*
X0184654Y0119861D02*
X0181926Y0119861D01*
X0180614Y0085082D02*
X0177886Y0085082D01*
X0177886Y0088204D01*
X0180614Y0088204D01*
X0180614Y0085082D01*
X0180614Y0085896D02*
X0177886Y0085896D01*
X0177886Y0086710D02*
X0180614Y0086710D01*
X0180614Y0087524D02*
X0177886Y0087524D01*
X0176874Y0077208D02*
X0174146Y0077208D01*
X0174146Y0080330D01*
X0176874Y0080330D01*
X0176874Y0077208D01*
X0176874Y0078022D02*
X0174146Y0078022D01*
X0174146Y0078836D02*
X0176874Y0078836D01*
X0176874Y0079650D02*
X0174146Y0079650D01*
X0181626Y0077208D02*
X0184354Y0077208D01*
X0181626Y0077208D02*
X0181626Y0080330D01*
X0184354Y0080330D01*
X0184354Y0077208D01*
X0184354Y0078022D02*
X0181626Y0078022D01*
X0181626Y0078836D02*
X0184354Y0078836D01*
X0184354Y0079650D02*
X0181626Y0079650D01*
X0180814Y0055882D02*
X0178086Y0055882D01*
X0178086Y0059004D01*
X0180814Y0059004D01*
X0180814Y0055882D01*
X0180814Y0056696D02*
X0178086Y0056696D01*
X0178086Y0057510D02*
X0180814Y0057510D01*
X0180814Y0058324D02*
X0178086Y0058324D01*
X0177074Y0048008D02*
X0174346Y0048008D01*
X0174346Y0051130D01*
X0177074Y0051130D01*
X0177074Y0048008D01*
X0177074Y0048822D02*
X0174346Y0048822D01*
X0174346Y0049636D02*
X0177074Y0049636D01*
X0177074Y0050450D02*
X0174346Y0050450D01*
X0181826Y0048008D02*
X0184554Y0048008D01*
X0181826Y0048008D02*
X0181826Y0051130D01*
X0184554Y0051130D01*
X0184554Y0048008D01*
X0184554Y0048822D02*
X0181826Y0048822D01*
X0181826Y0049636D02*
X0184554Y0049636D01*
X0184554Y0050450D02*
X0181826Y0050450D01*
X0186110Y0035715D02*
X0186110Y0032987D01*
X0186110Y0035715D02*
X0189232Y0035715D01*
X0189232Y0032987D01*
X0186110Y0032987D01*
X0186110Y0033801D02*
X0189232Y0033801D01*
X0189232Y0034615D02*
X0186110Y0034615D01*
X0186110Y0035429D02*
X0189232Y0035429D01*
X0193984Y0031975D02*
X0193984Y0029247D01*
X0193984Y0031975D02*
X0197106Y0031975D01*
X0197106Y0029247D01*
X0193984Y0029247D01*
X0193984Y0030061D02*
X0197106Y0030061D01*
X0197106Y0030875D02*
X0193984Y0030875D01*
X0193984Y0031689D02*
X0197106Y0031689D01*
X0186110Y0028235D02*
X0186110Y0025507D01*
X0186110Y0028235D02*
X0189232Y0028235D01*
X0189232Y0025507D01*
X0186110Y0025507D01*
X0186110Y0026321D02*
X0189232Y0026321D01*
X0189232Y0027135D02*
X0186110Y0027135D01*
X0186110Y0027949D02*
X0189232Y0027949D01*
X0158954Y0176419D02*
X0156226Y0176419D01*
X0156226Y0179541D01*
X0158954Y0179541D01*
X0158954Y0176419D01*
X0158954Y0177233D02*
X0156226Y0177233D01*
X0156226Y0178047D02*
X0158954Y0178047D01*
X0158954Y0178861D02*
X0156226Y0178861D01*
X0151474Y0176419D02*
X0148746Y0176419D01*
X0148746Y0179541D01*
X0151474Y0179541D01*
X0151474Y0176419D01*
X0151474Y0177233D02*
X0148746Y0177233D01*
X0148746Y0178047D02*
X0151474Y0178047D01*
X0151474Y0178861D02*
X0148746Y0178861D01*
X0152486Y0184293D02*
X0155214Y0184293D01*
X0152486Y0184293D02*
X0152486Y0187415D01*
X0155214Y0187415D01*
X0155214Y0184293D01*
X0155214Y0185107D02*
X0152486Y0185107D01*
X0152486Y0185921D02*
X0155214Y0185921D01*
X0155214Y0186735D02*
X0152486Y0186735D01*
D14*
X0168080Y0185955D02*
X0168080Y0190641D01*
X0168080Y0185955D02*
X0161820Y0185955D01*
X0161820Y0190641D01*
X0168080Y0190641D01*
X0168080Y0186781D02*
X0161820Y0186781D01*
X0161820Y0187607D02*
X0168080Y0187607D01*
X0168080Y0188433D02*
X0161820Y0188433D01*
X0161820Y0189259D02*
X0168080Y0189259D01*
X0168080Y0190085D02*
X0161820Y0190085D01*
X0168080Y0177256D02*
X0168080Y0172570D01*
X0161820Y0172570D01*
X0161820Y0177256D01*
X0168080Y0177256D01*
X0168080Y0173396D02*
X0161820Y0173396D01*
X0161820Y0174222D02*
X0168080Y0174222D01*
X0168080Y0175048D02*
X0161820Y0175048D01*
X0161820Y0175874D02*
X0168080Y0175874D01*
X0168080Y0176700D02*
X0161820Y0176700D01*
X0195380Y0157941D02*
X0195380Y0153255D01*
X0189120Y0153255D01*
X0189120Y0157941D01*
X0195380Y0157941D01*
X0195380Y0154081D02*
X0189120Y0154081D01*
X0189120Y0154907D02*
X0195380Y0154907D01*
X0195380Y0155733D02*
X0189120Y0155733D01*
X0189120Y0156559D02*
X0195380Y0156559D01*
X0195380Y0157385D02*
X0189120Y0157385D01*
X0195380Y0144556D02*
X0195380Y0139870D01*
X0189120Y0139870D01*
X0189120Y0144556D01*
X0195380Y0144556D01*
X0195380Y0140696D02*
X0189120Y0140696D01*
X0189120Y0141522D02*
X0195380Y0141522D01*
X0195380Y0142348D02*
X0189120Y0142348D01*
X0189120Y0143174D02*
X0195380Y0143174D01*
X0195380Y0144000D02*
X0189120Y0144000D01*
X0195180Y0134741D02*
X0195180Y0130055D01*
X0188920Y0130055D01*
X0188920Y0134741D01*
X0195180Y0134741D01*
X0195180Y0130881D02*
X0188920Y0130881D01*
X0188920Y0131707D02*
X0195180Y0131707D01*
X0195180Y0132533D02*
X0188920Y0132533D01*
X0188920Y0133359D02*
X0195180Y0133359D01*
X0195180Y0134185D02*
X0188920Y0134185D01*
X0195180Y0121356D02*
X0195180Y0116670D01*
X0188920Y0116670D01*
X0188920Y0121356D01*
X0195180Y0121356D01*
X0195180Y0117496D02*
X0188920Y0117496D01*
X0188920Y0118322D02*
X0195180Y0118322D01*
X0195180Y0119148D02*
X0188920Y0119148D01*
X0188920Y0119974D02*
X0195180Y0119974D01*
X0195180Y0120800D02*
X0188920Y0120800D01*
X0195180Y0093941D02*
X0195180Y0089255D01*
X0188920Y0089255D01*
X0188920Y0093941D01*
X0195180Y0093941D01*
X0195180Y0090081D02*
X0188920Y0090081D01*
X0188920Y0090907D02*
X0195180Y0090907D01*
X0195180Y0091733D02*
X0188920Y0091733D01*
X0188920Y0092559D02*
X0195180Y0092559D01*
X0195180Y0093385D02*
X0188920Y0093385D01*
X0195180Y0080556D02*
X0195180Y0075870D01*
X0188920Y0075870D01*
X0188920Y0080556D01*
X0195180Y0080556D01*
X0195180Y0076696D02*
X0188920Y0076696D01*
X0188920Y0077522D02*
X0195180Y0077522D01*
X0195180Y0078348D02*
X0188920Y0078348D01*
X0188920Y0079174D02*
X0195180Y0079174D01*
X0195180Y0080000D02*
X0188920Y0080000D01*
X0195380Y0065341D02*
X0195380Y0060655D01*
X0189120Y0060655D01*
X0189120Y0065341D01*
X0195380Y0065341D01*
X0195380Y0061481D02*
X0189120Y0061481D01*
X0189120Y0062307D02*
X0195380Y0062307D01*
X0195380Y0063133D02*
X0189120Y0063133D01*
X0189120Y0063959D02*
X0195380Y0063959D01*
X0195380Y0064785D02*
X0189120Y0064785D01*
X0195380Y0051956D02*
X0195380Y0047270D01*
X0189120Y0047270D01*
X0189120Y0051956D01*
X0195380Y0051956D01*
X0195380Y0048096D02*
X0189120Y0048096D01*
X0189120Y0048922D02*
X0195380Y0048922D01*
X0195380Y0049748D02*
X0189120Y0049748D01*
X0189120Y0050574D02*
X0195380Y0050574D01*
X0195380Y0051400D02*
X0189120Y0051400D01*
X0208680Y0034141D02*
X0208680Y0029455D01*
X0202420Y0029455D01*
X0202420Y0034141D01*
X0208680Y0034141D01*
X0208680Y0030281D02*
X0202420Y0030281D01*
X0202420Y0031107D02*
X0208680Y0031107D01*
X0208680Y0031933D02*
X0202420Y0031933D01*
X0202420Y0032759D02*
X0208680Y0032759D01*
X0208680Y0033585D02*
X0202420Y0033585D01*
X0208680Y0020756D02*
X0208680Y0016070D01*
X0202420Y0016070D01*
X0202420Y0020756D01*
X0208680Y0020756D01*
X0208680Y0016896D02*
X0202420Y0016896D01*
X0202420Y0017722D02*
X0208680Y0017722D01*
X0208680Y0018548D02*
X0202420Y0018548D01*
X0202420Y0019374D02*
X0208680Y0019374D01*
X0208680Y0020200D02*
X0202420Y0020200D01*
D15*
X0196328Y0019209D02*
X0192778Y0019209D01*
X0196328Y0019209D02*
X0196328Y0014477D01*
X0192778Y0014477D01*
X0192778Y0019209D01*
X0192778Y0015256D02*
X0196328Y0015256D01*
X0196328Y0016035D02*
X0192778Y0016035D01*
X0192778Y0016814D02*
X0196328Y0016814D01*
X0196328Y0017593D02*
X0192778Y0017593D01*
X0192778Y0018372D02*
X0196328Y0018372D01*
X0196328Y0019151D02*
X0192778Y0019151D01*
X0189438Y0019209D02*
X0185888Y0019209D01*
X0189438Y0019209D02*
X0189438Y0014477D01*
X0185888Y0014477D01*
X0185888Y0019209D01*
X0185888Y0015256D02*
X0189438Y0015256D01*
X0189438Y0016035D02*
X0185888Y0016035D01*
X0185888Y0016814D02*
X0189438Y0016814D01*
X0189438Y0017593D02*
X0185888Y0017593D01*
X0185888Y0018372D02*
X0189438Y0018372D01*
X0189438Y0019151D02*
X0185888Y0019151D01*
X0098716Y0072349D02*
X0098716Y0075899D01*
X0098716Y0072349D02*
X0093984Y0072349D01*
X0093984Y0075899D01*
X0098716Y0075899D01*
X0098716Y0073128D02*
X0093984Y0073128D01*
X0093984Y0073907D02*
X0098716Y0073907D01*
X0098716Y0074686D02*
X0093984Y0074686D01*
X0093984Y0075465D02*
X0098716Y0075465D01*
X0098716Y0079239D02*
X0098716Y0082789D01*
X0098716Y0079239D02*
X0093984Y0079239D01*
X0093984Y0082789D01*
X0098716Y0082789D01*
X0098716Y0080018D02*
X0093984Y0080018D01*
X0093984Y0080797D02*
X0098716Y0080797D01*
X0098716Y0081576D02*
X0093984Y0081576D01*
X0093984Y0082355D02*
X0098716Y0082355D01*
X0111742Y0090470D02*
X0111742Y0094020D01*
X0111742Y0090470D02*
X0107010Y0090470D01*
X0107010Y0094020D01*
X0111742Y0094020D01*
X0111742Y0091249D02*
X0107010Y0091249D01*
X0107010Y0092028D02*
X0111742Y0092028D01*
X0111742Y0092807D02*
X0107010Y0092807D01*
X0107010Y0093586D02*
X0111742Y0093586D01*
X0111742Y0097360D02*
X0111742Y0100910D01*
X0111742Y0097360D02*
X0107010Y0097360D01*
X0107010Y0100910D01*
X0111742Y0100910D01*
X0111742Y0098139D02*
X0107010Y0098139D01*
X0107010Y0098918D02*
X0111742Y0098918D01*
X0111742Y0099697D02*
X0107010Y0099697D01*
X0107010Y0100476D02*
X0111742Y0100476D01*
X0078384Y0125675D02*
X0078384Y0129225D01*
X0083116Y0129225D01*
X0083116Y0125675D01*
X0078384Y0125675D01*
X0078384Y0126454D02*
X0083116Y0126454D01*
X0083116Y0127233D02*
X0078384Y0127233D01*
X0078384Y0128012D02*
X0083116Y0128012D01*
X0083116Y0128791D02*
X0078384Y0128791D01*
X0078384Y0132564D02*
X0078384Y0136114D01*
X0083116Y0136114D01*
X0083116Y0132564D01*
X0078384Y0132564D01*
X0078384Y0133343D02*
X0083116Y0133343D01*
X0083116Y0134122D02*
X0078384Y0134122D01*
X0078384Y0134901D02*
X0083116Y0134901D01*
X0083116Y0135680D02*
X0078384Y0135680D01*
X0063573Y0136386D02*
X0063573Y0139936D01*
X0068305Y0139936D01*
X0068305Y0136386D01*
X0063573Y0136386D01*
X0063573Y0137165D02*
X0068305Y0137165D01*
X0068305Y0137944D02*
X0063573Y0137944D01*
X0063573Y0138723D02*
X0068305Y0138723D01*
X0068305Y0139502D02*
X0063573Y0139502D01*
X0063573Y0143275D02*
X0063573Y0146825D01*
X0068305Y0146825D01*
X0068305Y0143275D01*
X0063573Y0143275D01*
X0063573Y0144054D02*
X0068305Y0144054D01*
X0068305Y0144833D02*
X0063573Y0144833D01*
X0063573Y0145612D02*
X0068305Y0145612D01*
X0068305Y0146391D02*
X0063573Y0146391D01*
X0063700Y0114289D02*
X0063700Y0110739D01*
X0058968Y0110739D01*
X0058968Y0114289D01*
X0063700Y0114289D01*
X0063700Y0111518D02*
X0058968Y0111518D01*
X0058968Y0112297D02*
X0063700Y0112297D01*
X0063700Y0113076D02*
X0058968Y0113076D01*
X0058968Y0113855D02*
X0063700Y0113855D01*
X0063700Y0107399D02*
X0063700Y0103849D01*
X0058968Y0103849D01*
X0058968Y0107399D01*
X0063700Y0107399D01*
X0063700Y0104628D02*
X0058968Y0104628D01*
X0058968Y0105407D02*
X0063700Y0105407D01*
X0063700Y0106186D02*
X0058968Y0106186D01*
X0058968Y0106965D02*
X0063700Y0106965D01*
X0058932Y0098757D02*
X0058932Y0095207D01*
X0058932Y0098757D02*
X0063664Y0098757D01*
X0063664Y0095207D01*
X0058932Y0095207D01*
X0058932Y0095986D02*
X0063664Y0095986D01*
X0063664Y0096765D02*
X0058932Y0096765D01*
X0058932Y0097544D02*
X0063664Y0097544D01*
X0063664Y0098323D02*
X0058932Y0098323D01*
X0058932Y0091867D02*
X0058932Y0088317D01*
X0058932Y0091867D02*
X0063664Y0091867D01*
X0063664Y0088317D01*
X0058932Y0088317D01*
X0058932Y0089096D02*
X0063664Y0089096D01*
X0063664Y0089875D02*
X0058932Y0089875D01*
X0058932Y0090654D02*
X0063664Y0090654D01*
X0063664Y0091433D02*
X0058932Y0091433D01*
X0023502Y0035545D02*
X0019952Y0035545D01*
X0019952Y0040277D01*
X0023502Y0040277D01*
X0023502Y0035545D01*
X0023502Y0036324D02*
X0019952Y0036324D01*
X0019952Y0037103D02*
X0023502Y0037103D01*
X0023502Y0037882D02*
X0019952Y0037882D01*
X0019952Y0038661D02*
X0023502Y0038661D01*
X0023502Y0039440D02*
X0019952Y0039440D01*
X0019952Y0040219D02*
X0023502Y0040219D01*
X0016612Y0035545D02*
X0013062Y0035545D01*
X0013062Y0040277D01*
X0016612Y0040277D01*
X0016612Y0035545D01*
X0016612Y0036324D02*
X0013062Y0036324D01*
X0013062Y0037103D02*
X0016612Y0037103D01*
X0016612Y0037882D02*
X0013062Y0037882D01*
X0013062Y0038661D02*
X0016612Y0038661D01*
X0016612Y0039440D02*
X0013062Y0039440D01*
X0013062Y0040219D02*
X0016612Y0040219D01*
X0155130Y0141640D02*
X0158680Y0141640D01*
X0155130Y0141640D02*
X0155130Y0146372D01*
X0158680Y0146372D01*
X0158680Y0141640D01*
X0158680Y0142419D02*
X0155130Y0142419D01*
X0155130Y0143198D02*
X0158680Y0143198D01*
X0158680Y0143977D02*
X0155130Y0143977D01*
X0155130Y0144756D02*
X0158680Y0144756D01*
X0158680Y0145535D02*
X0155130Y0145535D01*
X0155130Y0146314D02*
X0158680Y0146314D01*
X0162020Y0141640D02*
X0165570Y0141640D01*
X0162020Y0141640D02*
X0162020Y0146372D01*
X0165570Y0146372D01*
X0165570Y0141640D01*
X0165570Y0142419D02*
X0162020Y0142419D01*
X0162020Y0143198D02*
X0165570Y0143198D01*
X0165570Y0143977D02*
X0162020Y0143977D01*
X0162020Y0144756D02*
X0165570Y0144756D01*
X0165570Y0145535D02*
X0162020Y0145535D01*
X0162020Y0146314D02*
X0165570Y0146314D01*
X0181530Y0108472D02*
X0185080Y0108472D01*
X0185080Y0103740D01*
X0181530Y0103740D01*
X0181530Y0108472D01*
X0181530Y0104519D02*
X0185080Y0104519D01*
X0185080Y0105298D02*
X0181530Y0105298D01*
X0181530Y0106077D02*
X0185080Y0106077D01*
X0185080Y0106856D02*
X0181530Y0106856D01*
X0181530Y0107635D02*
X0185080Y0107635D01*
X0185080Y0108414D02*
X0181530Y0108414D01*
X0188420Y0108472D02*
X0191970Y0108472D01*
X0191970Y0103740D01*
X0188420Y0103740D01*
X0188420Y0108472D01*
X0188420Y0104519D02*
X0191970Y0104519D01*
X0191970Y0105298D02*
X0188420Y0105298D01*
X0188420Y0106077D02*
X0191970Y0106077D01*
X0191970Y0106856D02*
X0188420Y0106856D01*
X0188420Y0107635D02*
X0191970Y0107635D01*
X0191970Y0108414D02*
X0188420Y0108414D01*
D16*
X0155208Y0122740D02*
X0148978Y0122740D01*
X0155208Y0122740D02*
X0155208Y0115010D01*
X0148978Y0115010D01*
X0148978Y0122740D01*
X0148978Y0115779D02*
X0155208Y0115779D01*
X0155208Y0116548D02*
X0148978Y0116548D01*
X0148978Y0117317D02*
X0155208Y0117317D01*
X0155208Y0118086D02*
X0148978Y0118086D01*
X0148978Y0118855D02*
X0155208Y0118855D01*
X0155208Y0119624D02*
X0148978Y0119624D01*
X0148978Y0120393D02*
X0155208Y0120393D01*
X0155208Y0121162D02*
X0148978Y0121162D01*
X0148978Y0121931D02*
X0155208Y0121931D01*
X0155208Y0122700D02*
X0148978Y0122700D01*
X0139208Y0122740D02*
X0132978Y0122740D01*
X0139208Y0122740D02*
X0139208Y0115010D01*
X0132978Y0115010D01*
X0132978Y0122740D01*
X0132978Y0115779D02*
X0139208Y0115779D01*
X0139208Y0116548D02*
X0132978Y0116548D01*
X0132978Y0117317D02*
X0139208Y0117317D01*
X0139208Y0118086D02*
X0132978Y0118086D01*
X0132978Y0118855D02*
X0139208Y0118855D01*
X0139208Y0119624D02*
X0132978Y0119624D01*
X0132978Y0120393D02*
X0139208Y0120393D01*
X0139208Y0121162D02*
X0132978Y0121162D01*
X0132978Y0121931D02*
X0139208Y0121931D01*
X0139208Y0122700D02*
X0132978Y0122700D01*
D17*
X0093953Y0107903D02*
X0093953Y0106109D01*
X0093953Y0107903D02*
X0101147Y0107903D01*
X0101147Y0106109D01*
X0093953Y0106109D01*
X0093953Y0106914D02*
X0101147Y0106914D01*
X0101147Y0107719D02*
X0093953Y0107719D01*
X0093953Y0102903D02*
X0093953Y0101109D01*
X0093953Y0102903D02*
X0101147Y0102903D01*
X0101147Y0101109D01*
X0093953Y0101109D01*
X0093953Y0101914D02*
X0101147Y0101914D01*
X0101147Y0102719D02*
X0093953Y0102719D01*
X0093953Y0097903D02*
X0093953Y0096109D01*
X0093953Y0097903D02*
X0101147Y0097903D01*
X0101147Y0096109D01*
X0093953Y0096109D01*
X0093953Y0096914D02*
X0101147Y0096914D01*
X0101147Y0097719D02*
X0093953Y0097719D01*
X0093953Y0092903D02*
X0093953Y0091109D01*
X0093953Y0092903D02*
X0101147Y0092903D01*
X0101147Y0091109D01*
X0093953Y0091109D01*
X0093953Y0091914D02*
X0101147Y0091914D01*
X0101147Y0092719D02*
X0093953Y0092719D01*
X0069753Y0092903D02*
X0069753Y0091109D01*
X0069753Y0092903D02*
X0076947Y0092903D01*
X0076947Y0091109D01*
X0069753Y0091109D01*
X0069753Y0091914D02*
X0076947Y0091914D01*
X0076947Y0092719D02*
X0069753Y0092719D01*
X0069753Y0096109D02*
X0069753Y0097903D01*
X0076947Y0097903D01*
X0076947Y0096109D01*
X0069753Y0096109D01*
X0069753Y0096914D02*
X0076947Y0096914D01*
X0076947Y0097719D02*
X0069753Y0097719D01*
X0069753Y0101109D02*
X0069753Y0102903D01*
X0076947Y0102903D01*
X0076947Y0101109D01*
X0069753Y0101109D01*
X0069753Y0101914D02*
X0076947Y0101914D01*
X0076947Y0102719D02*
X0069753Y0102719D01*
X0069753Y0106109D02*
X0069753Y0107903D01*
X0076947Y0107903D01*
X0076947Y0106109D01*
X0069753Y0106109D01*
X0069753Y0106914D02*
X0076947Y0106914D01*
X0076947Y0107719D02*
X0069753Y0107719D01*
X0092258Y0158309D02*
X0092258Y0160103D01*
X0092258Y0158309D02*
X0085064Y0158309D01*
X0085064Y0160103D01*
X0092258Y0160103D01*
X0092258Y0159114D02*
X0085064Y0159114D01*
X0085064Y0159919D02*
X0092258Y0159919D01*
X0092258Y0163309D02*
X0092258Y0165103D01*
X0092258Y0163309D02*
X0085064Y0163309D01*
X0085064Y0165103D01*
X0092258Y0165103D01*
X0092258Y0164114D02*
X0085064Y0164114D01*
X0085064Y0164919D02*
X0092258Y0164919D01*
X0092258Y0168309D02*
X0092258Y0170103D01*
X0092258Y0168309D02*
X0085064Y0168309D01*
X0085064Y0170103D01*
X0092258Y0170103D01*
X0092258Y0169114D02*
X0085064Y0169114D01*
X0085064Y0169919D02*
X0092258Y0169919D01*
X0092258Y0173309D02*
X0092258Y0175103D01*
X0092258Y0173309D02*
X0085064Y0173309D01*
X0085064Y0175103D01*
X0092258Y0175103D01*
X0092258Y0174114D02*
X0085064Y0174114D01*
X0085064Y0174919D02*
X0092258Y0174919D01*
X0116458Y0175103D02*
X0116458Y0173309D01*
X0109264Y0173309D01*
X0109264Y0175103D01*
X0116458Y0175103D01*
X0116458Y0174114D02*
X0109264Y0174114D01*
X0109264Y0174919D02*
X0116458Y0174919D01*
X0116458Y0170103D02*
X0116458Y0168309D01*
X0109264Y0168309D01*
X0109264Y0170103D01*
X0116458Y0170103D01*
X0116458Y0169114D02*
X0109264Y0169114D01*
X0109264Y0169919D02*
X0116458Y0169919D01*
X0116458Y0165103D02*
X0116458Y0163309D01*
X0109264Y0163309D01*
X0109264Y0165103D01*
X0116458Y0165103D01*
X0116458Y0164114D02*
X0109264Y0164114D01*
X0109264Y0164919D02*
X0116458Y0164919D01*
X0116458Y0160103D02*
X0116458Y0158309D01*
X0109264Y0158309D01*
X0109264Y0160103D01*
X0116458Y0160103D01*
X0116458Y0159114D02*
X0109264Y0159114D01*
X0109264Y0159919D02*
X0116458Y0159919D01*
D18*
X0120011Y0162052D02*
X0126311Y0162052D01*
X0120011Y0162052D02*
X0120011Y0165202D01*
X0126311Y0165202D01*
X0126311Y0162052D01*
X0126311Y0162838D02*
X0120011Y0162838D01*
X0120011Y0163624D02*
X0126311Y0163624D01*
X0126311Y0164410D02*
X0120011Y0164410D01*
X0120011Y0165196D02*
X0126311Y0165196D01*
X0126311Y0152209D02*
X0120011Y0152209D01*
X0120011Y0155359D01*
X0126311Y0155359D01*
X0126311Y0152209D01*
X0126311Y0152995D02*
X0120011Y0152995D01*
X0120011Y0153781D02*
X0126311Y0153781D01*
X0126311Y0154567D02*
X0120011Y0154567D01*
X0120011Y0155353D02*
X0126311Y0155353D01*
X0105698Y0083886D02*
X0105698Y0079752D01*
X0105698Y0083886D02*
X0111802Y0083886D01*
X0111802Y0079752D01*
X0105698Y0079752D01*
X0105698Y0080538D02*
X0111802Y0080538D01*
X0111802Y0081324D02*
X0105698Y0081324D01*
X0105698Y0082110D02*
X0111802Y0082110D01*
X0111802Y0082896D02*
X0105698Y0082896D01*
X0105698Y0083682D02*
X0111802Y0083682D01*
X0105698Y0073059D02*
X0105698Y0068925D01*
X0105698Y0073059D02*
X0111802Y0073059D01*
X0111802Y0068925D01*
X0105698Y0068925D01*
X0105698Y0069711D02*
X0111802Y0069711D01*
X0111802Y0070497D02*
X0105698Y0070497D01*
X0105698Y0071283D02*
X0111802Y0071283D01*
X0111802Y0072069D02*
X0105698Y0072069D01*
X0105698Y0072855D02*
X0111802Y0072855D01*
X0236398Y0170125D02*
X0236398Y0174259D01*
X0242502Y0174259D01*
X0242502Y0170125D01*
X0236398Y0170125D01*
X0236398Y0170911D02*
X0242502Y0170911D01*
X0242502Y0171697D02*
X0236398Y0171697D01*
X0236398Y0172483D02*
X0242502Y0172483D01*
X0242502Y0173269D02*
X0236398Y0173269D01*
X0236398Y0174055D02*
X0242502Y0174055D01*
X0248298Y0174259D02*
X0248298Y0170125D01*
X0248298Y0174259D02*
X0254402Y0174259D01*
X0254402Y0170125D01*
X0248298Y0170125D01*
X0248298Y0170911D02*
X0254402Y0170911D01*
X0254402Y0171697D02*
X0248298Y0171697D01*
X0248298Y0172483D02*
X0254402Y0172483D01*
X0254402Y0173269D02*
X0248298Y0173269D01*
X0248298Y0174055D02*
X0254402Y0174055D01*
X0248298Y0180952D02*
X0248298Y0185086D01*
X0254402Y0185086D01*
X0254402Y0180952D01*
X0248298Y0180952D01*
X0248298Y0181738D02*
X0254402Y0181738D01*
X0254402Y0182524D02*
X0248298Y0182524D01*
X0248298Y0183310D02*
X0254402Y0183310D01*
X0254402Y0184096D02*
X0248298Y0184096D01*
X0248298Y0184882D02*
X0254402Y0184882D01*
X0236398Y0185086D02*
X0236398Y0180952D01*
X0236398Y0185086D02*
X0242502Y0185086D01*
X0242502Y0180952D01*
X0236398Y0180952D01*
X0236398Y0181738D02*
X0242502Y0181738D01*
X0242502Y0182524D02*
X0236398Y0182524D01*
X0236398Y0183310D02*
X0242502Y0183310D01*
X0242502Y0184096D02*
X0236398Y0184096D01*
X0236398Y0184882D02*
X0242502Y0184882D01*
X0285870Y0190554D02*
X0290004Y0190554D01*
X0285870Y0190554D02*
X0285870Y0196658D01*
X0290004Y0196658D01*
X0290004Y0190554D01*
X0290004Y0191340D02*
X0285870Y0191340D01*
X0285870Y0192126D02*
X0290004Y0192126D01*
X0290004Y0192912D02*
X0285870Y0192912D01*
X0285870Y0193698D02*
X0290004Y0193698D01*
X0290004Y0194484D02*
X0285870Y0194484D01*
X0285870Y0195270D02*
X0290004Y0195270D01*
X0290004Y0196056D02*
X0285870Y0196056D01*
X0296696Y0190554D02*
X0300830Y0190554D01*
X0296696Y0190554D02*
X0296696Y0196658D01*
X0300830Y0196658D01*
X0300830Y0190554D01*
X0300830Y0191340D02*
X0296696Y0191340D01*
X0296696Y0192126D02*
X0300830Y0192126D01*
X0300830Y0192912D02*
X0296696Y0192912D01*
X0296696Y0193698D02*
X0300830Y0193698D01*
X0300830Y0194484D02*
X0296696Y0194484D01*
X0296696Y0195270D02*
X0300830Y0195270D01*
X0300830Y0196056D02*
X0296696Y0196056D01*
D19*
X0158208Y0096428D02*
X0119292Y0096428D01*
X0119292Y0108968D01*
X0158208Y0108968D01*
X0158208Y0096428D01*
X0158208Y0097667D02*
X0119292Y0097667D01*
X0119292Y0098906D02*
X0158208Y0098906D01*
X0158208Y0100145D02*
X0119292Y0100145D01*
X0119292Y0101384D02*
X0158208Y0101384D01*
X0158208Y0102623D02*
X0119292Y0102623D01*
X0119292Y0103862D02*
X0158208Y0103862D01*
X0158208Y0105101D02*
X0119292Y0105101D01*
X0119292Y0106340D02*
X0158208Y0106340D01*
X0158208Y0107579D02*
X0119292Y0107579D01*
X0119292Y0108818D02*
X0158208Y0108818D01*
X0158208Y0070443D02*
X0119292Y0070443D01*
X0119292Y0082983D01*
X0158208Y0082983D01*
X0158208Y0070443D01*
X0158208Y0071682D02*
X0119292Y0071682D01*
X0119292Y0072921D02*
X0158208Y0072921D01*
X0158208Y0074160D02*
X0119292Y0074160D01*
X0119292Y0075399D02*
X0158208Y0075399D01*
X0158208Y0076638D02*
X0119292Y0076638D01*
X0119292Y0077877D02*
X0158208Y0077877D01*
X0158208Y0079116D02*
X0119292Y0079116D01*
X0119292Y0080355D02*
X0158208Y0080355D01*
X0158208Y0081594D02*
X0119292Y0081594D01*
X0119292Y0082833D02*
X0158208Y0082833D01*
D20*
X0080313Y0093581D02*
X0080313Y0105431D01*
X0090587Y0105431D01*
X0090587Y0093581D01*
X0080313Y0093581D01*
X0080313Y0094722D02*
X0090587Y0094722D01*
X0090587Y0095863D02*
X0080313Y0095863D01*
X0080313Y0097004D02*
X0090587Y0097004D01*
X0090587Y0098145D02*
X0080313Y0098145D01*
X0080313Y0099286D02*
X0090587Y0099286D01*
X0090587Y0100427D02*
X0080313Y0100427D01*
X0080313Y0101568D02*
X0090587Y0101568D01*
X0090587Y0102709D02*
X0080313Y0102709D01*
X0080313Y0103850D02*
X0090587Y0103850D01*
X0090587Y0104991D02*
X0080313Y0104991D01*
D21*
X0091260Y0126377D02*
X0091260Y0135235D01*
X0106024Y0135235D01*
X0106024Y0126377D01*
X0091260Y0126377D01*
X0091260Y0127360D02*
X0106024Y0127360D01*
X0106024Y0128343D02*
X0091260Y0128343D01*
X0091260Y0129326D02*
X0106024Y0129326D01*
X0106024Y0130309D02*
X0091260Y0130309D01*
X0091260Y0131292D02*
X0106024Y0131292D01*
X0106024Y0132275D02*
X0091260Y0132275D01*
X0091260Y0133258D02*
X0106024Y0133258D01*
X0106024Y0134241D02*
X0091260Y0134241D01*
X0091260Y0135224D02*
X0106024Y0135224D01*
X0115276Y0135235D02*
X0115276Y0126377D01*
X0115276Y0135235D02*
X0130040Y0135235D01*
X0130040Y0126377D01*
X0115276Y0126377D01*
X0115276Y0127360D02*
X0130040Y0127360D01*
X0130040Y0128343D02*
X0115276Y0128343D01*
X0115276Y0129326D02*
X0130040Y0129326D01*
X0130040Y0130309D02*
X0115276Y0130309D01*
X0115276Y0131292D02*
X0130040Y0131292D01*
X0130040Y0132275D02*
X0115276Y0132275D01*
X0115276Y0133258D02*
X0130040Y0133258D01*
X0130040Y0134241D02*
X0115276Y0134241D01*
X0115276Y0135224D02*
X0130040Y0135224D01*
D22*
X0020738Y0024213D02*
X0015258Y0024213D01*
X0020738Y0024213D02*
X0020738Y0015189D01*
X0015258Y0015189D01*
X0015258Y0024213D01*
X0015258Y0016007D02*
X0020738Y0016007D01*
X0020738Y0016825D02*
X0015258Y0016825D01*
X0015258Y0017643D02*
X0020738Y0017643D01*
X0020738Y0018461D02*
X0015258Y0018461D01*
X0015258Y0019279D02*
X0020738Y0019279D01*
X0020738Y0020097D02*
X0015258Y0020097D01*
X0015258Y0020915D02*
X0020738Y0020915D01*
X0020738Y0021733D02*
X0015258Y0021733D01*
X0015258Y0022551D02*
X0020738Y0022551D01*
X0020738Y0023369D02*
X0015258Y0023369D01*
X0015258Y0024187D02*
X0020738Y0024187D01*
M02*
