G75*
%MOIN*%
%OFA0B0*%
%FSLAX25Y25*%
%IPPOS*%
%LPD*%
%AMOC8*
5,1,8,0,0,1.08239X$1,22.5*
%
%ADD10C,0.00917*%
%ADD11C,0.06400*%
%ADD12C,0.00953*%
%ADD13C,0.00899*%
%ADD14C,0.24422*%
%ADD15C,0.00939*%
%ADD16C,0.06400*%
%ADD17C,0.00999*%
%ADD18C,0.00947*%
%ADD19C,0.09400*%
%ADD20C,0.00924*%
%ADD21C,0.00858*%
%ADD22C,0.11455*%
%ADD23C,0.06000*%
%ADD24R,0.06400X0.06400*%
%ADD25OC8,0.06400*%
%ADD26C,0.01054*%
%ADD27C,0.00947*%
%ADD28C,0.01312*%
%ADD29C,0.01222*%
%ADD30C,0.01064*%
%ADD31C,0.00915*%
%ADD32C,0.01157*%
%ADD33C,0.00923*%
%ADD34C,0.04800*%
D10*
X0071145Y0074343D02*
X0076343Y0074343D01*
X0071145Y0074343D02*
X0071145Y0085251D01*
X0076343Y0085251D01*
X0076343Y0074343D01*
X0076343Y0075259D02*
X0071145Y0075259D01*
X0071145Y0076175D02*
X0076343Y0076175D01*
X0076343Y0077091D02*
X0071145Y0077091D01*
X0071145Y0078007D02*
X0076343Y0078007D01*
X0076343Y0078923D02*
X0071145Y0078923D01*
X0071145Y0079839D02*
X0076343Y0079839D01*
X0076343Y0080755D02*
X0071145Y0080755D01*
X0071145Y0081671D02*
X0076343Y0081671D01*
X0076343Y0082587D02*
X0071145Y0082587D01*
X0071145Y0083503D02*
X0076343Y0083503D01*
X0076343Y0084419D02*
X0071145Y0084419D01*
X0081972Y0074343D02*
X0087170Y0074343D01*
X0081972Y0074343D02*
X0081972Y0085251D01*
X0087170Y0085251D01*
X0087170Y0074343D01*
X0087170Y0075259D02*
X0081972Y0075259D01*
X0081972Y0076175D02*
X0087170Y0076175D01*
X0087170Y0077091D02*
X0081972Y0077091D01*
X0081972Y0078007D02*
X0087170Y0078007D01*
X0087170Y0078923D02*
X0081972Y0078923D01*
X0081972Y0079839D02*
X0087170Y0079839D01*
X0087170Y0080755D02*
X0081972Y0080755D01*
X0081972Y0081671D02*
X0087170Y0081671D01*
X0087170Y0082587D02*
X0081972Y0082587D01*
X0081972Y0083503D02*
X0087170Y0083503D01*
X0087170Y0084419D02*
X0081972Y0084419D01*
D11*
X0068761Y0158906D02*
X0063161Y0158906D01*
X0063161Y0168906D02*
X0068761Y0168906D01*
X0068761Y0178906D02*
X0063161Y0178906D01*
X0063161Y0188906D02*
X0068761Y0188906D01*
X0020798Y0188906D02*
X0015198Y0188906D01*
X0015198Y0178906D02*
X0020798Y0178906D01*
X0020798Y0168906D02*
X0015198Y0168906D01*
X0015198Y0158906D02*
X0020798Y0158906D01*
D12*
X0080713Y0151700D02*
X0084301Y0151700D01*
X0084301Y0148112D01*
X0080713Y0148112D01*
X0080713Y0151700D01*
X0080713Y0149064D02*
X0084301Y0149064D01*
X0084301Y0150016D02*
X0080713Y0150016D01*
X0080713Y0150968D02*
X0084301Y0150968D01*
X0086421Y0151700D02*
X0090009Y0151700D01*
X0090009Y0148112D01*
X0086421Y0148112D01*
X0086421Y0151700D01*
X0086421Y0149064D02*
X0090009Y0149064D01*
X0090009Y0150016D02*
X0086421Y0150016D01*
X0086421Y0150968D02*
X0090009Y0150968D01*
X0098141Y0189309D02*
X0098141Y0192897D01*
X0098141Y0189309D02*
X0094553Y0189309D01*
X0094553Y0192897D01*
X0098141Y0192897D01*
X0098141Y0190261D02*
X0094553Y0190261D01*
X0094553Y0191213D02*
X0098141Y0191213D01*
X0098141Y0192165D02*
X0094553Y0192165D01*
X0098141Y0195018D02*
X0098141Y0198606D01*
X0098141Y0195018D02*
X0094553Y0195018D01*
X0094553Y0198606D01*
X0098141Y0198606D01*
X0098141Y0195970D02*
X0094553Y0195970D01*
X0094553Y0196922D02*
X0098141Y0196922D01*
X0098141Y0197874D02*
X0094553Y0197874D01*
X0108255Y0198554D02*
X0108255Y0194966D01*
X0104667Y0194966D01*
X0104667Y0198554D01*
X0108255Y0198554D01*
X0108255Y0195918D02*
X0104667Y0195918D01*
X0104667Y0196870D02*
X0108255Y0196870D01*
X0108255Y0197822D02*
X0104667Y0197822D01*
X0108255Y0192845D02*
X0108255Y0189257D01*
X0104667Y0189257D01*
X0104667Y0192845D01*
X0108255Y0192845D01*
X0108255Y0190209D02*
X0104667Y0190209D01*
X0104667Y0191161D02*
X0108255Y0191161D01*
X0108255Y0192113D02*
X0104667Y0192113D01*
X0136602Y0196888D02*
X0140190Y0196888D01*
X0140190Y0193300D01*
X0136602Y0193300D01*
X0136602Y0196888D01*
X0136602Y0194252D02*
X0140190Y0194252D01*
X0140190Y0195204D02*
X0136602Y0195204D01*
X0136602Y0196156D02*
X0140190Y0196156D01*
X0142310Y0196888D02*
X0145898Y0196888D01*
X0145898Y0193300D01*
X0142310Y0193300D01*
X0142310Y0196888D01*
X0142310Y0194252D02*
X0145898Y0194252D01*
X0145898Y0195204D02*
X0142310Y0195204D01*
X0142310Y0196156D02*
X0145898Y0196156D01*
X0148002Y0196888D02*
X0151590Y0196888D01*
X0151590Y0193300D01*
X0148002Y0193300D01*
X0148002Y0196888D01*
X0148002Y0194252D02*
X0151590Y0194252D01*
X0151590Y0195204D02*
X0148002Y0195204D01*
X0148002Y0196156D02*
X0151590Y0196156D01*
X0153710Y0196888D02*
X0157298Y0196888D01*
X0157298Y0193300D01*
X0153710Y0193300D01*
X0153710Y0196888D01*
X0153710Y0194252D02*
X0157298Y0194252D01*
X0157298Y0195204D02*
X0153710Y0195204D01*
X0153710Y0196156D02*
X0157298Y0196156D01*
X0150356Y0168454D02*
X0150356Y0164866D01*
X0150356Y0168454D02*
X0153944Y0168454D01*
X0153944Y0164866D01*
X0150356Y0164866D01*
X0150356Y0165818D02*
X0153944Y0165818D01*
X0153944Y0166770D02*
X0150356Y0166770D01*
X0150356Y0167722D02*
X0153944Y0167722D01*
X0150356Y0162745D02*
X0150356Y0159157D01*
X0150356Y0162745D02*
X0153944Y0162745D01*
X0153944Y0159157D01*
X0150356Y0159157D01*
X0150356Y0160109D02*
X0153944Y0160109D01*
X0153944Y0161061D02*
X0150356Y0161061D01*
X0150356Y0162013D02*
X0153944Y0162013D01*
X0164756Y0163243D02*
X0164756Y0159655D01*
X0164756Y0163243D02*
X0168344Y0163243D01*
X0168344Y0159655D01*
X0164756Y0159655D01*
X0164756Y0160607D02*
X0168344Y0160607D01*
X0168344Y0161559D02*
X0164756Y0161559D01*
X0164756Y0162511D02*
X0168344Y0162511D01*
X0172802Y0157123D02*
X0176390Y0157123D01*
X0172802Y0157123D02*
X0172802Y0160711D01*
X0176390Y0160711D01*
X0176390Y0157123D01*
X0176390Y0158075D02*
X0172802Y0158075D01*
X0172802Y0159027D02*
X0176390Y0159027D01*
X0176390Y0159979D02*
X0172802Y0159979D01*
X0164756Y0157534D02*
X0164756Y0153946D01*
X0164756Y0157534D02*
X0168344Y0157534D01*
X0168344Y0153946D01*
X0164756Y0153946D01*
X0164756Y0154898D02*
X0168344Y0154898D01*
X0168344Y0155850D02*
X0164756Y0155850D01*
X0164756Y0156802D02*
X0168344Y0156802D01*
X0178510Y0157123D02*
X0182098Y0157123D01*
X0178510Y0157123D02*
X0178510Y0160711D01*
X0182098Y0160711D01*
X0182098Y0157123D01*
X0182098Y0158075D02*
X0178510Y0158075D01*
X0178510Y0159027D02*
X0182098Y0159027D01*
X0182098Y0159979D02*
X0178510Y0159979D01*
X0178990Y0134023D02*
X0175402Y0134023D01*
X0175402Y0137611D01*
X0178990Y0137611D01*
X0178990Y0134023D01*
X0178990Y0134975D02*
X0175402Y0134975D01*
X0175402Y0135927D02*
X0178990Y0135927D01*
X0178990Y0136879D02*
X0175402Y0136879D01*
X0167256Y0134943D02*
X0167256Y0131355D01*
X0167256Y0134943D02*
X0170844Y0134943D01*
X0170844Y0131355D01*
X0167256Y0131355D01*
X0167256Y0132307D02*
X0170844Y0132307D01*
X0170844Y0133259D02*
X0167256Y0133259D01*
X0167256Y0134211D02*
X0170844Y0134211D01*
X0167256Y0129234D02*
X0167256Y0125646D01*
X0167256Y0129234D02*
X0170844Y0129234D01*
X0170844Y0125646D01*
X0167256Y0125646D01*
X0167256Y0126598D02*
X0170844Y0126598D01*
X0170844Y0127550D02*
X0167256Y0127550D01*
X0167256Y0128502D02*
X0170844Y0128502D01*
X0181110Y0134023D02*
X0184698Y0134023D01*
X0181110Y0134023D02*
X0181110Y0137611D01*
X0184698Y0137611D01*
X0184698Y0134023D01*
X0184698Y0134975D02*
X0181110Y0134975D01*
X0181110Y0135927D02*
X0184698Y0135927D01*
X0184698Y0136879D02*
X0181110Y0136879D01*
X0180310Y0092923D02*
X0183898Y0092923D01*
X0180310Y0092923D02*
X0180310Y0096511D01*
X0183898Y0096511D01*
X0183898Y0092923D01*
X0183898Y0093875D02*
X0180310Y0093875D01*
X0180310Y0094827D02*
X0183898Y0094827D01*
X0183898Y0095779D02*
X0180310Y0095779D01*
X0178190Y0092923D02*
X0174602Y0092923D01*
X0174602Y0096511D01*
X0178190Y0096511D01*
X0178190Y0092923D01*
X0178190Y0093875D02*
X0174602Y0093875D01*
X0174602Y0094827D02*
X0178190Y0094827D01*
X0178190Y0095779D02*
X0174602Y0095779D01*
X0166367Y0093954D02*
X0166367Y0090366D01*
X0166367Y0093954D02*
X0169955Y0093954D01*
X0169955Y0090366D01*
X0166367Y0090366D01*
X0166367Y0091318D02*
X0169955Y0091318D01*
X0169955Y0092270D02*
X0166367Y0092270D01*
X0166367Y0093222D02*
X0169955Y0093222D01*
X0166367Y0088245D02*
X0166367Y0084657D01*
X0166367Y0088245D02*
X0169955Y0088245D01*
X0169955Y0084657D01*
X0166367Y0084657D01*
X0166367Y0085609D02*
X0169955Y0085609D01*
X0169955Y0086561D02*
X0166367Y0086561D01*
X0166367Y0087513D02*
X0169955Y0087513D01*
X0174886Y0064186D02*
X0178474Y0064186D01*
X0174886Y0064186D02*
X0174886Y0067774D01*
X0178474Y0067774D01*
X0178474Y0064186D01*
X0178474Y0065138D02*
X0174886Y0065138D01*
X0174886Y0066090D02*
X0178474Y0066090D01*
X0178474Y0067042D02*
X0174886Y0067042D01*
X0167030Y0066485D02*
X0167030Y0062897D01*
X0167030Y0066485D02*
X0170618Y0066485D01*
X0170618Y0062897D01*
X0167030Y0062897D01*
X0167030Y0063849D02*
X0170618Y0063849D01*
X0170618Y0064801D02*
X0167030Y0064801D01*
X0167030Y0065753D02*
X0170618Y0065753D01*
X0167030Y0060777D02*
X0167030Y0057189D01*
X0167030Y0060777D02*
X0170618Y0060777D01*
X0170618Y0057189D01*
X0167030Y0057189D01*
X0167030Y0058141D02*
X0170618Y0058141D01*
X0170618Y0059093D02*
X0167030Y0059093D01*
X0167030Y0060045D02*
X0170618Y0060045D01*
X0180595Y0064186D02*
X0184183Y0064186D01*
X0180595Y0064186D02*
X0180595Y0067774D01*
X0184183Y0067774D01*
X0184183Y0064186D01*
X0184183Y0065138D02*
X0180595Y0065138D01*
X0180595Y0066090D02*
X0184183Y0066090D01*
X0184183Y0067042D02*
X0180595Y0067042D01*
X0167562Y0036948D02*
X0167562Y0033360D01*
X0167562Y0036948D02*
X0171150Y0036948D01*
X0171150Y0033360D01*
X0167562Y0033360D01*
X0167562Y0034312D02*
X0171150Y0034312D01*
X0171150Y0035264D02*
X0167562Y0035264D01*
X0167562Y0036216D02*
X0171150Y0036216D01*
X0167562Y0031240D02*
X0167562Y0027652D01*
X0167562Y0031240D02*
X0171150Y0031240D01*
X0171150Y0027652D01*
X0167562Y0027652D01*
X0167562Y0028604D02*
X0171150Y0028604D01*
X0171150Y0029556D02*
X0167562Y0029556D01*
X0167562Y0030508D02*
X0171150Y0030508D01*
X0175630Y0030059D02*
X0175630Y0026471D01*
X0175630Y0030059D02*
X0179218Y0030059D01*
X0179218Y0026471D01*
X0175630Y0026471D01*
X0175630Y0027423D02*
X0179218Y0027423D01*
X0179218Y0028375D02*
X0175630Y0028375D01*
X0175630Y0029327D02*
X0179218Y0029327D01*
X0175630Y0024351D02*
X0175630Y0020763D01*
X0175630Y0024351D02*
X0179218Y0024351D01*
X0179218Y0020763D01*
X0175630Y0020763D01*
X0175630Y0021715D02*
X0179218Y0021715D01*
X0179218Y0022667D02*
X0175630Y0022667D01*
X0175630Y0023619D02*
X0179218Y0023619D01*
X0063096Y0073026D02*
X0063096Y0076614D01*
X0063096Y0073026D02*
X0059508Y0073026D01*
X0059508Y0076614D01*
X0063096Y0076614D01*
X0063096Y0073978D02*
X0059508Y0073978D01*
X0059508Y0074930D02*
X0063096Y0074930D01*
X0063096Y0075882D02*
X0059508Y0075882D01*
X0063096Y0078734D02*
X0063096Y0082322D01*
X0063096Y0078734D02*
X0059508Y0078734D01*
X0059508Y0082322D01*
X0063096Y0082322D01*
X0063096Y0079686D02*
X0059508Y0079686D01*
X0059508Y0080638D02*
X0063096Y0080638D01*
X0063096Y0081590D02*
X0059508Y0081590D01*
D13*
X0075787Y0060931D02*
X0075787Y0053943D01*
X0075787Y0060931D02*
X0082381Y0060931D01*
X0082381Y0053943D01*
X0075787Y0053943D01*
X0075787Y0054841D02*
X0082381Y0054841D01*
X0082381Y0055739D02*
X0075787Y0055739D01*
X0075787Y0056637D02*
X0082381Y0056637D01*
X0082381Y0057535D02*
X0075787Y0057535D01*
X0075787Y0058433D02*
X0082381Y0058433D01*
X0082381Y0059331D02*
X0075787Y0059331D01*
X0075787Y0060229D02*
X0082381Y0060229D01*
X0075787Y0044789D02*
X0075787Y0037801D01*
X0075787Y0044789D02*
X0082381Y0044789D01*
X0082381Y0037801D01*
X0075787Y0037801D01*
X0075787Y0038699D02*
X0082381Y0038699D01*
X0082381Y0039597D02*
X0075787Y0039597D01*
X0075787Y0040495D02*
X0082381Y0040495D01*
X0082381Y0041393D02*
X0075787Y0041393D01*
X0075787Y0042291D02*
X0082381Y0042291D01*
X0082381Y0043189D02*
X0075787Y0043189D01*
X0075787Y0044087D02*
X0082381Y0044087D01*
X0226736Y0200441D02*
X0226736Y0207429D01*
X0226736Y0200441D02*
X0220142Y0200441D01*
X0220142Y0207429D01*
X0226736Y0207429D01*
X0226736Y0201339D02*
X0220142Y0201339D01*
X0220142Y0202237D02*
X0226736Y0202237D01*
X0226736Y0203135D02*
X0220142Y0203135D01*
X0220142Y0204033D02*
X0226736Y0204033D01*
X0226736Y0204931D02*
X0220142Y0204931D01*
X0220142Y0205829D02*
X0226736Y0205829D01*
X0226736Y0206727D02*
X0220142Y0206727D01*
X0226736Y0216582D02*
X0226736Y0223570D01*
X0226736Y0216582D02*
X0220142Y0216582D01*
X0220142Y0223570D01*
X0226736Y0223570D01*
X0226736Y0217480D02*
X0220142Y0217480D01*
X0220142Y0218378D02*
X0226736Y0218378D01*
X0226736Y0219276D02*
X0220142Y0219276D01*
X0220142Y0220174D02*
X0226736Y0220174D01*
X0226736Y0221072D02*
X0220142Y0221072D01*
X0220142Y0221970D02*
X0226736Y0221970D01*
X0226736Y0222868D02*
X0220142Y0222868D01*
D14*
X0295557Y0213598D03*
X0067211Y0213598D03*
X0016030Y0213598D03*
X0067211Y0020685D03*
X0295557Y0020685D03*
D15*
X0275105Y0193919D02*
X0275105Y0198505D01*
X0275105Y0193919D02*
X0269259Y0193919D01*
X0269259Y0198505D01*
X0275105Y0198505D01*
X0275105Y0194857D02*
X0269259Y0194857D01*
X0269259Y0195795D02*
X0275105Y0195795D01*
X0275105Y0196733D02*
X0269259Y0196733D01*
X0269259Y0197671D02*
X0275105Y0197671D01*
X0275105Y0214431D02*
X0275105Y0219017D01*
X0275105Y0214431D02*
X0269259Y0214431D01*
X0269259Y0219017D01*
X0275105Y0219017D01*
X0275105Y0215369D02*
X0269259Y0215369D01*
X0269259Y0216307D02*
X0275105Y0216307D01*
X0275105Y0217245D02*
X0269259Y0217245D01*
X0269259Y0218183D02*
X0275105Y0218183D01*
X0234849Y0219017D02*
X0234849Y0214431D01*
X0234849Y0219017D02*
X0240695Y0219017D01*
X0240695Y0214431D01*
X0234849Y0214431D01*
X0234849Y0215369D02*
X0240695Y0215369D01*
X0240695Y0216307D02*
X0234849Y0216307D01*
X0234849Y0217245D02*
X0240695Y0217245D01*
X0240695Y0218183D02*
X0234849Y0218183D01*
X0234849Y0198505D02*
X0234849Y0193919D01*
X0234849Y0198505D02*
X0240695Y0198505D01*
X0240695Y0193919D01*
X0234849Y0193919D01*
X0234849Y0194857D02*
X0240695Y0194857D01*
X0240695Y0195795D02*
X0234849Y0195795D01*
X0234849Y0196733D02*
X0240695Y0196733D01*
X0240695Y0197671D02*
X0234849Y0197671D01*
D16*
X0216050Y0191406D03*
X0206050Y0191406D03*
X0196050Y0191406D03*
X0176050Y0191406D03*
X0176050Y0171406D03*
X0196050Y0171406D03*
X0206050Y0171406D03*
X0216050Y0171406D03*
X0223850Y0160006D03*
X0233850Y0160006D03*
X0243850Y0160006D03*
X0243850Y0140006D03*
X0233850Y0140006D03*
X0223850Y0140006D03*
X0223850Y0128506D03*
X0233850Y0128506D03*
X0243850Y0128506D03*
X0243850Y0108506D03*
X0233850Y0108506D03*
X0223850Y0108506D03*
X0223850Y0097206D03*
X0233850Y0097206D03*
X0243850Y0097206D03*
X0243850Y0077206D03*
X0233850Y0077206D03*
X0223850Y0077206D03*
X0223850Y0065806D03*
X0233850Y0065806D03*
X0243850Y0065806D03*
X0243850Y0045806D03*
X0233850Y0045806D03*
X0223850Y0045806D03*
X0217150Y0034506D03*
X0203850Y0045806D03*
X0203850Y0065806D03*
X0203850Y0077206D03*
X0203850Y0097206D03*
X0203850Y0108506D03*
X0203850Y0128506D03*
X0203850Y0140006D03*
X0203850Y0160006D03*
X0237150Y0034506D03*
X0247150Y0034506D03*
X0257150Y0034506D03*
X0257150Y0014506D03*
X0247150Y0014506D03*
X0237150Y0014506D03*
X0217150Y0014506D03*
D17*
X0193676Y0028939D02*
X0193676Y0032283D01*
X0197414Y0032283D01*
X0197414Y0028939D01*
X0193676Y0028939D01*
X0193676Y0029937D02*
X0197414Y0029937D01*
X0197414Y0030935D02*
X0193676Y0030935D01*
X0193676Y0031933D02*
X0197414Y0031933D01*
X0185802Y0032679D02*
X0185802Y0036023D01*
X0189540Y0036023D01*
X0189540Y0032679D01*
X0185802Y0032679D01*
X0185802Y0033677D02*
X0189540Y0033677D01*
X0189540Y0034675D02*
X0185802Y0034675D01*
X0185802Y0035673D02*
X0189540Y0035673D01*
X0185802Y0028543D02*
X0185802Y0025199D01*
X0185802Y0028543D02*
X0189540Y0028543D01*
X0189540Y0025199D01*
X0185802Y0025199D01*
X0185802Y0026197D02*
X0189540Y0026197D01*
X0189540Y0027195D02*
X0185802Y0027195D01*
X0185802Y0028193D02*
X0189540Y0028193D01*
X0184862Y0047700D02*
X0181518Y0047700D01*
X0181518Y0051438D01*
X0184862Y0051438D01*
X0184862Y0047700D01*
X0184862Y0048698D02*
X0181518Y0048698D01*
X0181518Y0049696D02*
X0184862Y0049696D01*
X0184862Y0050694D02*
X0181518Y0050694D01*
X0177382Y0047700D02*
X0174038Y0047700D01*
X0174038Y0051438D01*
X0177382Y0051438D01*
X0177382Y0047700D01*
X0177382Y0048698D02*
X0174038Y0048698D01*
X0174038Y0049696D02*
X0177382Y0049696D01*
X0177382Y0050694D02*
X0174038Y0050694D01*
X0177778Y0055574D02*
X0181122Y0055574D01*
X0177778Y0055574D02*
X0177778Y0059312D01*
X0181122Y0059312D01*
X0181122Y0055574D01*
X0181122Y0056572D02*
X0177778Y0056572D01*
X0177778Y0057570D02*
X0181122Y0057570D01*
X0181122Y0058568D02*
X0177778Y0058568D01*
X0177182Y0076900D02*
X0173838Y0076900D01*
X0173838Y0080638D01*
X0177182Y0080638D01*
X0177182Y0076900D01*
X0177182Y0077898D02*
X0173838Y0077898D01*
X0173838Y0078896D02*
X0177182Y0078896D01*
X0177182Y0079894D02*
X0173838Y0079894D01*
X0177578Y0084774D02*
X0180922Y0084774D01*
X0177578Y0084774D02*
X0177578Y0088512D01*
X0180922Y0088512D01*
X0180922Y0084774D01*
X0180922Y0085772D02*
X0177578Y0085772D01*
X0177578Y0086770D02*
X0180922Y0086770D01*
X0180922Y0087768D02*
X0177578Y0087768D01*
X0181318Y0076900D02*
X0184662Y0076900D01*
X0181318Y0076900D02*
X0181318Y0080638D01*
X0184662Y0080638D01*
X0184662Y0076900D01*
X0184662Y0077898D02*
X0181318Y0077898D01*
X0181318Y0078896D02*
X0184662Y0078896D01*
X0184662Y0079894D02*
X0181318Y0079894D01*
X0181618Y0117111D02*
X0184962Y0117111D01*
X0181618Y0117111D02*
X0181618Y0120849D01*
X0184962Y0120849D01*
X0184962Y0117111D01*
X0184962Y0118109D02*
X0181618Y0118109D01*
X0181618Y0119107D02*
X0184962Y0119107D01*
X0184962Y0120105D02*
X0181618Y0120105D01*
X0177482Y0117111D02*
X0174138Y0117111D01*
X0174138Y0120849D01*
X0177482Y0120849D01*
X0177482Y0117111D01*
X0177482Y0118109D02*
X0174138Y0118109D01*
X0174138Y0119107D02*
X0177482Y0119107D01*
X0177482Y0120105D02*
X0174138Y0120105D01*
X0177878Y0124985D02*
X0181222Y0124985D01*
X0177878Y0124985D02*
X0177878Y0128723D01*
X0181222Y0128723D01*
X0181222Y0124985D01*
X0181222Y0125983D02*
X0177878Y0125983D01*
X0177878Y0126981D02*
X0181222Y0126981D01*
X0181222Y0127979D02*
X0177878Y0127979D01*
X0177382Y0141811D02*
X0174038Y0141811D01*
X0174038Y0145549D01*
X0177382Y0145549D01*
X0177382Y0141811D01*
X0177382Y0142809D02*
X0174038Y0142809D01*
X0174038Y0143807D02*
X0177382Y0143807D01*
X0177382Y0144805D02*
X0174038Y0144805D01*
X0177778Y0149685D02*
X0181122Y0149685D01*
X0177778Y0149685D02*
X0177778Y0153423D01*
X0181122Y0153423D01*
X0181122Y0149685D01*
X0181122Y0150683D02*
X0177778Y0150683D01*
X0177778Y0151681D02*
X0181122Y0151681D01*
X0181122Y0152679D02*
X0177778Y0152679D01*
X0181518Y0141811D02*
X0184862Y0141811D01*
X0181518Y0141811D02*
X0181518Y0145549D01*
X0184862Y0145549D01*
X0184862Y0141811D01*
X0184862Y0142809D02*
X0181518Y0142809D01*
X0181518Y0143807D02*
X0184862Y0143807D01*
X0184862Y0144805D02*
X0181518Y0144805D01*
X0159262Y0176111D02*
X0155918Y0176111D01*
X0155918Y0179849D01*
X0159262Y0179849D01*
X0159262Y0176111D01*
X0159262Y0177109D02*
X0155918Y0177109D01*
X0155918Y0178107D02*
X0159262Y0178107D01*
X0159262Y0179105D02*
X0155918Y0179105D01*
X0151782Y0176111D02*
X0148438Y0176111D01*
X0148438Y0179849D01*
X0151782Y0179849D01*
X0151782Y0176111D01*
X0151782Y0177109D02*
X0148438Y0177109D01*
X0148438Y0178107D02*
X0151782Y0178107D01*
X0151782Y0179105D02*
X0148438Y0179105D01*
X0152178Y0183985D02*
X0155522Y0183985D01*
X0152178Y0183985D02*
X0152178Y0187723D01*
X0155522Y0187723D01*
X0155522Y0183985D01*
X0155522Y0184983D02*
X0152178Y0184983D01*
X0152178Y0185981D02*
X0155522Y0185981D01*
X0155522Y0186979D02*
X0152178Y0186979D01*
D18*
X0168420Y0185615D02*
X0168420Y0190981D01*
X0168420Y0185615D02*
X0161480Y0185615D01*
X0161480Y0190981D01*
X0168420Y0190981D01*
X0168420Y0186561D02*
X0161480Y0186561D01*
X0161480Y0187507D02*
X0168420Y0187507D01*
X0168420Y0188453D02*
X0161480Y0188453D01*
X0161480Y0189399D02*
X0168420Y0189399D01*
X0168420Y0190345D02*
X0161480Y0190345D01*
X0168420Y0177596D02*
X0168420Y0172230D01*
X0161480Y0172230D01*
X0161480Y0177596D01*
X0168420Y0177596D01*
X0168420Y0173176D02*
X0161480Y0173176D01*
X0161480Y0174122D02*
X0168420Y0174122D01*
X0168420Y0175068D02*
X0161480Y0175068D01*
X0161480Y0176014D02*
X0168420Y0176014D01*
X0168420Y0176960D02*
X0161480Y0176960D01*
X0195720Y0158281D02*
X0195720Y0152915D01*
X0188780Y0152915D01*
X0188780Y0158281D01*
X0195720Y0158281D01*
X0195720Y0153861D02*
X0188780Y0153861D01*
X0188780Y0154807D02*
X0195720Y0154807D01*
X0195720Y0155753D02*
X0188780Y0155753D01*
X0188780Y0156699D02*
X0195720Y0156699D01*
X0195720Y0157645D02*
X0188780Y0157645D01*
X0195720Y0144896D02*
X0195720Y0139530D01*
X0188780Y0139530D01*
X0188780Y0144896D01*
X0195720Y0144896D01*
X0195720Y0140476D02*
X0188780Y0140476D01*
X0188780Y0141422D02*
X0195720Y0141422D01*
X0195720Y0142368D02*
X0188780Y0142368D01*
X0188780Y0143314D02*
X0195720Y0143314D01*
X0195720Y0144260D02*
X0188780Y0144260D01*
X0195520Y0135081D02*
X0195520Y0129715D01*
X0188580Y0129715D01*
X0188580Y0135081D01*
X0195520Y0135081D01*
X0195520Y0130661D02*
X0188580Y0130661D01*
X0188580Y0131607D02*
X0195520Y0131607D01*
X0195520Y0132553D02*
X0188580Y0132553D01*
X0188580Y0133499D02*
X0195520Y0133499D01*
X0195520Y0134445D02*
X0188580Y0134445D01*
X0195520Y0121696D02*
X0195520Y0116330D01*
X0188580Y0116330D01*
X0188580Y0121696D01*
X0195520Y0121696D01*
X0195520Y0117276D02*
X0188580Y0117276D01*
X0188580Y0118222D02*
X0195520Y0118222D01*
X0195520Y0119168D02*
X0188580Y0119168D01*
X0188580Y0120114D02*
X0195520Y0120114D01*
X0195520Y0121060D02*
X0188580Y0121060D01*
X0195520Y0094281D02*
X0195520Y0088915D01*
X0188580Y0088915D01*
X0188580Y0094281D01*
X0195520Y0094281D01*
X0195520Y0089861D02*
X0188580Y0089861D01*
X0188580Y0090807D02*
X0195520Y0090807D01*
X0195520Y0091753D02*
X0188580Y0091753D01*
X0188580Y0092699D02*
X0195520Y0092699D01*
X0195520Y0093645D02*
X0188580Y0093645D01*
X0195520Y0080896D02*
X0195520Y0075530D01*
X0188580Y0075530D01*
X0188580Y0080896D01*
X0195520Y0080896D01*
X0195520Y0076476D02*
X0188580Y0076476D01*
X0188580Y0077422D02*
X0195520Y0077422D01*
X0195520Y0078368D02*
X0188580Y0078368D01*
X0188580Y0079314D02*
X0195520Y0079314D01*
X0195520Y0080260D02*
X0188580Y0080260D01*
X0195720Y0065681D02*
X0195720Y0060315D01*
X0188780Y0060315D01*
X0188780Y0065681D01*
X0195720Y0065681D01*
X0195720Y0061261D02*
X0188780Y0061261D01*
X0188780Y0062207D02*
X0195720Y0062207D01*
X0195720Y0063153D02*
X0188780Y0063153D01*
X0188780Y0064099D02*
X0195720Y0064099D01*
X0195720Y0065045D02*
X0188780Y0065045D01*
X0195720Y0052296D02*
X0195720Y0046930D01*
X0188780Y0046930D01*
X0188780Y0052296D01*
X0195720Y0052296D01*
X0195720Y0047876D02*
X0188780Y0047876D01*
X0188780Y0048822D02*
X0195720Y0048822D01*
X0195720Y0049768D02*
X0188780Y0049768D01*
X0188780Y0050714D02*
X0195720Y0050714D01*
X0195720Y0051660D02*
X0188780Y0051660D01*
X0209020Y0034481D02*
X0209020Y0029115D01*
X0202080Y0029115D01*
X0202080Y0034481D01*
X0209020Y0034481D01*
X0209020Y0030061D02*
X0202080Y0030061D01*
X0202080Y0031007D02*
X0209020Y0031007D01*
X0209020Y0031953D02*
X0202080Y0031953D01*
X0202080Y0032899D02*
X0209020Y0032899D01*
X0209020Y0033845D02*
X0202080Y0033845D01*
X0209020Y0021096D02*
X0209020Y0015730D01*
X0202080Y0015730D01*
X0202080Y0021096D01*
X0209020Y0021096D01*
X0209020Y0016676D02*
X0202080Y0016676D01*
X0202080Y0017622D02*
X0209020Y0017622D01*
X0209020Y0018568D02*
X0202080Y0018568D01*
X0202080Y0019514D02*
X0209020Y0019514D01*
X0209020Y0020460D02*
X0202080Y0020460D01*
D19*
X0269483Y0054298D03*
X0289168Y0068077D03*
X0269483Y0081857D03*
X0289168Y0095636D03*
X0269483Y0109416D03*
X0289168Y0123195D03*
X0269483Y0136975D03*
X0289168Y0150754D03*
X0269483Y0164534D03*
X0289168Y0178313D03*
D20*
X0192298Y0108800D02*
X0188092Y0108800D01*
X0192298Y0108800D02*
X0192298Y0103412D01*
X0188092Y0103412D01*
X0188092Y0108800D01*
X0188092Y0104335D02*
X0192298Y0104335D01*
X0192298Y0105258D02*
X0188092Y0105258D01*
X0188092Y0106181D02*
X0192298Y0106181D01*
X0192298Y0107104D02*
X0188092Y0107104D01*
X0188092Y0108027D02*
X0192298Y0108027D01*
X0185408Y0108800D02*
X0181202Y0108800D01*
X0185408Y0108800D02*
X0185408Y0103412D01*
X0181202Y0103412D01*
X0181202Y0108800D01*
X0181202Y0104335D02*
X0185408Y0104335D01*
X0185408Y0105258D02*
X0181202Y0105258D01*
X0181202Y0106181D02*
X0185408Y0106181D01*
X0185408Y0107104D02*
X0181202Y0107104D01*
X0181202Y0108027D02*
X0185408Y0108027D01*
X0165898Y0141312D02*
X0161692Y0141312D01*
X0161692Y0146700D01*
X0165898Y0146700D01*
X0165898Y0141312D01*
X0165898Y0142235D02*
X0161692Y0142235D01*
X0161692Y0143158D02*
X0165898Y0143158D01*
X0165898Y0144081D02*
X0161692Y0144081D01*
X0161692Y0145004D02*
X0165898Y0145004D01*
X0165898Y0145927D02*
X0161692Y0145927D01*
X0159008Y0141312D02*
X0154802Y0141312D01*
X0154802Y0146700D01*
X0159008Y0146700D01*
X0159008Y0141312D01*
X0159008Y0142235D02*
X0154802Y0142235D01*
X0154802Y0143158D02*
X0159008Y0143158D01*
X0159008Y0144081D02*
X0154802Y0144081D01*
X0154802Y0145004D02*
X0159008Y0145004D01*
X0159008Y0145927D02*
X0154802Y0145927D01*
X0112070Y0101238D02*
X0112070Y0097032D01*
X0106682Y0097032D01*
X0106682Y0101238D01*
X0112070Y0101238D01*
X0112070Y0097955D02*
X0106682Y0097955D01*
X0106682Y0098878D02*
X0112070Y0098878D01*
X0112070Y0099801D02*
X0106682Y0099801D01*
X0106682Y0100724D02*
X0112070Y0100724D01*
X0112070Y0094348D02*
X0112070Y0090142D01*
X0106682Y0090142D01*
X0106682Y0094348D01*
X0112070Y0094348D01*
X0112070Y0091065D02*
X0106682Y0091065D01*
X0106682Y0091988D02*
X0112070Y0091988D01*
X0112070Y0092911D02*
X0106682Y0092911D01*
X0106682Y0093834D02*
X0112070Y0093834D01*
X0099044Y0083117D02*
X0099044Y0078911D01*
X0093656Y0078911D01*
X0093656Y0083117D01*
X0099044Y0083117D01*
X0099044Y0079834D02*
X0093656Y0079834D01*
X0093656Y0080757D02*
X0099044Y0080757D01*
X0099044Y0081680D02*
X0093656Y0081680D01*
X0093656Y0082603D02*
X0099044Y0082603D01*
X0099044Y0076227D02*
X0099044Y0072021D01*
X0093656Y0072021D01*
X0093656Y0076227D01*
X0099044Y0076227D01*
X0099044Y0072944D02*
X0093656Y0072944D01*
X0093656Y0073867D02*
X0099044Y0073867D01*
X0099044Y0074790D02*
X0093656Y0074790D01*
X0093656Y0075713D02*
X0099044Y0075713D01*
X0058604Y0087989D02*
X0058604Y0092195D01*
X0063992Y0092195D01*
X0063992Y0087989D01*
X0058604Y0087989D01*
X0058604Y0088912D02*
X0063992Y0088912D01*
X0063992Y0089835D02*
X0058604Y0089835D01*
X0058604Y0090758D02*
X0063992Y0090758D01*
X0063992Y0091681D02*
X0058604Y0091681D01*
X0058604Y0094879D02*
X0058604Y0099085D01*
X0063992Y0099085D01*
X0063992Y0094879D01*
X0058604Y0094879D01*
X0058604Y0095802D02*
X0063992Y0095802D01*
X0063992Y0096725D02*
X0058604Y0096725D01*
X0058604Y0097648D02*
X0063992Y0097648D01*
X0063992Y0098571D02*
X0058604Y0098571D01*
X0064028Y0103521D02*
X0064028Y0107727D01*
X0064028Y0103521D02*
X0058640Y0103521D01*
X0058640Y0107727D01*
X0064028Y0107727D01*
X0064028Y0104444D02*
X0058640Y0104444D01*
X0058640Y0105367D02*
X0064028Y0105367D01*
X0064028Y0106290D02*
X0058640Y0106290D01*
X0058640Y0107213D02*
X0064028Y0107213D01*
X0064028Y0110411D02*
X0064028Y0114617D01*
X0064028Y0110411D02*
X0058640Y0110411D01*
X0058640Y0114617D01*
X0064028Y0114617D01*
X0064028Y0111334D02*
X0058640Y0111334D01*
X0058640Y0112257D02*
X0064028Y0112257D01*
X0064028Y0113180D02*
X0058640Y0113180D01*
X0058640Y0114103D02*
X0064028Y0114103D01*
X0078056Y0125347D02*
X0078056Y0129553D01*
X0083444Y0129553D01*
X0083444Y0125347D01*
X0078056Y0125347D01*
X0078056Y0126270D02*
X0083444Y0126270D01*
X0083444Y0127193D02*
X0078056Y0127193D01*
X0078056Y0128116D02*
X0083444Y0128116D01*
X0083444Y0129039D02*
X0078056Y0129039D01*
X0078056Y0132236D02*
X0078056Y0136442D01*
X0083444Y0136442D01*
X0083444Y0132236D01*
X0078056Y0132236D01*
X0078056Y0133159D02*
X0083444Y0133159D01*
X0083444Y0134082D02*
X0078056Y0134082D01*
X0078056Y0135005D02*
X0083444Y0135005D01*
X0083444Y0135928D02*
X0078056Y0135928D01*
X0063245Y0136058D02*
X0063245Y0140264D01*
X0068633Y0140264D01*
X0068633Y0136058D01*
X0063245Y0136058D01*
X0063245Y0136981D02*
X0068633Y0136981D01*
X0068633Y0137904D02*
X0063245Y0137904D01*
X0063245Y0138827D02*
X0068633Y0138827D01*
X0068633Y0139750D02*
X0063245Y0139750D01*
X0063245Y0142947D02*
X0063245Y0147153D01*
X0068633Y0147153D01*
X0068633Y0142947D01*
X0063245Y0142947D01*
X0063245Y0143870D02*
X0068633Y0143870D01*
X0068633Y0144793D02*
X0063245Y0144793D01*
X0063245Y0145716D02*
X0068633Y0145716D01*
X0068633Y0146639D02*
X0063245Y0146639D01*
X0023830Y0035217D02*
X0019624Y0035217D01*
X0019624Y0040605D01*
X0023830Y0040605D01*
X0023830Y0035217D01*
X0023830Y0036140D02*
X0019624Y0036140D01*
X0019624Y0037063D02*
X0023830Y0037063D01*
X0023830Y0037986D02*
X0019624Y0037986D01*
X0019624Y0038909D02*
X0023830Y0038909D01*
X0023830Y0039832D02*
X0019624Y0039832D01*
X0016940Y0035217D02*
X0012734Y0035217D01*
X0012734Y0040605D01*
X0016940Y0040605D01*
X0016940Y0035217D01*
X0016940Y0036140D02*
X0012734Y0036140D01*
X0012734Y0037063D02*
X0016940Y0037063D01*
X0016940Y0037986D02*
X0012734Y0037986D01*
X0012734Y0038909D02*
X0016940Y0038909D01*
X0016940Y0039832D02*
X0012734Y0039832D01*
X0185560Y0019537D02*
X0189766Y0019537D01*
X0189766Y0014149D01*
X0185560Y0014149D01*
X0185560Y0019537D01*
X0185560Y0015072D02*
X0189766Y0015072D01*
X0189766Y0015995D02*
X0185560Y0015995D01*
X0185560Y0016918D02*
X0189766Y0016918D01*
X0189766Y0017841D02*
X0185560Y0017841D01*
X0185560Y0018764D02*
X0189766Y0018764D01*
X0192450Y0019537D02*
X0196656Y0019537D01*
X0196656Y0014149D01*
X0192450Y0014149D01*
X0192450Y0019537D01*
X0192450Y0015072D02*
X0196656Y0015072D01*
X0196656Y0015995D02*
X0192450Y0015995D01*
X0192450Y0016918D02*
X0196656Y0016918D01*
X0196656Y0017841D02*
X0192450Y0017841D01*
X0192450Y0018764D02*
X0196656Y0018764D01*
D21*
X0155564Y0123096D02*
X0148622Y0123096D01*
X0155564Y0123096D02*
X0155564Y0114654D01*
X0148622Y0114654D01*
X0148622Y0123096D01*
X0148622Y0115511D02*
X0155564Y0115511D01*
X0155564Y0116368D02*
X0148622Y0116368D01*
X0148622Y0117225D02*
X0155564Y0117225D01*
X0155564Y0118082D02*
X0148622Y0118082D01*
X0148622Y0118939D02*
X0155564Y0118939D01*
X0155564Y0119796D02*
X0148622Y0119796D01*
X0148622Y0120653D02*
X0155564Y0120653D01*
X0155564Y0121510D02*
X0148622Y0121510D01*
X0148622Y0122367D02*
X0155564Y0122367D01*
X0139564Y0123096D02*
X0132622Y0123096D01*
X0139564Y0123096D02*
X0139564Y0114654D01*
X0132622Y0114654D01*
X0132622Y0123096D01*
X0132622Y0115511D02*
X0139564Y0115511D01*
X0139564Y0116368D02*
X0132622Y0116368D01*
X0132622Y0117225D02*
X0139564Y0117225D01*
X0139564Y0118082D02*
X0132622Y0118082D01*
X0132622Y0118939D02*
X0139564Y0118939D01*
X0139564Y0119796D02*
X0132622Y0119796D01*
X0132622Y0120653D02*
X0139564Y0120653D01*
X0139564Y0121510D02*
X0132622Y0121510D01*
X0132622Y0122367D02*
X0139564Y0122367D01*
D22*
X0148227Y0051533D02*
X0148227Y0040878D01*
X0096495Y0040878D02*
X0096495Y0051533D01*
D23*
X0108581Y0054275D02*
X0108581Y0059475D01*
X0118424Y0059475D02*
X0118424Y0054275D01*
X0126298Y0054275D02*
X0126298Y0059475D01*
X0136141Y0059475D02*
X0136141Y0054275D01*
D24*
X0086384Y0208598D03*
D25*
X0096384Y0208598D03*
X0106384Y0208598D03*
X0116384Y0208598D03*
X0126384Y0208598D03*
X0136384Y0208598D03*
X0146384Y0208598D03*
X0156384Y0208598D03*
X0166384Y0208598D03*
X0176384Y0208598D03*
X0186384Y0208598D03*
X0196384Y0208598D03*
X0206384Y0208598D03*
X0206384Y0218598D03*
X0196384Y0218598D03*
X0186384Y0218598D03*
X0176384Y0218598D03*
X0166384Y0218598D03*
X0156384Y0218598D03*
X0146384Y0218598D03*
X0136384Y0218598D03*
X0126384Y0218598D03*
X0116384Y0218598D03*
X0106384Y0218598D03*
X0096384Y0218598D03*
X0086384Y0218598D03*
D26*
X0092534Y0175379D02*
X0092534Y0173033D01*
X0084788Y0173033D01*
X0084788Y0175379D01*
X0092534Y0175379D01*
X0092534Y0174086D02*
X0084788Y0174086D01*
X0084788Y0175139D02*
X0092534Y0175139D01*
X0092534Y0170379D02*
X0092534Y0168033D01*
X0084788Y0168033D01*
X0084788Y0170379D01*
X0092534Y0170379D01*
X0092534Y0169086D02*
X0084788Y0169086D01*
X0084788Y0170139D02*
X0092534Y0170139D01*
X0092534Y0165379D02*
X0092534Y0163033D01*
X0084788Y0163033D01*
X0084788Y0165379D01*
X0092534Y0165379D01*
X0092534Y0164086D02*
X0084788Y0164086D01*
X0084788Y0165139D02*
X0092534Y0165139D01*
X0092534Y0160379D02*
X0092534Y0158033D01*
X0084788Y0158033D01*
X0084788Y0160379D01*
X0092534Y0160379D01*
X0092534Y0159086D02*
X0084788Y0159086D01*
X0084788Y0160139D02*
X0092534Y0160139D01*
X0116734Y0160379D02*
X0116734Y0158033D01*
X0108988Y0158033D01*
X0108988Y0160379D01*
X0116734Y0160379D01*
X0116734Y0159086D02*
X0108988Y0159086D01*
X0108988Y0160139D02*
X0116734Y0160139D01*
X0116734Y0163033D02*
X0116734Y0165379D01*
X0116734Y0163033D02*
X0108988Y0163033D01*
X0108988Y0165379D01*
X0116734Y0165379D01*
X0116734Y0164086D02*
X0108988Y0164086D01*
X0108988Y0165139D02*
X0116734Y0165139D01*
X0116734Y0168033D02*
X0116734Y0170379D01*
X0116734Y0168033D02*
X0108988Y0168033D01*
X0108988Y0170379D01*
X0116734Y0170379D01*
X0116734Y0169086D02*
X0108988Y0169086D01*
X0108988Y0170139D02*
X0116734Y0170139D01*
X0116734Y0173033D02*
X0116734Y0175379D01*
X0116734Y0173033D02*
X0108988Y0173033D01*
X0108988Y0175379D01*
X0116734Y0175379D01*
X0116734Y0174086D02*
X0108988Y0174086D01*
X0108988Y0175139D02*
X0116734Y0175139D01*
X0093677Y0108179D02*
X0093677Y0105833D01*
X0093677Y0108179D02*
X0101423Y0108179D01*
X0101423Y0105833D01*
X0093677Y0105833D01*
X0093677Y0106886D02*
X0101423Y0106886D01*
X0101423Y0107939D02*
X0093677Y0107939D01*
X0093677Y0103179D02*
X0093677Y0100833D01*
X0093677Y0103179D02*
X0101423Y0103179D01*
X0101423Y0100833D01*
X0093677Y0100833D01*
X0093677Y0101886D02*
X0101423Y0101886D01*
X0101423Y0102939D02*
X0093677Y0102939D01*
X0093677Y0098179D02*
X0093677Y0095833D01*
X0093677Y0098179D02*
X0101423Y0098179D01*
X0101423Y0095833D01*
X0093677Y0095833D01*
X0093677Y0096886D02*
X0101423Y0096886D01*
X0101423Y0097939D02*
X0093677Y0097939D01*
X0093677Y0093179D02*
X0093677Y0090833D01*
X0093677Y0093179D02*
X0101423Y0093179D01*
X0101423Y0090833D01*
X0093677Y0090833D01*
X0093677Y0091886D02*
X0101423Y0091886D01*
X0101423Y0092939D02*
X0093677Y0092939D01*
X0069477Y0093179D02*
X0069477Y0090833D01*
X0069477Y0093179D02*
X0077223Y0093179D01*
X0077223Y0090833D01*
X0069477Y0090833D01*
X0069477Y0091886D02*
X0077223Y0091886D01*
X0077223Y0092939D02*
X0069477Y0092939D01*
X0069477Y0095833D02*
X0069477Y0098179D01*
X0077223Y0098179D01*
X0077223Y0095833D01*
X0069477Y0095833D01*
X0069477Y0096886D02*
X0077223Y0096886D01*
X0077223Y0097939D02*
X0069477Y0097939D01*
X0069477Y0100833D02*
X0069477Y0103179D01*
X0077223Y0103179D01*
X0077223Y0100833D01*
X0069477Y0100833D01*
X0069477Y0101886D02*
X0077223Y0101886D01*
X0077223Y0102939D02*
X0069477Y0102939D01*
X0069477Y0105833D02*
X0069477Y0108179D01*
X0077223Y0108179D01*
X0077223Y0105833D01*
X0069477Y0105833D01*
X0069477Y0106886D02*
X0077223Y0106886D01*
X0077223Y0107939D02*
X0069477Y0107939D01*
D27*
X0119691Y0151889D02*
X0126631Y0151889D01*
X0119691Y0151889D02*
X0119691Y0155679D01*
X0126631Y0155679D01*
X0126631Y0151889D01*
X0126631Y0152835D02*
X0119691Y0152835D01*
X0119691Y0153781D02*
X0126631Y0153781D01*
X0126631Y0154727D02*
X0119691Y0154727D01*
X0119691Y0155673D02*
X0126631Y0155673D01*
X0126631Y0161732D02*
X0119691Y0161732D01*
X0119691Y0165522D01*
X0126631Y0165522D01*
X0126631Y0161732D01*
X0126631Y0162678D02*
X0119691Y0162678D01*
X0119691Y0163624D02*
X0126631Y0163624D01*
X0126631Y0164570D02*
X0119691Y0164570D01*
X0119691Y0165516D02*
X0126631Y0165516D01*
D28*
X0118928Y0096064D02*
X0158572Y0096064D01*
X0118928Y0096064D02*
X0118928Y0109332D01*
X0158572Y0109332D01*
X0158572Y0096064D01*
X0158572Y0097375D02*
X0118928Y0097375D01*
X0118928Y0098686D02*
X0158572Y0098686D01*
X0158572Y0099997D02*
X0118928Y0099997D01*
X0118928Y0101308D02*
X0158572Y0101308D01*
X0158572Y0102619D02*
X0118928Y0102619D01*
X0118928Y0103930D02*
X0158572Y0103930D01*
X0158572Y0105241D02*
X0118928Y0105241D01*
X0118928Y0106552D02*
X0158572Y0106552D01*
X0158572Y0107863D02*
X0118928Y0107863D01*
X0118928Y0109174D02*
X0158572Y0109174D01*
X0158572Y0070079D02*
X0118928Y0070079D01*
X0118928Y0083347D01*
X0158572Y0083347D01*
X0158572Y0070079D01*
X0158572Y0071390D02*
X0118928Y0071390D01*
X0118928Y0072701D02*
X0158572Y0072701D01*
X0158572Y0074012D02*
X0118928Y0074012D01*
X0118928Y0075323D02*
X0158572Y0075323D01*
X0158572Y0076634D02*
X0118928Y0076634D01*
X0118928Y0077945D02*
X0158572Y0077945D01*
X0158572Y0079256D02*
X0118928Y0079256D01*
X0118928Y0080567D02*
X0158572Y0080567D01*
X0158572Y0081878D02*
X0118928Y0081878D01*
X0118928Y0083189D02*
X0158572Y0083189D01*
D29*
X0079953Y0093221D02*
X0079953Y0105791D01*
X0090947Y0105791D01*
X0090947Y0093221D01*
X0079953Y0093221D01*
X0079953Y0094442D02*
X0090947Y0094442D01*
X0090947Y0095663D02*
X0079953Y0095663D01*
X0079953Y0096884D02*
X0090947Y0096884D01*
X0090947Y0098105D02*
X0079953Y0098105D01*
X0079953Y0099326D02*
X0090947Y0099326D01*
X0090947Y0100547D02*
X0079953Y0100547D01*
X0079953Y0101768D02*
X0090947Y0101768D01*
X0090947Y0102989D02*
X0079953Y0102989D01*
X0079953Y0104210D02*
X0090947Y0104210D01*
X0090947Y0105431D02*
X0079953Y0105431D01*
D30*
X0090900Y0126017D02*
X0090900Y0135595D01*
X0106384Y0135595D01*
X0106384Y0126017D01*
X0090900Y0126017D01*
X0090900Y0127080D02*
X0106384Y0127080D01*
X0106384Y0128143D02*
X0090900Y0128143D01*
X0090900Y0129206D02*
X0106384Y0129206D01*
X0106384Y0130269D02*
X0090900Y0130269D01*
X0090900Y0131332D02*
X0106384Y0131332D01*
X0106384Y0132395D02*
X0090900Y0132395D01*
X0090900Y0133458D02*
X0106384Y0133458D01*
X0106384Y0134521D02*
X0090900Y0134521D01*
X0090900Y0135584D02*
X0106384Y0135584D01*
X0114916Y0135595D02*
X0114916Y0126017D01*
X0114916Y0135595D02*
X0130400Y0135595D01*
X0130400Y0126017D01*
X0114916Y0126017D01*
X0114916Y0127080D02*
X0130400Y0127080D01*
X0130400Y0128143D02*
X0114916Y0128143D01*
X0114916Y0129206D02*
X0130400Y0129206D01*
X0130400Y0130269D02*
X0114916Y0130269D01*
X0114916Y0131332D02*
X0130400Y0131332D01*
X0130400Y0132395D02*
X0114916Y0132395D01*
X0114916Y0133458D02*
X0130400Y0133458D01*
X0130400Y0134521D02*
X0114916Y0134521D01*
X0114916Y0135584D02*
X0130400Y0135584D01*
D31*
X0105362Y0084222D02*
X0105362Y0079416D01*
X0105362Y0084222D02*
X0112138Y0084222D01*
X0112138Y0079416D01*
X0105362Y0079416D01*
X0105362Y0080330D02*
X0112138Y0080330D01*
X0112138Y0081244D02*
X0105362Y0081244D01*
X0105362Y0082158D02*
X0112138Y0082158D01*
X0112138Y0083072D02*
X0105362Y0083072D01*
X0105362Y0083986D02*
X0112138Y0083986D01*
X0105362Y0073395D02*
X0105362Y0068589D01*
X0105362Y0073395D02*
X0112138Y0073395D01*
X0112138Y0068589D01*
X0105362Y0068589D01*
X0105362Y0069503D02*
X0112138Y0069503D01*
X0112138Y0070417D02*
X0105362Y0070417D01*
X0105362Y0071331D02*
X0112138Y0071331D01*
X0112138Y0072245D02*
X0105362Y0072245D01*
X0105362Y0073159D02*
X0112138Y0073159D01*
X0236062Y0169789D02*
X0236062Y0174595D01*
X0242838Y0174595D01*
X0242838Y0169789D01*
X0236062Y0169789D01*
X0236062Y0170703D02*
X0242838Y0170703D01*
X0242838Y0171617D02*
X0236062Y0171617D01*
X0236062Y0172531D02*
X0242838Y0172531D01*
X0242838Y0173445D02*
X0236062Y0173445D01*
X0236062Y0174359D02*
X0242838Y0174359D01*
X0247962Y0174595D02*
X0247962Y0169789D01*
X0247962Y0174595D02*
X0254738Y0174595D01*
X0254738Y0169789D01*
X0247962Y0169789D01*
X0247962Y0170703D02*
X0254738Y0170703D01*
X0254738Y0171617D02*
X0247962Y0171617D01*
X0247962Y0172531D02*
X0254738Y0172531D01*
X0254738Y0173445D02*
X0247962Y0173445D01*
X0247962Y0174359D02*
X0254738Y0174359D01*
X0247962Y0180616D02*
X0247962Y0185422D01*
X0254738Y0185422D01*
X0254738Y0180616D01*
X0247962Y0180616D01*
X0247962Y0181530D02*
X0254738Y0181530D01*
X0254738Y0182444D02*
X0247962Y0182444D01*
X0247962Y0183358D02*
X0254738Y0183358D01*
X0254738Y0184272D02*
X0247962Y0184272D01*
X0247962Y0185186D02*
X0254738Y0185186D01*
X0236062Y0185422D02*
X0236062Y0180616D01*
X0236062Y0185422D02*
X0242838Y0185422D01*
X0242838Y0180616D01*
X0236062Y0180616D01*
X0236062Y0181530D02*
X0242838Y0181530D01*
X0242838Y0182444D02*
X0236062Y0182444D01*
X0236062Y0183358D02*
X0242838Y0183358D01*
X0242838Y0184272D02*
X0236062Y0184272D01*
X0236062Y0185186D02*
X0242838Y0185186D01*
X0285534Y0190218D02*
X0290340Y0190218D01*
X0285534Y0190218D02*
X0285534Y0196994D01*
X0290340Y0196994D01*
X0290340Y0190218D01*
X0290340Y0191132D02*
X0285534Y0191132D01*
X0285534Y0192046D02*
X0290340Y0192046D01*
X0290340Y0192960D02*
X0285534Y0192960D01*
X0285534Y0193874D02*
X0290340Y0193874D01*
X0290340Y0194788D02*
X0285534Y0194788D01*
X0285534Y0195702D02*
X0290340Y0195702D01*
X0290340Y0196616D02*
X0285534Y0196616D01*
X0296360Y0190218D02*
X0301166Y0190218D01*
X0296360Y0190218D02*
X0296360Y0196994D01*
X0301166Y0196994D01*
X0301166Y0190218D01*
X0301166Y0191132D02*
X0296360Y0191132D01*
X0296360Y0192046D02*
X0301166Y0192046D01*
X0301166Y0192960D02*
X0296360Y0192960D01*
X0296360Y0193874D02*
X0301166Y0193874D01*
X0301166Y0194788D02*
X0296360Y0194788D01*
X0296360Y0195702D02*
X0301166Y0195702D01*
X0301166Y0196616D02*
X0296360Y0196616D01*
D32*
X0013784Y0016472D02*
X0010794Y0016472D01*
X0013784Y0016472D02*
X0013784Y0015056D01*
X0010794Y0015056D01*
X0010794Y0016472D01*
X0010794Y0016212D02*
X0013784Y0016212D01*
X0013784Y0020409D02*
X0010794Y0020409D01*
X0013784Y0020409D02*
X0013784Y0018993D01*
X0010794Y0018993D01*
X0010794Y0020409D01*
X0010794Y0020149D02*
X0013784Y0020149D01*
X0013784Y0024346D02*
X0010794Y0024346D01*
X0013784Y0024346D02*
X0013784Y0022930D01*
X0010794Y0022930D01*
X0010794Y0024346D01*
X0010794Y0024086D02*
X0013784Y0024086D01*
X0022212Y0024346D02*
X0025202Y0024346D01*
X0025202Y0022930D01*
X0022212Y0022930D01*
X0022212Y0024346D01*
X0022212Y0024086D02*
X0025202Y0024086D01*
X0025202Y0020409D02*
X0022212Y0020409D01*
X0025202Y0020409D02*
X0025202Y0018993D01*
X0022212Y0018993D01*
X0022212Y0020409D01*
X0022212Y0020149D02*
X0025202Y0020149D01*
X0025202Y0016472D02*
X0022212Y0016472D01*
X0025202Y0016472D02*
X0025202Y0015056D01*
X0022212Y0015056D01*
X0022212Y0016472D01*
X0022212Y0016212D02*
X0025202Y0016212D01*
D33*
X0021086Y0024561D02*
X0014910Y0024561D01*
X0021086Y0024561D02*
X0021086Y0014841D01*
X0014910Y0014841D01*
X0014910Y0024561D01*
X0014910Y0015763D02*
X0021086Y0015763D01*
X0021086Y0016685D02*
X0014910Y0016685D01*
X0014910Y0017607D02*
X0021086Y0017607D01*
X0021086Y0018529D02*
X0014910Y0018529D01*
X0014910Y0019451D02*
X0021086Y0019451D01*
X0021086Y0020373D02*
X0014910Y0020373D01*
X0014910Y0021295D02*
X0021086Y0021295D01*
X0021086Y0022217D02*
X0014910Y0022217D01*
X0014910Y0023139D02*
X0021086Y0023139D01*
X0021086Y0024061D02*
X0014910Y0024061D01*
D34*
X0082350Y0096006D03*
X0088450Y0095906D03*
X0088450Y0102806D03*
X0082450Y0102806D03*
X0098350Y0184806D03*
X0141950Y0185906D03*
X0163950Y0196606D03*
X0238750Y0087206D03*
X0238750Y0055906D03*
M02*
