G75*
%MOIN*%
%OFA0B0*%
%FSLAX25Y25*%
%IPPOS*%
%LPD*%
%AMOC8*
5,1,8,0,0,1.08239X$1,22.5*
%
%ADD10C,0.00600*%
%ADD11C,0.01000*%
%ADD12C,0.00800*%
%ADD13C,0.01575*%
%ADD14C,0.00500*%
D10*
X0003368Y0015854D02*
X0004502Y0016988D01*
X0003368Y0018122D01*
X0006770Y0018122D01*
X0006203Y0019537D02*
X0006770Y0020104D01*
X0006770Y0021238D01*
X0006203Y0021805D01*
X0005636Y0023220D02*
X0005636Y0024921D01*
X0005069Y0025488D01*
X0003935Y0025488D01*
X0003368Y0024921D01*
X0003368Y0023220D01*
X0006770Y0023220D01*
X0003935Y0021805D02*
X0003368Y0021238D01*
X0003368Y0020104D01*
X0003935Y0019537D01*
X0006203Y0019537D01*
X0006770Y0015854D02*
X0003368Y0015854D01*
X0003935Y0026903D02*
X0004502Y0026903D01*
X0005069Y0027470D01*
X0005069Y0029172D01*
X0003935Y0029172D02*
X0003368Y0028604D01*
X0003368Y0027470D01*
X0003935Y0026903D01*
X0006203Y0026903D02*
X0006770Y0027470D01*
X0006770Y0028604D01*
X0006203Y0029172D01*
X0003935Y0029172D01*
X0003935Y0030586D02*
X0004502Y0030586D01*
X0005069Y0031153D01*
X0005069Y0032288D01*
X0005636Y0032855D01*
X0006203Y0032855D01*
X0006770Y0032288D01*
X0006770Y0031153D01*
X0006203Y0030586D01*
X0005636Y0030586D01*
X0005069Y0031153D01*
X0005069Y0032288D02*
X0004502Y0032855D01*
X0003935Y0032855D01*
X0003368Y0032288D01*
X0003368Y0031153D01*
X0003935Y0030586D01*
X0003935Y0034269D02*
X0003368Y0034836D01*
X0003368Y0035971D01*
X0003935Y0036538D01*
X0006203Y0034269D01*
X0006770Y0034836D01*
X0006770Y0035971D01*
X0006203Y0036538D01*
X0003935Y0036538D01*
X0003935Y0037952D02*
X0004502Y0037952D01*
X0005069Y0038520D01*
X0005069Y0039654D01*
X0005636Y0040221D01*
X0006203Y0040221D01*
X0006770Y0039654D01*
X0006770Y0038520D01*
X0006203Y0037952D01*
X0005636Y0037952D01*
X0005069Y0038520D01*
X0005069Y0039654D02*
X0004502Y0040221D01*
X0003935Y0040221D01*
X0003368Y0039654D01*
X0003368Y0038520D01*
X0003935Y0037952D01*
X0003935Y0034269D02*
X0006203Y0034269D01*
X0013998Y0031088D02*
X0015132Y0031088D01*
X0014565Y0031088D02*
X0014565Y0027685D01*
X0013998Y0027685D02*
X0015132Y0027685D01*
X0016453Y0028252D02*
X0017021Y0027685D01*
X0018155Y0027685D01*
X0018722Y0028252D01*
X0020137Y0028252D02*
X0020704Y0027685D01*
X0021838Y0027685D01*
X0022405Y0028252D01*
X0022405Y0028819D01*
X0021838Y0029386D01*
X0021271Y0029386D01*
X0021838Y0029386D02*
X0022405Y0029954D01*
X0022405Y0030521D01*
X0021838Y0031088D01*
X0020704Y0031088D01*
X0020137Y0030521D01*
X0018722Y0030521D02*
X0018155Y0031088D01*
X0017021Y0031088D01*
X0016453Y0030521D01*
X0016453Y0028252D01*
X0064850Y0043751D02*
X0064850Y0046020D01*
X0064850Y0044886D02*
X0068253Y0044886D01*
X0070076Y0045303D02*
X0072344Y0045303D01*
X0073479Y0044169D01*
X0072344Y0043034D01*
X0070076Y0043034D01*
X0070076Y0041620D02*
X0070076Y0039351D01*
X0070076Y0040486D02*
X0073479Y0040486D01*
X0072912Y0046718D02*
X0073479Y0047285D01*
X0073479Y0048419D01*
X0072912Y0048986D01*
X0072344Y0048986D01*
X0071777Y0048419D01*
X0071777Y0047285D01*
X0071210Y0046718D01*
X0070643Y0046718D01*
X0070076Y0047285D01*
X0070076Y0048419D01*
X0070643Y0048986D01*
X0071777Y0050401D02*
X0071777Y0052669D01*
X0071777Y0054084D02*
X0071210Y0055218D01*
X0071210Y0055785D01*
X0071777Y0056352D01*
X0072912Y0056352D01*
X0073479Y0055785D01*
X0073479Y0054651D01*
X0072912Y0054084D01*
X0071777Y0054084D02*
X0070076Y0054084D01*
X0070076Y0056352D01*
X0070076Y0057767D02*
X0072344Y0057767D01*
X0073479Y0058901D01*
X0072344Y0060036D01*
X0070076Y0060036D01*
X0068253Y0057069D02*
X0068253Y0054801D01*
X0065984Y0057069D01*
X0065417Y0057069D01*
X0064850Y0056502D01*
X0064850Y0055368D01*
X0065417Y0054801D01*
X0065417Y0053386D02*
X0064850Y0052819D01*
X0064850Y0051685D01*
X0065417Y0051118D01*
X0065984Y0051118D01*
X0066551Y0051685D01*
X0066551Y0052819D01*
X0067118Y0053386D01*
X0067686Y0053386D01*
X0068253Y0052819D01*
X0068253Y0051685D01*
X0067686Y0051118D01*
X0067118Y0049703D02*
X0064850Y0049703D01*
X0067118Y0049703D02*
X0068253Y0048569D01*
X0067118Y0047434D01*
X0064850Y0047434D01*
X0063356Y0065983D02*
X0063356Y0069386D01*
X0061654Y0067684D01*
X0063923Y0067684D01*
X0060240Y0065983D02*
X0057971Y0065983D01*
X0059105Y0065983D02*
X0059105Y0069386D01*
X0057971Y0068251D01*
X0056556Y0068818D02*
X0056556Y0067684D01*
X0055989Y0067117D01*
X0054288Y0067117D01*
X0055422Y0067117D02*
X0056556Y0065983D01*
X0054288Y0065983D02*
X0054288Y0069386D01*
X0055989Y0069386D01*
X0056556Y0068818D01*
X0058048Y0071965D02*
X0063756Y0071965D01*
X0063756Y0083383D01*
X0058048Y0083383D01*
X0058048Y0071965D01*
X0068324Y0072317D02*
X0089190Y0072317D01*
X0089190Y0087278D01*
X0068324Y0087278D01*
X0068324Y0072317D01*
X0072621Y0069873D02*
X0072621Y0067604D01*
X0073188Y0067037D01*
X0074322Y0067037D01*
X0074890Y0067604D01*
X0076304Y0067604D02*
X0076871Y0067037D01*
X0078006Y0067037D01*
X0078573Y0067604D01*
X0078573Y0069873D01*
X0078006Y0070440D01*
X0076871Y0070440D01*
X0076304Y0069873D01*
X0076304Y0069305D01*
X0076871Y0068738D01*
X0078573Y0068738D01*
X0074890Y0069873D02*
X0074322Y0070440D01*
X0073188Y0070440D01*
X0072621Y0069873D01*
X0088038Y0069064D02*
X0088038Y0065661D01*
X0088038Y0066796D02*
X0089740Y0066796D01*
X0090307Y0067363D01*
X0090307Y0068497D01*
X0089740Y0069064D01*
X0088038Y0069064D01*
X0091721Y0069064D02*
X0093990Y0069064D01*
X0092856Y0069064D02*
X0092856Y0065661D01*
X0095404Y0066229D02*
X0095404Y0068497D01*
X0095972Y0069064D01*
X0097106Y0069064D01*
X0097673Y0068497D01*
X0099088Y0067363D02*
X0101356Y0067363D01*
X0100789Y0065661D02*
X0100789Y0069064D01*
X0099088Y0067363D01*
X0097673Y0066229D02*
X0097106Y0065661D01*
X0095972Y0065661D01*
X0095404Y0066229D01*
X0091915Y0070680D02*
X0099985Y0070680D01*
X0099985Y0084459D01*
X0091915Y0084459D01*
X0091915Y0070680D01*
X0103822Y0066957D02*
X0112878Y0066957D01*
X0112878Y0085854D01*
X0103822Y0085854D01*
X0103822Y0066957D01*
X0100935Y0085576D02*
X0099801Y0085576D01*
X0099234Y0086144D01*
X0101502Y0088412D01*
X0101502Y0086144D01*
X0100935Y0085576D01*
X0099234Y0086144D02*
X0099234Y0088412D01*
X0099801Y0088979D01*
X0100935Y0088979D01*
X0101502Y0088412D01*
X0104941Y0088800D02*
X0113011Y0088800D01*
X0113011Y0102580D01*
X0104941Y0102580D01*
X0104941Y0088800D01*
X0097819Y0085576D02*
X0095551Y0085576D01*
X0096685Y0085576D02*
X0096685Y0088979D01*
X0095551Y0087845D01*
X0094136Y0088412D02*
X0093569Y0088979D01*
X0092435Y0088979D01*
X0091867Y0088412D01*
X0091867Y0086144D01*
X0092435Y0085576D01*
X0093569Y0085576D01*
X0094136Y0086144D01*
X0091743Y0089506D02*
X0078357Y0089506D01*
X0078357Y0109506D01*
X0091743Y0109506D01*
X0091743Y0089506D01*
X0106171Y0104109D02*
X0105604Y0104676D01*
X0105604Y0106944D01*
X0106171Y0107512D01*
X0107305Y0107512D01*
X0107872Y0106944D01*
X0109287Y0107512D02*
X0111555Y0107512D01*
X0111555Y0106944D01*
X0109287Y0104676D01*
X0109287Y0104109D01*
X0107872Y0104676D02*
X0107305Y0104109D01*
X0106171Y0104109D01*
X0100407Y0114073D02*
X0093518Y0120963D01*
X0093518Y0124900D01*
X0098250Y0120806D02*
X0102250Y0120806D01*
X0100250Y0118806D02*
X0100250Y0122806D01*
X0100407Y0114073D02*
X0126982Y0114073D01*
X0126982Y0124900D01*
X0138827Y0124625D02*
X0140528Y0124625D01*
X0141096Y0125192D01*
X0141096Y0127461D01*
X0140528Y0128028D01*
X0138827Y0128028D01*
X0138827Y0124625D01*
X0140593Y0122975D02*
X0140593Y0114775D01*
X0140993Y0118975D02*
X0146893Y0122975D01*
X0146893Y0114775D01*
X0140993Y0118975D01*
X0144212Y0124625D02*
X0144212Y0128028D01*
X0142510Y0126326D01*
X0144779Y0126326D01*
X0147418Y0137675D02*
X0150821Y0137675D01*
X0150821Y0139943D01*
X0150821Y0141358D02*
X0147418Y0141358D01*
X0147418Y0143627D01*
X0147418Y0145041D02*
X0147418Y0146743D01*
X0147985Y0147310D01*
X0150254Y0147310D01*
X0150821Y0146743D01*
X0150821Y0145041D01*
X0147418Y0145041D01*
X0150821Y0143627D02*
X0150821Y0141358D01*
X0149119Y0141358D02*
X0149119Y0142492D01*
X0153060Y0139970D02*
X0153060Y0148041D01*
X0166840Y0148041D01*
X0166840Y0139970D01*
X0153060Y0139970D01*
X0160847Y0132217D02*
X0164250Y0132217D01*
X0164250Y0131083D02*
X0164250Y0133352D01*
X0165796Y0136003D02*
X0171504Y0136003D01*
X0171504Y0124586D01*
X0165796Y0124586D01*
X0165796Y0136003D01*
X0161981Y0131083D02*
X0160847Y0132217D01*
X0164250Y0129668D02*
X0164250Y0127400D01*
X0164250Y0128534D02*
X0160847Y0128534D01*
X0161981Y0127400D01*
X0161414Y0125985D02*
X0162549Y0125985D01*
X0163116Y0125418D01*
X0163116Y0123717D01*
X0164250Y0123717D02*
X0160847Y0123717D01*
X0160847Y0125418D01*
X0161414Y0125985D01*
X0163116Y0124851D02*
X0164250Y0125985D01*
X0168736Y0121390D02*
X0169303Y0121957D01*
X0169870Y0121957D01*
X0170438Y0121390D01*
X0171005Y0121957D01*
X0171572Y0121957D01*
X0172139Y0121390D01*
X0172139Y0120256D01*
X0171572Y0119689D01*
X0171572Y0118274D02*
X0169303Y0118274D01*
X0168736Y0117707D01*
X0168736Y0116573D01*
X0169303Y0116006D01*
X0171572Y0116006D01*
X0172139Y0116573D01*
X0172139Y0117707D01*
X0171572Y0118274D01*
X0172139Y0118274D02*
X0171005Y0117140D01*
X0169303Y0119689D02*
X0168736Y0120256D01*
X0168736Y0121390D01*
X0170438Y0121390D02*
X0170438Y0120823D01*
X0182458Y0122228D02*
X0182458Y0123929D01*
X0183025Y0124496D01*
X0184160Y0124496D01*
X0184727Y0123929D01*
X0184727Y0122228D01*
X0185861Y0122228D02*
X0182458Y0122228D01*
X0184727Y0123362D02*
X0185861Y0124496D01*
X0185861Y0125911D02*
X0185861Y0128179D01*
X0185861Y0127045D02*
X0182458Y0127045D01*
X0183592Y0125911D01*
X0188597Y0123037D02*
X0194503Y0123037D01*
X0191750Y0123137D02*
X0194312Y0128374D01*
X0188888Y0128374D01*
X0191750Y0123137D01*
X0192900Y0115008D02*
X0194035Y0115008D01*
X0194602Y0114441D01*
X0194602Y0113874D01*
X0194035Y0113307D01*
X0194602Y0112740D01*
X0194602Y0112173D01*
X0194035Y0111606D01*
X0192900Y0111606D01*
X0192333Y0112173D01*
X0190919Y0112173D02*
X0190919Y0114441D01*
X0190351Y0115008D01*
X0188650Y0115008D01*
X0188650Y0111606D01*
X0190351Y0111606D01*
X0190919Y0112173D01*
X0192333Y0114441D02*
X0192900Y0115008D01*
X0193467Y0113307D02*
X0194035Y0113307D01*
X0193240Y0110141D02*
X0193240Y0102070D01*
X0179460Y0102070D01*
X0179460Y0110141D01*
X0193240Y0110141D01*
X0198922Y0103742D02*
X0200097Y0103742D01*
X0207190Y0103742D01*
X0220182Y0103742D01*
X0246960Y0103742D01*
X0257978Y0103742D01*
X0257978Y0133269D01*
X0246960Y0133269D01*
X0220182Y0133269D01*
X0207190Y0133269D01*
X0200097Y0133269D01*
X0198922Y0133269D01*
X0198922Y0103742D01*
X0198922Y0101969D02*
X0200097Y0101969D01*
X0207190Y0101969D01*
X0220182Y0101969D01*
X0246960Y0101969D01*
X0257978Y0101969D01*
X0257978Y0072442D01*
X0246960Y0072442D01*
X0220182Y0072442D01*
X0207190Y0072442D01*
X0200097Y0072442D01*
X0198922Y0072442D01*
X0198922Y0101969D01*
X0195313Y0099452D02*
X0194746Y0100019D01*
X0193612Y0100019D01*
X0193045Y0099452D01*
X0195313Y0099452D02*
X0195313Y0098885D01*
X0193045Y0096617D01*
X0195313Y0096617D01*
X0191630Y0096617D02*
X0189361Y0096617D01*
X0190496Y0096617D02*
X0190496Y0100019D01*
X0189361Y0098885D01*
X0187947Y0098318D02*
X0187380Y0097751D01*
X0185678Y0097751D01*
X0184559Y0097571D02*
X0184559Y0091862D01*
X0173141Y0091862D01*
X0173141Y0097571D01*
X0184559Y0097571D01*
X0185678Y0096617D02*
X0185678Y0100019D01*
X0187380Y0100019D01*
X0187947Y0099452D01*
X0187947Y0098318D01*
X0186813Y0097751D02*
X0187947Y0096617D01*
X0178179Y0103637D02*
X0178179Y0104771D01*
X0177612Y0105339D01*
X0177612Y0106753D02*
X0178179Y0107320D01*
X0178179Y0108455D01*
X0177612Y0109022D01*
X0177045Y0109022D01*
X0176478Y0108455D01*
X0176478Y0106753D01*
X0177612Y0106753D01*
X0176478Y0106753D02*
X0175343Y0107887D01*
X0174776Y0109022D01*
X0175343Y0105339D02*
X0174776Y0104771D01*
X0174776Y0103637D01*
X0175343Y0103070D01*
X0177612Y0103070D01*
X0178179Y0103637D01*
X0171813Y0099252D02*
X0171813Y0098685D01*
X0171246Y0098118D01*
X0171813Y0097551D01*
X0171813Y0096984D01*
X0171246Y0096417D01*
X0170112Y0096417D01*
X0169545Y0096984D01*
X0168130Y0096417D02*
X0165861Y0096417D01*
X0166996Y0096417D02*
X0166996Y0099819D01*
X0165861Y0098685D01*
X0164447Y0098118D02*
X0163880Y0097551D01*
X0162178Y0097551D01*
X0162178Y0096417D02*
X0162178Y0099819D01*
X0163880Y0099819D01*
X0164447Y0099252D01*
X0164447Y0098118D01*
X0163313Y0097551D02*
X0164447Y0096417D01*
X0164907Y0095014D02*
X0170615Y0095014D01*
X0170615Y0083597D01*
X0164907Y0083597D01*
X0164907Y0095014D01*
X0170679Y0098118D02*
X0171246Y0098118D01*
X0171813Y0099252D02*
X0171246Y0099819D01*
X0170112Y0099819D01*
X0169545Y0099252D01*
X0188888Y0087574D02*
X0194312Y0087574D01*
X0191750Y0082337D01*
X0188888Y0087574D01*
X0188597Y0082237D02*
X0194503Y0082237D01*
X0194367Y0073808D02*
X0194367Y0072107D01*
X0195501Y0072674D01*
X0196068Y0072674D01*
X0196635Y0072107D01*
X0196635Y0070973D01*
X0196068Y0070406D01*
X0194934Y0070406D01*
X0194367Y0070973D01*
X0192952Y0070973D02*
X0192952Y0073241D01*
X0192385Y0073808D01*
X0190684Y0073808D01*
X0190684Y0070406D01*
X0192385Y0070406D01*
X0192952Y0070973D01*
X0194367Y0073808D02*
X0196635Y0073808D01*
X0198922Y0070569D02*
X0200097Y0070569D01*
X0207190Y0070569D01*
X0220182Y0070569D01*
X0246960Y0070569D01*
X0257978Y0070569D01*
X0257978Y0041042D01*
X0246960Y0041042D01*
X0220182Y0041042D01*
X0207190Y0041042D01*
X0200097Y0041042D01*
X0198922Y0041042D01*
X0198922Y0070569D01*
X0213347Y0063540D02*
X0213347Y0062405D01*
X0213914Y0061838D01*
X0213347Y0060424D02*
X0216750Y0060424D01*
X0215616Y0059289D01*
X0216750Y0058155D01*
X0213347Y0058155D01*
X0215049Y0056740D02*
X0215049Y0054472D01*
X0216750Y0053057D02*
X0216750Y0050789D01*
X0213347Y0050789D01*
X0213914Y0049374D02*
X0215049Y0049374D01*
X0215616Y0048807D01*
X0215616Y0047106D01*
X0215616Y0048240D02*
X0216750Y0049374D01*
X0216750Y0047106D02*
X0213347Y0047106D01*
X0213347Y0048807D01*
X0213914Y0049374D01*
X0213397Y0039269D02*
X0220490Y0039269D01*
X0233482Y0039269D01*
X0260260Y0039269D01*
X0271278Y0039269D01*
X0271278Y0009742D01*
X0260260Y0009742D01*
X0233482Y0009742D01*
X0220490Y0009742D01*
X0213397Y0009742D01*
X0212222Y0009742D01*
X0212222Y0039269D01*
X0213397Y0039269D01*
X0224447Y0031640D02*
X0225014Y0032207D01*
X0225581Y0032207D01*
X0226149Y0031640D01*
X0226716Y0032207D01*
X0227283Y0032207D01*
X0227850Y0031640D01*
X0227850Y0030505D01*
X0227283Y0029938D01*
X0227850Y0028524D02*
X0224447Y0028524D01*
X0225014Y0029938D02*
X0224447Y0030505D01*
X0224447Y0031640D01*
X0226149Y0031640D02*
X0226149Y0031072D01*
X0227850Y0028524D02*
X0226716Y0027389D01*
X0227850Y0026255D01*
X0224447Y0026255D01*
X0226149Y0024840D02*
X0226149Y0022572D01*
X0227850Y0021157D02*
X0227850Y0018889D01*
X0224447Y0018889D01*
X0225014Y0017474D02*
X0226149Y0017474D01*
X0226716Y0016907D01*
X0226716Y0015206D01*
X0226716Y0016340D02*
X0227850Y0017474D01*
X0227850Y0015206D02*
X0224447Y0015206D01*
X0224447Y0016907D01*
X0225014Y0017474D01*
X0208002Y0014308D02*
X0208002Y0013741D01*
X0205733Y0011473D01*
X0205733Y0010906D01*
X0204319Y0011473D02*
X0204319Y0013741D01*
X0203751Y0014308D01*
X0202050Y0014308D01*
X0202050Y0010906D01*
X0203751Y0010906D01*
X0204319Y0011473D01*
X0205733Y0014308D02*
X0208002Y0014308D01*
X0208003Y0022437D02*
X0202097Y0022437D01*
X0205250Y0022537D02*
X0207812Y0027774D01*
X0202388Y0027774D01*
X0205250Y0022537D01*
X0197598Y0020878D02*
X0197598Y0012807D01*
X0183819Y0012807D01*
X0183819Y0020878D01*
X0197598Y0020878D01*
X0184208Y0025312D02*
X0183641Y0024745D01*
X0181373Y0024745D01*
X0180805Y0025312D01*
X0180805Y0026446D01*
X0181373Y0027013D01*
X0183641Y0027013D01*
X0184208Y0026446D01*
X0184208Y0025312D01*
X0183074Y0025879D02*
X0184208Y0027013D01*
X0183641Y0028428D02*
X0182507Y0028428D01*
X0182507Y0030129D01*
X0183074Y0030696D01*
X0183641Y0030696D01*
X0184208Y0030129D01*
X0184208Y0028995D01*
X0183641Y0028428D01*
X0182507Y0028428D02*
X0181373Y0029562D01*
X0180805Y0030696D01*
X0179878Y0031120D02*
X0174170Y0031120D01*
X0174170Y0019702D01*
X0179878Y0019702D01*
X0179878Y0031120D01*
X0179025Y0032280D02*
X0176756Y0032280D01*
X0177890Y0032280D02*
X0177890Y0035682D01*
X0176756Y0034548D01*
X0175341Y0033981D02*
X0174774Y0033414D01*
X0173073Y0033414D01*
X0174207Y0033414D02*
X0175341Y0032280D01*
X0175341Y0033981D02*
X0175341Y0035115D01*
X0174774Y0035682D01*
X0173073Y0035682D01*
X0173073Y0032280D01*
X0171810Y0026591D02*
X0166101Y0026591D01*
X0166101Y0038009D01*
X0171810Y0038009D01*
X0171810Y0026591D01*
X0164744Y0029039D02*
X0161342Y0029039D01*
X0161342Y0030741D01*
X0161909Y0031308D01*
X0163043Y0031308D01*
X0163610Y0030741D01*
X0163610Y0029039D01*
X0163610Y0030174D02*
X0164744Y0031308D01*
X0164744Y0032723D02*
X0164744Y0034991D01*
X0164744Y0033857D02*
X0161342Y0033857D01*
X0162476Y0032723D01*
X0161342Y0036406D02*
X0161342Y0038674D01*
X0161909Y0038674D01*
X0164177Y0036406D01*
X0164744Y0036406D01*
X0169414Y0048706D02*
X0168847Y0049273D01*
X0168847Y0050407D01*
X0169414Y0050974D01*
X0171683Y0050974D01*
X0172250Y0050407D01*
X0172250Y0049273D01*
X0171683Y0048706D01*
X0169414Y0048706D01*
X0171116Y0049840D02*
X0172250Y0050974D01*
X0171683Y0052389D02*
X0172250Y0052956D01*
X0172250Y0054090D01*
X0171683Y0054657D01*
X0170549Y0054657D01*
X0169981Y0054090D01*
X0169981Y0053523D01*
X0170549Y0052389D01*
X0168847Y0052389D01*
X0168847Y0054657D01*
X0171278Y0056128D02*
X0165570Y0056128D01*
X0165570Y0067546D01*
X0171278Y0067546D01*
X0171278Y0056128D01*
X0173426Y0063125D02*
X0173426Y0068834D01*
X0184843Y0068834D01*
X0184843Y0063125D01*
X0173426Y0063125D01*
X0164424Y0063293D02*
X0163857Y0062726D01*
X0162723Y0062726D01*
X0162723Y0064427D01*
X0163290Y0064994D01*
X0163857Y0064994D01*
X0164424Y0064427D01*
X0164424Y0063293D01*
X0162723Y0062726D02*
X0161588Y0063860D01*
X0161021Y0064994D01*
X0164424Y0061311D02*
X0164424Y0059042D01*
X0164424Y0060177D02*
X0161021Y0060177D01*
X0162155Y0059042D01*
X0161588Y0057628D02*
X0161021Y0057061D01*
X0161021Y0055359D01*
X0164424Y0055359D01*
X0163290Y0055359D02*
X0163290Y0057061D01*
X0162723Y0057628D01*
X0161588Y0057628D01*
X0163290Y0056494D02*
X0164424Y0057628D01*
X0176463Y0070180D02*
X0176463Y0073582D01*
X0178164Y0073582D01*
X0178731Y0073015D01*
X0178731Y0071881D01*
X0178164Y0071314D01*
X0176463Y0071314D01*
X0177597Y0071314D02*
X0178731Y0070180D01*
X0180146Y0070180D02*
X0182414Y0070180D01*
X0181280Y0070180D02*
X0181280Y0073582D01*
X0180146Y0072448D01*
X0183829Y0071881D02*
X0184963Y0072448D01*
X0185530Y0072448D01*
X0186097Y0071881D01*
X0186097Y0070747D01*
X0185530Y0070180D01*
X0184396Y0070180D01*
X0183829Y0070747D01*
X0183829Y0071881D02*
X0183829Y0073582D01*
X0186097Y0073582D01*
X0172050Y0076973D02*
X0171483Y0076406D01*
X0169214Y0076406D01*
X0168647Y0076973D01*
X0168647Y0078107D01*
X0169214Y0078674D01*
X0171483Y0078674D01*
X0172050Y0078107D01*
X0172050Y0076973D01*
X0170916Y0077540D02*
X0172050Y0078674D01*
X0170349Y0080089D02*
X0170349Y0082357D01*
X0172050Y0081790D02*
X0168647Y0081790D01*
X0170349Y0080089D01*
X0189088Y0058974D02*
X0194512Y0058974D01*
X0191950Y0053737D01*
X0189088Y0058974D01*
X0188797Y0053637D02*
X0194703Y0053637D01*
X0194802Y0045708D02*
X0193667Y0045141D01*
X0192533Y0044007D01*
X0194235Y0044007D01*
X0194802Y0043440D01*
X0194802Y0042873D01*
X0194235Y0042306D01*
X0193100Y0042306D01*
X0192533Y0042873D01*
X0192533Y0044007D01*
X0191119Y0042873D02*
X0191119Y0045141D01*
X0190551Y0045708D01*
X0188850Y0045708D01*
X0188850Y0042306D01*
X0190551Y0042306D01*
X0191119Y0042873D01*
X0182708Y0035115D02*
X0182708Y0034548D01*
X0182141Y0033981D01*
X0181006Y0033981D01*
X0180439Y0034548D01*
X0180439Y0035115D01*
X0181006Y0035682D01*
X0182141Y0035682D01*
X0182708Y0035115D01*
X0182141Y0033981D02*
X0182708Y0033414D01*
X0182708Y0032847D01*
X0182141Y0032280D01*
X0181006Y0032280D01*
X0180439Y0032847D01*
X0180439Y0033414D01*
X0181006Y0033981D01*
X0181458Y0020851D02*
X0181458Y0018583D01*
X0181458Y0019717D02*
X0178055Y0019717D01*
X0179189Y0018583D01*
X0181458Y0017168D02*
X0181458Y0014900D01*
X0181458Y0016034D02*
X0178055Y0016034D01*
X0179189Y0014900D01*
X0178622Y0013485D02*
X0178055Y0012918D01*
X0178055Y0011784D01*
X0178622Y0011217D01*
X0180891Y0011217D01*
X0181458Y0011784D01*
X0181458Y0012918D01*
X0180891Y0013485D01*
X0144771Y0025706D02*
X0143637Y0025706D01*
X0144204Y0025706D02*
X0144204Y0027974D01*
X0143637Y0027974D01*
X0144204Y0029108D02*
X0144204Y0029676D01*
X0142222Y0028541D02*
X0142222Y0027407D01*
X0141655Y0026840D01*
X0139954Y0026840D01*
X0139954Y0025706D02*
X0139954Y0029108D01*
X0141655Y0029108D01*
X0142222Y0028541D01*
X0134856Y0027974D02*
X0134856Y0025138D01*
X0134289Y0024571D01*
X0133722Y0024571D01*
X0133155Y0025706D02*
X0134856Y0025706D01*
X0133155Y0025706D02*
X0132587Y0026273D01*
X0132587Y0027974D01*
X0131220Y0027974D02*
X0130652Y0027974D01*
X0129518Y0026840D01*
X0129518Y0025706D02*
X0129518Y0027974D01*
X0128150Y0027974D02*
X0127583Y0027974D01*
X0126449Y0026840D01*
X0126449Y0025706D02*
X0126449Y0027974D01*
X0125034Y0027407D02*
X0125034Y0026840D01*
X0122766Y0026840D01*
X0122766Y0027407D02*
X0123333Y0027974D01*
X0124467Y0027974D01*
X0125034Y0027407D01*
X0124467Y0025706D02*
X0123333Y0025706D01*
X0122766Y0026273D01*
X0122766Y0027407D01*
X0121351Y0027407D02*
X0120784Y0027974D01*
X0119083Y0027974D01*
X0119083Y0029108D02*
X0119083Y0025706D01*
X0120784Y0025706D01*
X0121351Y0026273D01*
X0121351Y0027407D01*
X0117668Y0027407D02*
X0117668Y0026273D01*
X0117101Y0025706D01*
X0115399Y0025706D01*
X0115399Y0024571D02*
X0115399Y0027974D01*
X0117101Y0027974D01*
X0117668Y0027407D01*
X0113985Y0027974D02*
X0112283Y0027974D01*
X0111716Y0027407D01*
X0112283Y0026840D01*
X0113418Y0026840D01*
X0113985Y0026273D01*
X0113418Y0025706D01*
X0111716Y0025706D01*
X0110302Y0025706D02*
X0108600Y0025706D01*
X0108033Y0026273D01*
X0108600Y0026840D01*
X0110302Y0026840D01*
X0110302Y0027407D02*
X0110302Y0025706D01*
X0110302Y0027407D02*
X0109735Y0027974D01*
X0108600Y0027974D01*
X0106619Y0027407D02*
X0106051Y0026840D01*
X0104350Y0026840D01*
X0105484Y0026840D02*
X0106619Y0025706D01*
X0106619Y0027407D02*
X0106619Y0028541D01*
X0106051Y0029108D01*
X0104350Y0029108D01*
X0104350Y0025706D01*
X0104350Y0023108D02*
X0106051Y0023108D01*
X0106619Y0022541D01*
X0106619Y0021407D01*
X0106051Y0020840D01*
X0104350Y0020840D01*
X0104350Y0019706D02*
X0104350Y0023108D01*
X0108033Y0022541D02*
X0108033Y0020273D01*
X0108600Y0019706D01*
X0109735Y0019706D01*
X0110302Y0020273D01*
X0110302Y0022541D01*
X0109735Y0023108D01*
X0108600Y0023108D01*
X0108033Y0022541D01*
X0111716Y0023108D02*
X0111716Y0019706D01*
X0112851Y0020840D01*
X0113985Y0019706D01*
X0113985Y0023108D01*
X0115399Y0023108D02*
X0115399Y0019706D01*
X0117668Y0019706D01*
X0119083Y0019706D02*
X0119083Y0023108D01*
X0120784Y0023108D01*
X0121351Y0022541D01*
X0121351Y0021407D01*
X0120784Y0020840D01*
X0119083Y0020840D01*
X0120217Y0020840D02*
X0121351Y0019706D01*
X0117668Y0023108D02*
X0115399Y0023108D01*
X0115399Y0021407D02*
X0116534Y0021407D01*
X0085950Y0022066D02*
X0082547Y0022066D01*
X0085950Y0024335D01*
X0082547Y0024335D01*
X0083114Y0025749D02*
X0082547Y0026316D01*
X0082547Y0027451D01*
X0083114Y0028018D01*
X0083681Y0028018D01*
X0085950Y0025749D01*
X0085950Y0028018D01*
X0085950Y0020651D02*
X0082547Y0020651D01*
X0082547Y0018383D02*
X0085950Y0020651D01*
X0085950Y0018383D02*
X0082547Y0018383D01*
X0083114Y0016968D02*
X0082547Y0016401D01*
X0082547Y0015267D01*
X0083114Y0014700D01*
X0085383Y0014700D01*
X0085950Y0015267D01*
X0085950Y0016401D01*
X0085383Y0016968D01*
X0083114Y0016968D01*
X0083114Y0013285D02*
X0082547Y0012718D01*
X0082547Y0011584D01*
X0083114Y0011017D01*
X0085383Y0011017D01*
X0085950Y0011584D01*
X0085950Y0012718D01*
X0085383Y0013285D01*
X0030051Y0067673D02*
X0029484Y0067106D01*
X0028350Y0067106D01*
X0027783Y0067673D01*
X0026368Y0067106D02*
X0026368Y0069374D01*
X0025234Y0070508D01*
X0024099Y0069374D01*
X0024099Y0067106D01*
X0024099Y0068807D02*
X0026368Y0068807D01*
X0027783Y0069941D02*
X0028350Y0070508D01*
X0029484Y0070508D01*
X0030051Y0069941D01*
X0030051Y0069374D01*
X0029484Y0068807D01*
X0030051Y0068240D01*
X0030051Y0067673D01*
X0029484Y0068807D02*
X0028917Y0068807D01*
X0030350Y0071906D02*
X0013350Y0071906D01*
X0013617Y0070508D02*
X0013050Y0069941D01*
X0013050Y0069374D01*
X0013617Y0068807D01*
X0014751Y0068807D01*
X0015319Y0068240D01*
X0015319Y0067673D01*
X0014751Y0067106D01*
X0013617Y0067106D01*
X0013050Y0067673D01*
X0015319Y0069941D02*
X0014751Y0070508D01*
X0013617Y0070508D01*
X0013350Y0071906D02*
X0013263Y0071908D01*
X0013176Y0071914D01*
X0013089Y0071923D01*
X0013003Y0071936D01*
X0012917Y0071953D01*
X0012832Y0071974D01*
X0012749Y0071999D01*
X0012666Y0072027D01*
X0012585Y0072058D01*
X0012505Y0072093D01*
X0012427Y0072132D01*
X0012350Y0072174D01*
X0012275Y0072219D01*
X0012203Y0072268D01*
X0012132Y0072319D01*
X0012064Y0072374D01*
X0011999Y0072431D01*
X0011936Y0072492D01*
X0011875Y0072555D01*
X0011818Y0072620D01*
X0011763Y0072688D01*
X0011712Y0072759D01*
X0011663Y0072831D01*
X0011618Y0072906D01*
X0011576Y0072983D01*
X0011537Y0073061D01*
X0011502Y0073141D01*
X0011471Y0073222D01*
X0011443Y0073305D01*
X0011418Y0073388D01*
X0011397Y0073473D01*
X0011380Y0073559D01*
X0011367Y0073645D01*
X0011358Y0073732D01*
X0011352Y0073819D01*
X0011350Y0073906D01*
X0011350Y0079906D01*
X0011352Y0079993D01*
X0011358Y0080080D01*
X0011367Y0080167D01*
X0011380Y0080253D01*
X0011397Y0080339D01*
X0011418Y0080424D01*
X0011443Y0080507D01*
X0011471Y0080590D01*
X0011502Y0080671D01*
X0011537Y0080751D01*
X0011576Y0080829D01*
X0011618Y0080906D01*
X0011663Y0080981D01*
X0011712Y0081053D01*
X0011763Y0081124D01*
X0011818Y0081192D01*
X0011875Y0081257D01*
X0011936Y0081320D01*
X0011999Y0081381D01*
X0012064Y0081438D01*
X0012132Y0081493D01*
X0012203Y0081544D01*
X0012275Y0081593D01*
X0012350Y0081638D01*
X0012427Y0081680D01*
X0012505Y0081719D01*
X0012585Y0081754D01*
X0012666Y0081785D01*
X0012749Y0081813D01*
X0012832Y0081838D01*
X0012917Y0081859D01*
X0013003Y0081876D01*
X0013089Y0081889D01*
X0013176Y0081898D01*
X0013263Y0081904D01*
X0013350Y0081906D01*
X0030350Y0081906D01*
X0030437Y0081904D01*
X0030524Y0081898D01*
X0030611Y0081889D01*
X0030697Y0081876D01*
X0030783Y0081859D01*
X0030868Y0081838D01*
X0030951Y0081813D01*
X0031034Y0081785D01*
X0031115Y0081754D01*
X0031195Y0081719D01*
X0031273Y0081680D01*
X0031350Y0081638D01*
X0031425Y0081593D01*
X0031497Y0081544D01*
X0031568Y0081493D01*
X0031636Y0081438D01*
X0031701Y0081381D01*
X0031764Y0081320D01*
X0031825Y0081257D01*
X0031882Y0081192D01*
X0031937Y0081124D01*
X0031988Y0081053D01*
X0032037Y0080981D01*
X0032082Y0080906D01*
X0032124Y0080829D01*
X0032163Y0080751D01*
X0032198Y0080671D01*
X0032229Y0080590D01*
X0032257Y0080507D01*
X0032282Y0080424D01*
X0032303Y0080339D01*
X0032320Y0080253D01*
X0032333Y0080167D01*
X0032342Y0080080D01*
X0032348Y0079993D01*
X0032350Y0079906D01*
X0032350Y0073906D01*
X0032348Y0073819D01*
X0032342Y0073732D01*
X0032333Y0073645D01*
X0032320Y0073559D01*
X0032303Y0073473D01*
X0032282Y0073388D01*
X0032257Y0073305D01*
X0032229Y0073222D01*
X0032198Y0073141D01*
X0032163Y0073061D01*
X0032124Y0072983D01*
X0032082Y0072906D01*
X0032037Y0072831D01*
X0031988Y0072759D01*
X0031937Y0072688D01*
X0031882Y0072620D01*
X0031825Y0072555D01*
X0031764Y0072492D01*
X0031701Y0072431D01*
X0031636Y0072374D01*
X0031568Y0072319D01*
X0031497Y0072268D01*
X0031425Y0072219D01*
X0031350Y0072174D01*
X0031273Y0072132D01*
X0031195Y0072093D01*
X0031115Y0072058D01*
X0031034Y0072027D01*
X0030951Y0071999D01*
X0030868Y0071974D01*
X0030783Y0071953D01*
X0030697Y0071936D01*
X0030611Y0071923D01*
X0030524Y0071914D01*
X0030437Y0071908D01*
X0030350Y0071906D01*
X0022685Y0068807D02*
X0020416Y0068807D01*
X0019002Y0070508D02*
X0017867Y0070508D01*
X0018435Y0070508D02*
X0018435Y0067673D01*
X0017867Y0067106D01*
X0017300Y0067106D01*
X0016733Y0067673D01*
X0017400Y0086906D02*
X0017967Y0086906D01*
X0018535Y0087473D01*
X0018535Y0090308D01*
X0019102Y0090308D02*
X0017967Y0090308D01*
X0015419Y0089741D02*
X0014851Y0090308D01*
X0013717Y0090308D01*
X0013150Y0089741D01*
X0013150Y0089174D01*
X0013717Y0088607D01*
X0014851Y0088607D01*
X0015419Y0088040D01*
X0015419Y0087473D01*
X0014851Y0086906D01*
X0013717Y0086906D01*
X0013150Y0087473D01*
X0016833Y0087473D02*
X0017400Y0086906D01*
X0020516Y0088607D02*
X0022785Y0088607D01*
X0024199Y0088607D02*
X0026468Y0088607D01*
X0026468Y0089174D02*
X0026468Y0086906D01*
X0027883Y0086906D02*
X0030151Y0089174D01*
X0030151Y0089741D01*
X0029584Y0090308D01*
X0028450Y0090308D01*
X0027883Y0089741D01*
X0026468Y0089174D02*
X0025334Y0090308D01*
X0024199Y0089174D01*
X0024199Y0086906D01*
X0027883Y0086906D02*
X0030151Y0086906D01*
X0030350Y0091906D02*
X0013350Y0091906D01*
X0013263Y0091908D01*
X0013176Y0091914D01*
X0013089Y0091923D01*
X0013003Y0091936D01*
X0012917Y0091953D01*
X0012832Y0091974D01*
X0012749Y0091999D01*
X0012666Y0092027D01*
X0012585Y0092058D01*
X0012505Y0092093D01*
X0012427Y0092132D01*
X0012350Y0092174D01*
X0012275Y0092219D01*
X0012203Y0092268D01*
X0012132Y0092319D01*
X0012064Y0092374D01*
X0011999Y0092431D01*
X0011936Y0092492D01*
X0011875Y0092555D01*
X0011818Y0092620D01*
X0011763Y0092688D01*
X0011712Y0092759D01*
X0011663Y0092831D01*
X0011618Y0092906D01*
X0011576Y0092983D01*
X0011537Y0093061D01*
X0011502Y0093141D01*
X0011471Y0093222D01*
X0011443Y0093305D01*
X0011418Y0093388D01*
X0011397Y0093473D01*
X0011380Y0093559D01*
X0011367Y0093645D01*
X0011358Y0093732D01*
X0011352Y0093819D01*
X0011350Y0093906D01*
X0011350Y0099906D01*
X0011352Y0099993D01*
X0011358Y0100080D01*
X0011367Y0100167D01*
X0011380Y0100253D01*
X0011397Y0100339D01*
X0011418Y0100424D01*
X0011443Y0100507D01*
X0011471Y0100590D01*
X0011502Y0100671D01*
X0011537Y0100751D01*
X0011576Y0100829D01*
X0011618Y0100906D01*
X0011663Y0100981D01*
X0011712Y0101053D01*
X0011763Y0101124D01*
X0011818Y0101192D01*
X0011875Y0101257D01*
X0011936Y0101320D01*
X0011999Y0101381D01*
X0012064Y0101438D01*
X0012132Y0101493D01*
X0012203Y0101544D01*
X0012275Y0101593D01*
X0012350Y0101638D01*
X0012427Y0101680D01*
X0012505Y0101719D01*
X0012585Y0101754D01*
X0012666Y0101785D01*
X0012749Y0101813D01*
X0012832Y0101838D01*
X0012917Y0101859D01*
X0013003Y0101876D01*
X0013089Y0101889D01*
X0013176Y0101898D01*
X0013263Y0101904D01*
X0013350Y0101906D01*
X0030350Y0101906D01*
X0030437Y0101904D01*
X0030524Y0101898D01*
X0030611Y0101889D01*
X0030697Y0101876D01*
X0030783Y0101859D01*
X0030868Y0101838D01*
X0030951Y0101813D01*
X0031034Y0101785D01*
X0031115Y0101754D01*
X0031195Y0101719D01*
X0031273Y0101680D01*
X0031350Y0101638D01*
X0031425Y0101593D01*
X0031497Y0101544D01*
X0031568Y0101493D01*
X0031636Y0101438D01*
X0031701Y0101381D01*
X0031764Y0101320D01*
X0031825Y0101257D01*
X0031882Y0101192D01*
X0031937Y0101124D01*
X0031988Y0101053D01*
X0032037Y0100981D01*
X0032082Y0100906D01*
X0032124Y0100829D01*
X0032163Y0100751D01*
X0032198Y0100671D01*
X0032229Y0100590D01*
X0032257Y0100507D01*
X0032282Y0100424D01*
X0032303Y0100339D01*
X0032320Y0100253D01*
X0032333Y0100167D01*
X0032342Y0100080D01*
X0032348Y0099993D01*
X0032350Y0099906D01*
X0032350Y0093906D01*
X0032348Y0093819D01*
X0032342Y0093732D01*
X0032333Y0093645D01*
X0032320Y0093559D01*
X0032303Y0093473D01*
X0032282Y0093388D01*
X0032257Y0093305D01*
X0032229Y0093222D01*
X0032198Y0093141D01*
X0032163Y0093061D01*
X0032124Y0092983D01*
X0032082Y0092906D01*
X0032037Y0092831D01*
X0031988Y0092759D01*
X0031937Y0092688D01*
X0031882Y0092620D01*
X0031825Y0092555D01*
X0031764Y0092492D01*
X0031701Y0092431D01*
X0031636Y0092374D01*
X0031568Y0092319D01*
X0031497Y0092268D01*
X0031425Y0092219D01*
X0031350Y0092174D01*
X0031273Y0092132D01*
X0031195Y0092093D01*
X0031115Y0092058D01*
X0031034Y0092027D01*
X0030951Y0091999D01*
X0030868Y0091974D01*
X0030783Y0091953D01*
X0030697Y0091936D01*
X0030611Y0091923D01*
X0030524Y0091914D01*
X0030437Y0091908D01*
X0030350Y0091906D01*
X0029651Y0106706D02*
X0027383Y0106706D01*
X0028517Y0106706D02*
X0028517Y0110108D01*
X0027383Y0108974D01*
X0025968Y0108974D02*
X0025968Y0106706D01*
X0025968Y0108407D02*
X0023699Y0108407D01*
X0023699Y0108974D02*
X0024834Y0110108D01*
X0025968Y0108974D01*
X0023699Y0108974D02*
X0023699Y0106706D01*
X0022285Y0108407D02*
X0020016Y0108407D01*
X0018602Y0110108D02*
X0017467Y0110108D01*
X0018035Y0110108D02*
X0018035Y0107273D01*
X0017467Y0106706D01*
X0016900Y0106706D01*
X0016333Y0107273D01*
X0014919Y0107273D02*
X0014919Y0107840D01*
X0014351Y0108407D01*
X0013217Y0108407D01*
X0012650Y0108974D01*
X0012650Y0109541D01*
X0013217Y0110108D01*
X0014351Y0110108D01*
X0014919Y0109541D01*
X0014919Y0107273D02*
X0014351Y0106706D01*
X0013217Y0106706D01*
X0012650Y0107273D01*
X0013350Y0111906D02*
X0030350Y0111906D01*
X0030437Y0111908D01*
X0030524Y0111914D01*
X0030611Y0111923D01*
X0030697Y0111936D01*
X0030783Y0111953D01*
X0030868Y0111974D01*
X0030951Y0111999D01*
X0031034Y0112027D01*
X0031115Y0112058D01*
X0031195Y0112093D01*
X0031273Y0112132D01*
X0031350Y0112174D01*
X0031425Y0112219D01*
X0031497Y0112268D01*
X0031568Y0112319D01*
X0031636Y0112374D01*
X0031701Y0112431D01*
X0031764Y0112492D01*
X0031825Y0112555D01*
X0031882Y0112620D01*
X0031937Y0112688D01*
X0031988Y0112759D01*
X0032037Y0112831D01*
X0032082Y0112906D01*
X0032124Y0112983D01*
X0032163Y0113061D01*
X0032198Y0113141D01*
X0032229Y0113222D01*
X0032257Y0113305D01*
X0032282Y0113388D01*
X0032303Y0113473D01*
X0032320Y0113559D01*
X0032333Y0113645D01*
X0032342Y0113732D01*
X0032348Y0113819D01*
X0032350Y0113906D01*
X0032350Y0119906D01*
X0032348Y0119993D01*
X0032342Y0120080D01*
X0032333Y0120167D01*
X0032320Y0120253D01*
X0032303Y0120339D01*
X0032282Y0120424D01*
X0032257Y0120507D01*
X0032229Y0120590D01*
X0032198Y0120671D01*
X0032163Y0120751D01*
X0032124Y0120829D01*
X0032082Y0120906D01*
X0032037Y0120981D01*
X0031988Y0121053D01*
X0031937Y0121124D01*
X0031882Y0121192D01*
X0031825Y0121257D01*
X0031764Y0121320D01*
X0031701Y0121381D01*
X0031636Y0121438D01*
X0031568Y0121493D01*
X0031497Y0121544D01*
X0031425Y0121593D01*
X0031350Y0121638D01*
X0031273Y0121680D01*
X0031195Y0121719D01*
X0031115Y0121754D01*
X0031034Y0121785D01*
X0030951Y0121813D01*
X0030868Y0121838D01*
X0030783Y0121859D01*
X0030697Y0121876D01*
X0030611Y0121889D01*
X0030524Y0121898D01*
X0030437Y0121904D01*
X0030350Y0121906D01*
X0013350Y0121906D01*
X0013263Y0121904D01*
X0013176Y0121898D01*
X0013089Y0121889D01*
X0013003Y0121876D01*
X0012917Y0121859D01*
X0012832Y0121838D01*
X0012749Y0121813D01*
X0012666Y0121785D01*
X0012585Y0121754D01*
X0012505Y0121719D01*
X0012427Y0121680D01*
X0012350Y0121638D01*
X0012275Y0121593D01*
X0012203Y0121544D01*
X0012132Y0121493D01*
X0012064Y0121438D01*
X0011999Y0121381D01*
X0011936Y0121320D01*
X0011875Y0121257D01*
X0011818Y0121192D01*
X0011763Y0121124D01*
X0011712Y0121053D01*
X0011663Y0120981D01*
X0011618Y0120906D01*
X0011576Y0120829D01*
X0011537Y0120751D01*
X0011502Y0120671D01*
X0011471Y0120590D01*
X0011443Y0120507D01*
X0011418Y0120424D01*
X0011397Y0120339D01*
X0011380Y0120253D01*
X0011367Y0120167D01*
X0011358Y0120080D01*
X0011352Y0119993D01*
X0011350Y0119906D01*
X0011350Y0113906D01*
X0011352Y0113819D01*
X0011358Y0113732D01*
X0011367Y0113645D01*
X0011380Y0113559D01*
X0011397Y0113473D01*
X0011418Y0113388D01*
X0011443Y0113305D01*
X0011471Y0113222D01*
X0011502Y0113141D01*
X0011537Y0113061D01*
X0011576Y0112983D01*
X0011618Y0112906D01*
X0011663Y0112831D01*
X0011712Y0112759D01*
X0011763Y0112688D01*
X0011818Y0112620D01*
X0011875Y0112555D01*
X0011936Y0112492D01*
X0011999Y0112431D01*
X0012064Y0112374D01*
X0012132Y0112319D01*
X0012203Y0112268D01*
X0012275Y0112219D01*
X0012350Y0112174D01*
X0012427Y0112132D01*
X0012505Y0112093D01*
X0012585Y0112058D01*
X0012666Y0112027D01*
X0012749Y0111999D01*
X0012832Y0111974D01*
X0012917Y0111953D01*
X0013003Y0111936D01*
X0013089Y0111923D01*
X0013176Y0111914D01*
X0013263Y0111908D01*
X0013350Y0111906D01*
X0010108Y0131232D02*
X0010108Y0139303D01*
X0023887Y0139303D01*
X0023887Y0131232D01*
X0010108Y0131232D01*
X0013358Y0141331D02*
X0013358Y0143032D01*
X0013925Y0143599D01*
X0015059Y0143599D01*
X0015626Y0143032D01*
X0015626Y0141331D01*
X0015626Y0142465D02*
X0016760Y0143599D01*
X0016193Y0145014D02*
X0016760Y0145581D01*
X0016760Y0146715D01*
X0016193Y0147282D01*
X0013925Y0147282D01*
X0013358Y0146715D01*
X0013358Y0145581D01*
X0013925Y0145014D01*
X0014492Y0145014D01*
X0015059Y0145581D01*
X0015059Y0147282D01*
X0018197Y0148420D02*
X0018197Y0142712D01*
X0029615Y0142712D01*
X0029615Y0148420D01*
X0018197Y0148420D01*
X0020098Y0153906D02*
X0015098Y0153906D01*
X0010098Y0156406D01*
X0010098Y0161406D01*
X0015098Y0163906D01*
X0010098Y0166406D01*
X0010098Y0171406D01*
X0015098Y0173906D01*
X0020098Y0173906D01*
X0025098Y0171406D01*
X0025098Y0166406D01*
X0020098Y0163906D01*
X0025098Y0161406D01*
X0025098Y0156406D01*
X0020098Y0153906D01*
X0020098Y0163906D02*
X0015098Y0163906D01*
X0015098Y0173906D02*
X0010098Y0176406D01*
X0010098Y0181406D01*
X0015098Y0183906D01*
X0010098Y0186406D01*
X0010098Y0191406D01*
X0015098Y0193906D01*
X0020098Y0193906D01*
X0025098Y0191406D01*
X0025098Y0186406D01*
X0020098Y0183906D01*
X0025098Y0181406D01*
X0025098Y0176406D01*
X0020098Y0173906D01*
X0020098Y0183906D02*
X0015098Y0183906D01*
X0058061Y0186406D02*
X0063061Y0183906D01*
X0068061Y0183906D01*
X0073061Y0186406D01*
X0073061Y0191406D01*
X0068061Y0193906D01*
X0063061Y0193906D01*
X0058061Y0191406D01*
X0058061Y0186406D01*
X0058061Y0181406D02*
X0063061Y0183906D01*
X0068061Y0183906D02*
X0073061Y0181406D01*
X0073061Y0176406D01*
X0068061Y0173906D01*
X0073061Y0171406D01*
X0073061Y0166406D01*
X0068061Y0163906D01*
X0073061Y0161406D01*
X0073061Y0156406D01*
X0068061Y0153906D01*
X0063061Y0153906D01*
X0058061Y0156406D01*
X0058061Y0161406D01*
X0063061Y0163906D01*
X0058061Y0166406D01*
X0058061Y0171406D01*
X0063061Y0173906D01*
X0068061Y0173906D01*
X0063061Y0173906D02*
X0058061Y0176406D01*
X0058061Y0181406D01*
X0063061Y0163906D02*
X0068061Y0163906D01*
X0079252Y0152760D02*
X0090670Y0152760D01*
X0090670Y0147051D01*
X0079252Y0147051D01*
X0079252Y0152760D01*
X0083666Y0146108D02*
X0085368Y0146108D01*
X0085935Y0145541D01*
X0085935Y0144407D01*
X0085368Y0143840D01*
X0083666Y0143840D01*
X0083666Y0142706D02*
X0083666Y0146108D01*
X0084801Y0143840D02*
X0085935Y0142706D01*
X0087350Y0143273D02*
X0087350Y0143840D01*
X0087917Y0144407D01*
X0089051Y0144407D01*
X0089618Y0143840D01*
X0089618Y0143273D01*
X0089051Y0142706D01*
X0087917Y0142706D01*
X0087350Y0143273D01*
X0087917Y0144407D02*
X0087350Y0144974D01*
X0087350Y0145541D01*
X0087917Y0146108D01*
X0089051Y0146108D01*
X0089618Y0145541D01*
X0089618Y0144974D01*
X0089051Y0144407D01*
X0084878Y0140343D02*
X0084878Y0121446D01*
X0075822Y0121446D01*
X0075822Y0140343D01*
X0084878Y0140343D01*
X0093518Y0140648D02*
X0093518Y0136711D01*
X0093518Y0140648D02*
X0100407Y0147538D01*
X0126982Y0147538D01*
X0126982Y0136711D01*
X0128350Y0138173D02*
X0128917Y0137606D01*
X0130051Y0137606D01*
X0130619Y0138173D01*
X0132033Y0139307D02*
X0134302Y0139307D01*
X0133735Y0137606D02*
X0133735Y0141008D01*
X0132033Y0139307D01*
X0130619Y0140441D02*
X0130051Y0141008D01*
X0128917Y0141008D01*
X0128350Y0140441D01*
X0128350Y0138173D01*
X0128562Y0149531D02*
X0131965Y0151800D01*
X0131965Y0149531D02*
X0128562Y0151800D01*
X0128562Y0153215D02*
X0128562Y0155483D01*
X0128562Y0154349D02*
X0131965Y0154349D01*
X0131965Y0156898D02*
X0129696Y0156898D01*
X0128562Y0158032D01*
X0129696Y0159166D01*
X0131965Y0159166D01*
X0131965Y0160581D02*
X0131965Y0162850D01*
X0131965Y0164264D02*
X0131965Y0166533D01*
X0131965Y0165398D02*
X0128562Y0165398D01*
X0129696Y0164264D01*
X0127190Y0166580D02*
X0127190Y0150831D01*
X0118332Y0150831D01*
X0118332Y0166580D01*
X0127190Y0166580D01*
X0128562Y0160581D02*
X0131965Y0160581D01*
X0130264Y0159166D02*
X0130264Y0156898D01*
X0144176Y0161470D02*
X0144176Y0163171D01*
X0144743Y0163739D01*
X0145878Y0163739D01*
X0146445Y0163171D01*
X0146445Y0161470D01*
X0147579Y0161470D02*
X0144176Y0161470D01*
X0146445Y0162604D02*
X0147579Y0163739D01*
X0147012Y0165153D02*
X0147579Y0165720D01*
X0147579Y0166855D01*
X0147012Y0167422D01*
X0145878Y0167422D01*
X0145311Y0166855D01*
X0145311Y0166287D01*
X0145878Y0165153D01*
X0144176Y0165153D01*
X0144176Y0167422D01*
X0148896Y0169514D02*
X0154604Y0169514D01*
X0154604Y0158097D01*
X0148896Y0158097D01*
X0148896Y0169514D01*
X0146072Y0175106D02*
X0143803Y0175106D01*
X0143236Y0175673D01*
X0143236Y0176807D01*
X0143803Y0177374D01*
X0146072Y0177374D01*
X0146639Y0176807D01*
X0146639Y0175673D01*
X0146072Y0175106D01*
X0145505Y0176240D02*
X0146639Y0177374D01*
X0146639Y0178789D02*
X0146639Y0181057D01*
X0146639Y0179923D02*
X0143236Y0179923D01*
X0144370Y0178789D01*
X0161497Y0178937D02*
X0167403Y0178937D01*
X0164650Y0179037D02*
X0167212Y0184274D01*
X0161788Y0184274D01*
X0164650Y0179037D01*
X0164985Y0170808D02*
X0163284Y0170808D01*
X0163284Y0167406D01*
X0164985Y0167406D01*
X0165552Y0167973D01*
X0165552Y0170241D01*
X0164985Y0170808D01*
X0166967Y0169674D02*
X0168101Y0170808D01*
X0168101Y0167406D01*
X0166967Y0167406D02*
X0169235Y0167406D01*
X0171122Y0166642D02*
X0172297Y0166642D01*
X0179390Y0166642D01*
X0192382Y0166642D01*
X0219160Y0166642D01*
X0230178Y0166642D01*
X0230178Y0196169D01*
X0219160Y0196169D01*
X0192382Y0196169D01*
X0179390Y0196169D01*
X0172297Y0196169D01*
X0171122Y0196169D01*
X0171122Y0166642D01*
X0169004Y0164303D02*
X0163296Y0164303D01*
X0163296Y0152886D01*
X0169004Y0152886D01*
X0169004Y0164303D01*
X0171341Y0161771D02*
X0171341Y0156062D01*
X0182759Y0156062D01*
X0182759Y0161771D01*
X0171341Y0161771D01*
X0162050Y0161483D02*
X0161483Y0161483D01*
X0159214Y0163752D01*
X0158647Y0163752D01*
X0158647Y0161483D01*
X0159214Y0160068D02*
X0160349Y0160068D01*
X0160916Y0159501D01*
X0160916Y0157800D01*
X0162050Y0157800D02*
X0158647Y0157800D01*
X0158647Y0159501D01*
X0159214Y0160068D01*
X0160916Y0158934D02*
X0162050Y0160068D01*
X0169503Y0150557D02*
X0168936Y0149990D01*
X0168936Y0148856D01*
X0169503Y0148289D01*
X0169503Y0146874D02*
X0171772Y0146874D01*
X0172339Y0146307D01*
X0172339Y0145173D01*
X0171772Y0144606D01*
X0169503Y0144606D01*
X0168936Y0145173D01*
X0168936Y0146307D01*
X0169503Y0146874D01*
X0171205Y0145740D02*
X0172339Y0146874D01*
X0172339Y0148289D02*
X0170070Y0150557D01*
X0169503Y0150557D01*
X0172339Y0150557D02*
X0172339Y0148289D01*
X0173941Y0138671D02*
X0173941Y0132962D01*
X0185359Y0132962D01*
X0185359Y0138671D01*
X0173941Y0138671D01*
X0182458Y0131295D02*
X0183025Y0131863D01*
X0185294Y0129594D01*
X0185861Y0130161D01*
X0185861Y0131295D01*
X0185294Y0131863D01*
X0183025Y0131863D01*
X0182458Y0131295D02*
X0182458Y0130161D01*
X0183025Y0129594D01*
X0185294Y0129594D01*
X0198922Y0135242D02*
X0200097Y0135242D01*
X0207190Y0135242D01*
X0220182Y0135242D01*
X0246960Y0135242D01*
X0257978Y0135242D01*
X0257978Y0164769D01*
X0246960Y0164769D01*
X0220182Y0164769D01*
X0207190Y0164769D01*
X0200097Y0164769D01*
X0198922Y0164769D01*
X0198922Y0135242D01*
X0211947Y0141606D02*
X0211947Y0143307D01*
X0212514Y0143874D01*
X0213649Y0143874D01*
X0214216Y0143307D01*
X0214216Y0141606D01*
X0214216Y0142740D02*
X0215350Y0143874D01*
X0215350Y0145289D02*
X0211947Y0145289D01*
X0215350Y0145289D02*
X0215350Y0147557D01*
X0213649Y0148972D02*
X0213649Y0151240D01*
X0212514Y0152655D02*
X0213649Y0153789D01*
X0215350Y0153789D01*
X0213649Y0153789D02*
X0212514Y0154924D01*
X0211947Y0154924D01*
X0212514Y0156338D02*
X0211947Y0156905D01*
X0211947Y0158040D01*
X0212514Y0158607D01*
X0213081Y0158607D01*
X0215350Y0156338D01*
X0215350Y0158607D01*
X0212514Y0152655D02*
X0211947Y0152655D01*
X0211947Y0141606D02*
X0215350Y0141606D01*
X0214583Y0125324D02*
X0213449Y0125324D01*
X0213449Y0124189D01*
X0214583Y0123055D02*
X0212314Y0123055D01*
X0211747Y0123622D01*
X0211747Y0124756D01*
X0212314Y0125324D01*
X0214583Y0125324D02*
X0215150Y0124756D01*
X0215150Y0123622D01*
X0214583Y0123055D01*
X0213449Y0121640D02*
X0213449Y0119372D01*
X0215150Y0117957D02*
X0215150Y0115689D01*
X0211747Y0115689D01*
X0212314Y0114274D02*
X0213449Y0114274D01*
X0214016Y0113707D01*
X0214016Y0112006D01*
X0214016Y0113140D02*
X0215150Y0114274D01*
X0215150Y0112006D02*
X0211747Y0112006D01*
X0211747Y0113707D01*
X0212314Y0114274D01*
X0218150Y0094507D02*
X0218150Y0092238D01*
X0218150Y0093372D02*
X0214747Y0093372D01*
X0215881Y0092238D01*
X0214747Y0090824D02*
X0218150Y0090824D01*
X0217016Y0089689D01*
X0218150Y0088555D01*
X0214747Y0088555D01*
X0216449Y0087140D02*
X0216449Y0084872D01*
X0218150Y0083457D02*
X0218150Y0081189D01*
X0214747Y0081189D01*
X0215314Y0079774D02*
X0216449Y0079774D01*
X0217016Y0079207D01*
X0217016Y0077506D01*
X0217016Y0078640D02*
X0218150Y0079774D01*
X0218150Y0077506D02*
X0214747Y0077506D01*
X0214747Y0079207D01*
X0215314Y0079774D01*
X0214481Y0064107D02*
X0213914Y0064107D01*
X0213347Y0063540D01*
X0214481Y0064107D02*
X0216750Y0061838D01*
X0216750Y0064107D01*
X0260028Y0041502D02*
X0307272Y0041502D01*
X0307272Y0185203D01*
X0260028Y0185203D01*
X0260028Y0041502D01*
X0278588Y0039349D02*
X0280857Y0039349D01*
X0279722Y0039349D02*
X0279722Y0035946D01*
X0282271Y0035946D02*
X0283973Y0035946D01*
X0284540Y0036514D01*
X0284540Y0037081D01*
X0283973Y0037648D01*
X0282271Y0037648D01*
X0282271Y0039349D02*
X0283973Y0039349D01*
X0284540Y0038782D01*
X0284540Y0038215D01*
X0283973Y0037648D01*
X0285954Y0038215D02*
X0287089Y0039349D01*
X0287089Y0035946D01*
X0288223Y0035946D02*
X0285954Y0035946D01*
X0282271Y0035946D02*
X0282271Y0039349D01*
X0278551Y0052506D02*
X0276850Y0052506D01*
X0276850Y0055908D01*
X0278551Y0055908D01*
X0279119Y0055341D01*
X0279119Y0054774D01*
X0278551Y0054207D01*
X0276850Y0054207D01*
X0278551Y0054207D02*
X0279119Y0053640D01*
X0279119Y0053073D01*
X0278551Y0052506D01*
X0293417Y0074206D02*
X0294551Y0074206D01*
X0295119Y0074773D01*
X0295119Y0077041D01*
X0294551Y0077608D01*
X0293417Y0077608D01*
X0292850Y0077041D01*
X0292850Y0074773D01*
X0293417Y0074206D01*
X0302188Y0077736D02*
X0302188Y0080005D01*
X0302188Y0078871D02*
X0305591Y0078871D01*
X0305591Y0081419D02*
X0302188Y0081419D01*
X0303889Y0081419D02*
X0303889Y0083688D01*
X0303889Y0085103D02*
X0303889Y0086237D01*
X0302188Y0087371D02*
X0302188Y0085103D01*
X0305591Y0085103D01*
X0305591Y0087371D01*
X0305591Y0088786D02*
X0302188Y0088786D01*
X0302188Y0090487D01*
X0302755Y0091054D01*
X0303889Y0091054D01*
X0304457Y0090487D01*
X0304457Y0088786D01*
X0304457Y0089920D02*
X0305591Y0091054D01*
X0305591Y0092469D02*
X0302188Y0092469D01*
X0303322Y0093603D01*
X0302188Y0094737D01*
X0305591Y0094737D01*
X0305024Y0096152D02*
X0302755Y0096152D01*
X0302188Y0096719D01*
X0302188Y0097853D01*
X0302755Y0098421D01*
X0305024Y0098421D01*
X0305591Y0097853D01*
X0305591Y0096719D01*
X0305024Y0096152D01*
X0305024Y0099835D02*
X0305591Y0100402D01*
X0305591Y0101537D01*
X0305024Y0102104D01*
X0304457Y0102104D01*
X0303889Y0101537D01*
X0303889Y0100402D01*
X0303322Y0099835D01*
X0302755Y0099835D01*
X0302188Y0100402D01*
X0302188Y0101537D01*
X0302755Y0102104D01*
X0302188Y0103518D02*
X0302188Y0105787D01*
X0302188Y0104653D02*
X0305591Y0104653D01*
X0305591Y0107201D02*
X0303322Y0107201D01*
X0302188Y0108336D01*
X0303322Y0109470D01*
X0305591Y0109470D01*
X0303889Y0109470D02*
X0303889Y0107201D01*
X0298502Y0104941D02*
X0297935Y0105508D01*
X0296800Y0105508D01*
X0296233Y0104941D01*
X0294819Y0105508D02*
X0294819Y0102106D01*
X0293684Y0103240D01*
X0292550Y0102106D01*
X0292550Y0105508D01*
X0296233Y0102106D02*
X0298502Y0104374D01*
X0298502Y0104941D01*
X0298502Y0102106D02*
X0296233Y0102106D01*
X0302188Y0110885D02*
X0302188Y0113153D01*
X0302188Y0112019D02*
X0305591Y0112019D01*
X0303889Y0114568D02*
X0303889Y0116836D01*
X0303889Y0118251D02*
X0303889Y0120519D01*
X0302188Y0120519D02*
X0305591Y0120519D01*
X0305024Y0121934D02*
X0302755Y0121934D01*
X0302188Y0122501D01*
X0302188Y0123635D01*
X0302755Y0124203D01*
X0305024Y0124203D01*
X0305591Y0123635D01*
X0305591Y0122501D01*
X0305024Y0121934D01*
X0305024Y0125617D02*
X0302755Y0125617D01*
X0302188Y0126184D01*
X0302188Y0127319D01*
X0302755Y0127886D01*
X0305024Y0127886D01*
X0305591Y0127319D01*
X0305591Y0126184D01*
X0305024Y0125617D01*
X0305591Y0129300D02*
X0302188Y0129300D01*
X0303889Y0129867D02*
X0305591Y0131569D01*
X0305024Y0132983D02*
X0305591Y0133551D01*
X0305591Y0134685D01*
X0305024Y0135252D01*
X0302188Y0135252D01*
X0302188Y0136667D02*
X0302188Y0138368D01*
X0302755Y0138935D01*
X0303889Y0138935D01*
X0304457Y0138368D01*
X0304457Y0136667D01*
X0305591Y0136667D02*
X0302188Y0136667D01*
X0302188Y0132983D02*
X0305024Y0132983D01*
X0302188Y0131569D02*
X0304457Y0129300D01*
X0297019Y0129707D02*
X0297019Y0128573D01*
X0296451Y0128006D01*
X0295317Y0128006D01*
X0294750Y0128573D01*
X0294750Y0130841D01*
X0295317Y0131408D01*
X0296451Y0131408D01*
X0297019Y0130841D01*
X0297019Y0129707D02*
X0295884Y0129707D01*
X0302188Y0118251D02*
X0305591Y0118251D01*
X0282802Y0108106D02*
X0280533Y0108106D01*
X0281667Y0108106D02*
X0281667Y0111508D01*
X0280533Y0110374D01*
X0279119Y0111508D02*
X0279119Y0108106D01*
X0277984Y0109240D01*
X0276850Y0108106D01*
X0276850Y0111508D01*
X0277884Y0135706D02*
X0277884Y0137407D01*
X0279019Y0138541D01*
X0279019Y0139108D01*
X0280433Y0138541D02*
X0281000Y0139108D01*
X0282135Y0139108D01*
X0282702Y0138541D01*
X0282702Y0137974D01*
X0280433Y0135706D01*
X0282702Y0135706D01*
X0277884Y0137407D02*
X0276750Y0138541D01*
X0276750Y0139108D01*
X0296984Y0149806D02*
X0296984Y0151507D01*
X0298119Y0152641D01*
X0298119Y0153208D01*
X0299533Y0152074D02*
X0300667Y0153208D01*
X0300667Y0149806D01*
X0299533Y0149806D02*
X0301802Y0149806D01*
X0296984Y0151507D02*
X0295850Y0152641D01*
X0295850Y0153208D01*
X0278819Y0163606D02*
X0277684Y0164740D01*
X0278251Y0164740D02*
X0276550Y0164740D01*
X0276550Y0163606D02*
X0276550Y0167008D01*
X0278251Y0167008D01*
X0278819Y0166441D01*
X0278819Y0165307D01*
X0278251Y0164740D01*
X0296150Y0175873D02*
X0296150Y0178141D01*
X0296717Y0178708D01*
X0297851Y0178708D01*
X0298419Y0178141D01*
X0298419Y0175873D02*
X0297851Y0175306D01*
X0296717Y0175306D01*
X0296150Y0175873D01*
X0302399Y0189078D02*
X0283501Y0189078D01*
X0283501Y0198133D01*
X0302399Y0198133D01*
X0302399Y0189078D01*
X0281694Y0187294D02*
X0278291Y0187294D01*
X0278291Y0188995D01*
X0278858Y0189562D01*
X0279993Y0189562D01*
X0280560Y0188995D01*
X0280560Y0187294D01*
X0278291Y0190977D02*
X0278291Y0193245D01*
X0278291Y0192111D02*
X0281694Y0192111D01*
X0281127Y0194660D02*
X0278858Y0194660D01*
X0278291Y0195227D01*
X0278291Y0196361D01*
X0278858Y0196929D01*
X0279425Y0198343D02*
X0278291Y0199477D01*
X0281694Y0199477D01*
X0281694Y0198343D02*
X0281694Y0200612D01*
X0281127Y0196929D02*
X0281694Y0196361D01*
X0281694Y0195227D01*
X0281127Y0194660D01*
X0272600Y0201902D02*
X0272600Y0203603D01*
X0272033Y0204170D01*
X0271466Y0204170D01*
X0270899Y0203603D01*
X0270899Y0201902D01*
X0270899Y0203603D02*
X0270332Y0204170D01*
X0269764Y0204170D01*
X0269197Y0203603D01*
X0269197Y0201902D01*
X0272600Y0201902D01*
X0272600Y0205585D02*
X0269197Y0205585D01*
X0269197Y0207286D01*
X0269764Y0207854D01*
X0270899Y0207854D01*
X0271466Y0207286D01*
X0271466Y0205585D01*
X0271466Y0206719D02*
X0272600Y0207854D01*
X0272600Y0209268D02*
X0272600Y0211537D01*
X0272600Y0210402D02*
X0269197Y0210402D01*
X0270332Y0209268D01*
X0263277Y0213768D02*
X0261008Y0213768D01*
X0259874Y0214902D01*
X0261008Y0216036D01*
X0263277Y0216036D01*
X0262710Y0217451D02*
X0260441Y0217451D01*
X0259874Y0218018D01*
X0259874Y0219152D01*
X0260441Y0219720D01*
X0262710Y0219720D02*
X0263277Y0219152D01*
X0263277Y0218018D01*
X0262710Y0217451D01*
X0261575Y0216036D02*
X0261575Y0213768D01*
X0265372Y0222610D02*
X0265372Y0190326D01*
X0241782Y0190326D01*
X0241782Y0222610D01*
X0265372Y0222610D01*
X0267372Y0222610D01*
X0267372Y0190326D01*
X0265372Y0190326D01*
X0267372Y0190326D02*
X0267372Y0222610D01*
X0246710Y0216902D02*
X0244441Y0216902D01*
X0245575Y0215768D02*
X0245575Y0218036D01*
X0231876Y0215930D02*
X0231876Y0213661D01*
X0231876Y0214796D02*
X0228473Y0214796D01*
X0229607Y0213661D01*
X0229040Y0212247D02*
X0228473Y0211680D01*
X0228473Y0210545D01*
X0229040Y0209978D01*
X0229607Y0209978D01*
X0230175Y0210545D01*
X0230175Y0211680D01*
X0230742Y0212247D01*
X0231309Y0212247D01*
X0231876Y0211680D01*
X0231876Y0210545D01*
X0231309Y0209978D01*
X0230742Y0208564D02*
X0228473Y0208564D01*
X0230742Y0208564D02*
X0231876Y0207429D01*
X0230742Y0206295D01*
X0228473Y0206295D01*
X0228473Y0204880D02*
X0228473Y0202612D01*
X0228473Y0203746D02*
X0231876Y0203746D01*
X0232347Y0191937D02*
X0232347Y0188534D01*
X0234896Y0189101D02*
X0234896Y0191370D01*
X0235463Y0191937D01*
X0236597Y0191937D01*
X0237164Y0191370D01*
X0238579Y0191370D02*
X0239146Y0191937D01*
X0240280Y0191937D01*
X0240847Y0191370D01*
X0240847Y0190802D01*
X0238579Y0188534D01*
X0240847Y0188534D01*
X0243578Y0187054D02*
X0243578Y0168157D01*
X0234522Y0168157D01*
X0234522Y0187054D01*
X0243578Y0187054D01*
X0246422Y0187054D02*
X0246422Y0168157D01*
X0255478Y0168157D01*
X0255478Y0187054D01*
X0246422Y0187054D01*
X0247038Y0188461D02*
X0247038Y0191864D01*
X0248740Y0191864D01*
X0249307Y0191297D01*
X0249307Y0190163D01*
X0248740Y0189596D01*
X0247038Y0189596D01*
X0250721Y0191864D02*
X0252990Y0191864D01*
X0251856Y0191864D02*
X0251856Y0188461D01*
X0254404Y0189029D02*
X0254972Y0188461D01*
X0256106Y0188461D01*
X0256673Y0189029D01*
X0258088Y0189029D02*
X0258655Y0188461D01*
X0259789Y0188461D01*
X0260356Y0189029D01*
X0260356Y0189596D01*
X0259789Y0190163D01*
X0259222Y0190163D01*
X0259789Y0190163D02*
X0260356Y0190730D01*
X0260356Y0191297D01*
X0259789Y0191864D01*
X0258655Y0191864D01*
X0258088Y0191297D01*
X0256673Y0191297D02*
X0256106Y0191864D01*
X0254972Y0191864D01*
X0254404Y0191297D01*
X0254404Y0189029D01*
X0259874Y0194902D02*
X0261008Y0193768D01*
X0263277Y0193768D01*
X0261575Y0193768D02*
X0261575Y0196036D01*
X0261008Y0196036D02*
X0263277Y0196036D01*
X0262710Y0197451D02*
X0260441Y0197451D01*
X0259874Y0198018D01*
X0259874Y0199152D01*
X0260441Y0199720D01*
X0262710Y0199720D02*
X0263277Y0199152D01*
X0263277Y0198018D01*
X0262710Y0197451D01*
X0261008Y0196036D02*
X0259874Y0194902D01*
X0246575Y0194768D02*
X0246575Y0197036D01*
X0237164Y0189101D02*
X0236597Y0188534D01*
X0235463Y0188534D01*
X0234896Y0189101D01*
X0233481Y0191937D02*
X0231212Y0191937D01*
X0229798Y0191370D02*
X0229798Y0190235D01*
X0229231Y0189668D01*
X0227529Y0189668D01*
X0227529Y0188534D02*
X0227529Y0191937D01*
X0229231Y0191937D01*
X0229798Y0191370D01*
X0217502Y0200046D02*
X0214099Y0200046D01*
X0214099Y0198912D02*
X0214099Y0201180D01*
X0214099Y0202595D02*
X0216368Y0202595D01*
X0217502Y0203729D01*
X0216368Y0204864D01*
X0214099Y0204864D01*
X0214666Y0206278D02*
X0214099Y0206845D01*
X0214099Y0207980D01*
X0214666Y0208547D01*
X0215801Y0207980D02*
X0216368Y0208547D01*
X0216935Y0208547D01*
X0217502Y0207980D01*
X0217502Y0206845D01*
X0216935Y0206278D01*
X0215801Y0206845D02*
X0215801Y0207980D01*
X0215801Y0206845D02*
X0215233Y0206278D01*
X0214666Y0206278D01*
X0215801Y0209961D02*
X0215801Y0212230D01*
X0215801Y0213644D02*
X0215801Y0215913D01*
X0215801Y0217328D02*
X0215233Y0218462D01*
X0215233Y0219029D01*
X0215801Y0219596D01*
X0216935Y0219596D01*
X0217502Y0219029D01*
X0217502Y0217895D01*
X0216935Y0217328D01*
X0215801Y0217328D02*
X0214099Y0217328D01*
X0214099Y0219596D01*
X0214099Y0221011D02*
X0216368Y0221011D01*
X0217502Y0222145D01*
X0216368Y0223279D01*
X0214099Y0223279D01*
X0210984Y0221098D02*
X0210984Y0206098D01*
X0208484Y0203598D01*
X0203484Y0203598D01*
X0200984Y0206098D01*
X0200984Y0221098D01*
X0203484Y0223598D01*
X0208484Y0223598D01*
X0210984Y0221098D01*
X0214099Y0215346D02*
X0215801Y0213644D01*
X0217502Y0215346D02*
X0214099Y0215346D01*
X0200984Y0221098D02*
X0198484Y0223598D01*
X0193484Y0223598D01*
X0190984Y0221098D01*
X0190984Y0206098D01*
X0188484Y0203598D01*
X0183484Y0203598D01*
X0180984Y0206098D01*
X0180984Y0221098D01*
X0183484Y0223598D01*
X0188484Y0223598D01*
X0190984Y0221098D01*
X0180984Y0221098D02*
X0178484Y0223598D01*
X0173484Y0223598D01*
X0170984Y0221098D01*
X0170984Y0206098D01*
X0168484Y0203598D01*
X0163484Y0203598D01*
X0160984Y0206098D01*
X0160984Y0221098D01*
X0163484Y0223598D01*
X0168484Y0223598D01*
X0170984Y0221098D01*
X0160984Y0221098D02*
X0158484Y0223598D01*
X0153484Y0223598D01*
X0150984Y0221098D01*
X0150984Y0206098D01*
X0148484Y0203598D01*
X0143484Y0203598D01*
X0140984Y0206098D01*
X0140984Y0221098D01*
X0143484Y0223598D01*
X0148484Y0223598D01*
X0150984Y0221098D01*
X0140984Y0221098D02*
X0138484Y0223598D01*
X0133484Y0223598D01*
X0130984Y0221098D01*
X0130984Y0206098D01*
X0133484Y0203598D01*
X0138484Y0203598D01*
X0140984Y0206098D01*
X0133761Y0200263D02*
X0133761Y0197994D01*
X0133761Y0199128D02*
X0130358Y0199128D01*
X0131492Y0197994D01*
X0130925Y0196579D02*
X0132060Y0196579D01*
X0132627Y0196012D01*
X0132627Y0194311D01*
X0133761Y0194311D02*
X0130358Y0194311D01*
X0130358Y0196012D01*
X0130925Y0196579D01*
X0132627Y0195445D02*
X0133761Y0196579D01*
X0135141Y0197949D02*
X0146559Y0197949D01*
X0146559Y0192240D01*
X0135141Y0192240D01*
X0135141Y0197949D01*
X0128484Y0203598D02*
X0130984Y0206098D01*
X0128484Y0203598D02*
X0123484Y0203598D01*
X0120984Y0206098D01*
X0120984Y0221098D01*
X0123484Y0223598D01*
X0128484Y0223598D01*
X0130984Y0221098D01*
X0120984Y0221098D02*
X0118484Y0223598D01*
X0113484Y0223598D01*
X0110984Y0221098D01*
X0110984Y0206098D01*
X0113484Y0203598D01*
X0118484Y0203598D01*
X0120984Y0206098D01*
X0110984Y0206098D02*
X0108484Y0203598D01*
X0103484Y0203598D01*
X0100984Y0206098D01*
X0100984Y0221098D01*
X0103484Y0223598D01*
X0108484Y0223598D01*
X0110984Y0221098D01*
X0100984Y0221098D02*
X0098484Y0223598D01*
X0093484Y0223598D01*
X0090984Y0221098D01*
X0090984Y0206098D01*
X0093484Y0203598D01*
X0098484Y0203598D01*
X0100984Y0206098D01*
X0098802Y0199666D02*
X0093093Y0199666D01*
X0093093Y0188249D01*
X0098802Y0188249D01*
X0098802Y0199666D01*
X0103207Y0199614D02*
X0108915Y0199614D01*
X0108915Y0188197D01*
X0103207Y0188197D01*
X0103207Y0199614D01*
X0091385Y0198598D02*
X0089116Y0198598D01*
X0090251Y0198598D02*
X0090251Y0202001D01*
X0089116Y0200867D01*
X0087702Y0202001D02*
X0087702Y0198598D01*
X0085433Y0202001D01*
X0085433Y0198598D01*
X0084019Y0198598D02*
X0084019Y0202001D01*
X0083484Y0203598D02*
X0088484Y0203598D01*
X0090984Y0206098D01*
X0083484Y0203598D02*
X0080984Y0206098D01*
X0080984Y0221098D01*
X0083484Y0223598D01*
X0088484Y0223598D01*
X0090984Y0221098D01*
X0081750Y0202001D02*
X0084019Y0198598D01*
X0081750Y0198598D02*
X0081750Y0202001D01*
X0080336Y0201434D02*
X0080336Y0199166D01*
X0079768Y0198598D01*
X0078634Y0198598D01*
X0078067Y0199166D01*
X0078067Y0201434D01*
X0078634Y0202001D01*
X0079768Y0202001D01*
X0080336Y0201434D01*
X0076652Y0201434D02*
X0076085Y0202001D01*
X0074951Y0202001D01*
X0074384Y0201434D01*
X0074384Y0199166D01*
X0074951Y0198598D01*
X0076085Y0198598D01*
X0076652Y0199166D01*
X0089903Y0186406D02*
X0091605Y0186406D01*
X0092172Y0185839D01*
X0092172Y0184704D01*
X0091605Y0184137D01*
X0089903Y0184137D01*
X0089903Y0183003D02*
X0089903Y0186406D01*
X0091038Y0184137D02*
X0092172Y0183003D01*
X0093587Y0183570D02*
X0094154Y0183003D01*
X0095288Y0183003D01*
X0095855Y0183570D01*
X0095855Y0184137D01*
X0095288Y0184704D01*
X0094721Y0184704D01*
X0095288Y0184704D02*
X0095855Y0185271D01*
X0095855Y0185839D01*
X0095288Y0186406D01*
X0094154Y0186406D01*
X0093587Y0185839D01*
X0101578Y0186897D02*
X0101578Y0183494D01*
X0101578Y0184629D02*
X0103280Y0184629D01*
X0103847Y0185196D01*
X0103847Y0186330D01*
X0103280Y0186897D01*
X0101578Y0186897D01*
X0102713Y0184629D02*
X0103847Y0183494D01*
X0105261Y0185196D02*
X0107530Y0185196D01*
X0106963Y0186897D02*
X0105261Y0185196D01*
X0106963Y0183494D02*
X0106963Y0186897D01*
X0107054Y0176706D02*
X0093668Y0176706D01*
X0093668Y0156706D01*
X0107054Y0156706D01*
X0107054Y0176706D01*
X0102461Y0159706D02*
X0102463Y0159783D01*
X0102469Y0159860D01*
X0102479Y0159937D01*
X0102493Y0160013D01*
X0102510Y0160088D01*
X0102532Y0160162D01*
X0102557Y0160235D01*
X0102587Y0160307D01*
X0102619Y0160377D01*
X0102656Y0160445D01*
X0102695Y0160511D01*
X0102738Y0160575D01*
X0102785Y0160637D01*
X0102834Y0160696D01*
X0102887Y0160753D01*
X0102942Y0160807D01*
X0103000Y0160858D01*
X0103061Y0160906D01*
X0103124Y0160951D01*
X0103189Y0160992D01*
X0103256Y0161030D01*
X0103325Y0161065D01*
X0103396Y0161095D01*
X0103468Y0161123D01*
X0103542Y0161146D01*
X0103616Y0161166D01*
X0103692Y0161182D01*
X0103768Y0161194D01*
X0103845Y0161202D01*
X0103922Y0161206D01*
X0104000Y0161206D01*
X0104077Y0161202D01*
X0104154Y0161194D01*
X0104230Y0161182D01*
X0104306Y0161166D01*
X0104380Y0161146D01*
X0104454Y0161123D01*
X0104526Y0161095D01*
X0104597Y0161065D01*
X0104666Y0161030D01*
X0104733Y0160992D01*
X0104798Y0160951D01*
X0104861Y0160906D01*
X0104922Y0160858D01*
X0104980Y0160807D01*
X0105035Y0160753D01*
X0105088Y0160696D01*
X0105137Y0160637D01*
X0105184Y0160575D01*
X0105227Y0160511D01*
X0105266Y0160445D01*
X0105303Y0160377D01*
X0105335Y0160307D01*
X0105365Y0160235D01*
X0105390Y0160162D01*
X0105412Y0160088D01*
X0105429Y0160013D01*
X0105443Y0159937D01*
X0105453Y0159860D01*
X0105459Y0159783D01*
X0105461Y0159706D01*
X0105459Y0159629D01*
X0105453Y0159552D01*
X0105443Y0159475D01*
X0105429Y0159399D01*
X0105412Y0159324D01*
X0105390Y0159250D01*
X0105365Y0159177D01*
X0105335Y0159105D01*
X0105303Y0159035D01*
X0105266Y0158967D01*
X0105227Y0158901D01*
X0105184Y0158837D01*
X0105137Y0158775D01*
X0105088Y0158716D01*
X0105035Y0158659D01*
X0104980Y0158605D01*
X0104922Y0158554D01*
X0104861Y0158506D01*
X0104798Y0158461D01*
X0104733Y0158420D01*
X0104666Y0158382D01*
X0104597Y0158347D01*
X0104526Y0158317D01*
X0104454Y0158289D01*
X0104380Y0158266D01*
X0104306Y0158246D01*
X0104230Y0158230D01*
X0104154Y0158218D01*
X0104077Y0158210D01*
X0104000Y0158206D01*
X0103922Y0158206D01*
X0103845Y0158210D01*
X0103768Y0158218D01*
X0103692Y0158230D01*
X0103616Y0158246D01*
X0103542Y0158266D01*
X0103468Y0158289D01*
X0103396Y0158317D01*
X0103325Y0158347D01*
X0103256Y0158382D01*
X0103189Y0158420D01*
X0103124Y0158461D01*
X0103061Y0158506D01*
X0103000Y0158554D01*
X0102942Y0158605D01*
X0102887Y0158659D01*
X0102834Y0158716D01*
X0102785Y0158775D01*
X0102738Y0158837D01*
X0102695Y0158901D01*
X0102656Y0158967D01*
X0102619Y0159035D01*
X0102587Y0159105D01*
X0102557Y0159177D01*
X0102532Y0159250D01*
X0102510Y0159324D01*
X0102493Y0159399D01*
X0102479Y0159475D01*
X0102469Y0159552D01*
X0102463Y0159629D01*
X0102461Y0159706D01*
X0101512Y0155208D02*
X0101512Y0151806D01*
X0100378Y0151806D02*
X0102646Y0151806D01*
X0100378Y0154074D02*
X0101512Y0155208D01*
X0098963Y0154641D02*
X0098396Y0155208D01*
X0097262Y0155208D01*
X0096694Y0154641D01*
X0096694Y0152373D01*
X0097262Y0151806D01*
X0098396Y0151806D01*
X0098963Y0152373D01*
X0095373Y0151806D02*
X0094239Y0151806D01*
X0094806Y0151806D02*
X0094806Y0155208D01*
X0094239Y0155208D02*
X0095373Y0155208D01*
X0100250Y0142806D02*
X0100250Y0138806D01*
X0098250Y0140806D02*
X0102250Y0140806D01*
X0074094Y0129689D02*
X0074094Y0128555D01*
X0073527Y0127988D01*
X0073527Y0126573D02*
X0074094Y0126006D01*
X0074094Y0124872D01*
X0073527Y0124305D01*
X0071258Y0124305D01*
X0070691Y0124872D01*
X0070691Y0126006D01*
X0071258Y0126573D01*
X0071258Y0127988D02*
X0070691Y0128555D01*
X0070691Y0129689D01*
X0071258Y0130256D01*
X0071825Y0130256D01*
X0072393Y0129689D01*
X0072960Y0130256D01*
X0073527Y0130256D01*
X0074094Y0129689D01*
X0072393Y0129689D02*
X0072393Y0129122D01*
X0069574Y0134716D02*
X0061504Y0134716D01*
X0061504Y0148495D01*
X0069574Y0148495D01*
X0069574Y0134716D01*
X0059632Y0139242D02*
X0059632Y0140376D01*
X0059065Y0140943D01*
X0059632Y0142358D02*
X0059632Y0144627D01*
X0059632Y0143492D02*
X0056229Y0143492D01*
X0057363Y0142358D01*
X0056796Y0140943D02*
X0056229Y0140376D01*
X0056229Y0139242D01*
X0056796Y0138675D01*
X0059065Y0138675D01*
X0059632Y0139242D01*
X0058785Y0120853D02*
X0057650Y0120853D01*
X0057083Y0120286D01*
X0057083Y0118018D01*
X0057650Y0117450D01*
X0058785Y0117450D01*
X0059352Y0118018D01*
X0060766Y0118018D02*
X0061333Y0117450D01*
X0062468Y0117450D01*
X0063035Y0118018D01*
X0063035Y0119152D01*
X0062468Y0119719D01*
X0061901Y0119719D01*
X0060766Y0119152D01*
X0060766Y0120853D01*
X0063035Y0120853D01*
X0059352Y0120286D02*
X0058785Y0120853D01*
X0056899Y0115959D02*
X0064970Y0115959D01*
X0064970Y0102180D01*
X0056899Y0102180D01*
X0056899Y0115959D01*
X0072950Y0112506D02*
X0072952Y0112583D01*
X0072958Y0112660D01*
X0072968Y0112737D01*
X0072982Y0112813D01*
X0072999Y0112888D01*
X0073021Y0112962D01*
X0073046Y0113035D01*
X0073076Y0113107D01*
X0073108Y0113177D01*
X0073145Y0113245D01*
X0073184Y0113311D01*
X0073227Y0113375D01*
X0073274Y0113437D01*
X0073323Y0113496D01*
X0073376Y0113553D01*
X0073431Y0113607D01*
X0073489Y0113658D01*
X0073550Y0113706D01*
X0073613Y0113751D01*
X0073678Y0113792D01*
X0073745Y0113830D01*
X0073814Y0113865D01*
X0073885Y0113895D01*
X0073957Y0113923D01*
X0074031Y0113946D01*
X0074105Y0113966D01*
X0074181Y0113982D01*
X0074257Y0113994D01*
X0074334Y0114002D01*
X0074411Y0114006D01*
X0074489Y0114006D01*
X0074566Y0114002D01*
X0074643Y0113994D01*
X0074719Y0113982D01*
X0074795Y0113966D01*
X0074869Y0113946D01*
X0074943Y0113923D01*
X0075015Y0113895D01*
X0075086Y0113865D01*
X0075155Y0113830D01*
X0075222Y0113792D01*
X0075287Y0113751D01*
X0075350Y0113706D01*
X0075411Y0113658D01*
X0075469Y0113607D01*
X0075524Y0113553D01*
X0075577Y0113496D01*
X0075626Y0113437D01*
X0075673Y0113375D01*
X0075716Y0113311D01*
X0075755Y0113245D01*
X0075792Y0113177D01*
X0075824Y0113107D01*
X0075854Y0113035D01*
X0075879Y0112962D01*
X0075901Y0112888D01*
X0075918Y0112813D01*
X0075932Y0112737D01*
X0075942Y0112660D01*
X0075948Y0112583D01*
X0075950Y0112506D01*
X0075948Y0112429D01*
X0075942Y0112352D01*
X0075932Y0112275D01*
X0075918Y0112199D01*
X0075901Y0112124D01*
X0075879Y0112050D01*
X0075854Y0111977D01*
X0075824Y0111905D01*
X0075792Y0111835D01*
X0075755Y0111767D01*
X0075716Y0111701D01*
X0075673Y0111637D01*
X0075626Y0111575D01*
X0075577Y0111516D01*
X0075524Y0111459D01*
X0075469Y0111405D01*
X0075411Y0111354D01*
X0075350Y0111306D01*
X0075287Y0111261D01*
X0075222Y0111220D01*
X0075155Y0111182D01*
X0075086Y0111147D01*
X0075015Y0111117D01*
X0074943Y0111089D01*
X0074869Y0111066D01*
X0074795Y0111046D01*
X0074719Y0111030D01*
X0074643Y0111018D01*
X0074566Y0111010D01*
X0074489Y0111006D01*
X0074411Y0111006D01*
X0074334Y0111010D01*
X0074257Y0111018D01*
X0074181Y0111030D01*
X0074105Y0111046D01*
X0074031Y0111066D01*
X0073957Y0111089D01*
X0073885Y0111117D01*
X0073814Y0111147D01*
X0073745Y0111182D01*
X0073678Y0111220D01*
X0073613Y0111261D01*
X0073550Y0111306D01*
X0073489Y0111354D01*
X0073431Y0111405D01*
X0073376Y0111459D01*
X0073323Y0111516D01*
X0073274Y0111575D01*
X0073227Y0111637D01*
X0073184Y0111701D01*
X0073145Y0111767D01*
X0073108Y0111835D01*
X0073076Y0111905D01*
X0073046Y0111977D01*
X0073021Y0112050D01*
X0072999Y0112124D01*
X0072982Y0112199D01*
X0072968Y0112275D01*
X0072958Y0112352D01*
X0072952Y0112429D01*
X0072950Y0112506D01*
X0077850Y0111306D02*
X0078984Y0111306D01*
X0078417Y0111306D02*
X0078417Y0114708D01*
X0077850Y0114708D02*
X0078984Y0114708D01*
X0080305Y0114141D02*
X0080305Y0111873D01*
X0080873Y0111306D01*
X0082007Y0111306D01*
X0082574Y0111873D01*
X0083989Y0111306D02*
X0086257Y0113574D01*
X0086257Y0114141D01*
X0085690Y0114708D01*
X0084556Y0114708D01*
X0083989Y0114141D01*
X0082574Y0114141D02*
X0082007Y0114708D01*
X0080873Y0114708D01*
X0080305Y0114141D01*
X0083989Y0111306D02*
X0086257Y0111306D01*
X0064933Y0100427D02*
X0056863Y0100427D01*
X0056863Y0086647D01*
X0064933Y0086647D01*
X0064933Y0100427D01*
X0055927Y0100152D02*
X0055360Y0099585D01*
X0054793Y0099585D01*
X0054226Y0100152D01*
X0054226Y0101286D01*
X0054793Y0101853D01*
X0055360Y0101853D01*
X0055927Y0101286D01*
X0055927Y0100152D01*
X0054226Y0100152D02*
X0053659Y0099585D01*
X0053091Y0099585D01*
X0052524Y0100152D01*
X0052524Y0101286D01*
X0053091Y0101853D01*
X0053659Y0101853D01*
X0054226Y0101286D01*
X0055360Y0098170D02*
X0055927Y0097603D01*
X0055927Y0096469D01*
X0055360Y0095901D01*
X0053091Y0095901D01*
X0052524Y0096469D01*
X0052524Y0097603D01*
X0053091Y0098170D01*
X0029450Y0132618D02*
X0027182Y0132618D01*
X0026614Y0133185D01*
X0026614Y0134319D01*
X0027182Y0134886D01*
X0027182Y0136301D02*
X0026614Y0136868D01*
X0026614Y0138002D01*
X0027182Y0138569D01*
X0027749Y0138569D01*
X0030017Y0136301D01*
X0030017Y0138569D01*
X0029450Y0134886D02*
X0030017Y0134319D01*
X0030017Y0133185D01*
X0029450Y0132618D01*
X0016760Y0141331D02*
X0013358Y0141331D01*
X0126081Y0091546D02*
X0126081Y0088143D01*
X0128349Y0088143D01*
X0129764Y0088143D02*
X0132032Y0088143D01*
X0130898Y0088143D02*
X0130898Y0091546D01*
X0129764Y0090412D01*
X0188797Y0146237D02*
X0194703Y0146237D01*
X0191950Y0146337D02*
X0194512Y0151574D01*
X0189088Y0151574D01*
X0191950Y0146337D01*
X0187239Y0156134D02*
X0183836Y0156134D01*
X0183836Y0157835D01*
X0184403Y0158402D01*
X0185538Y0158402D01*
X0186105Y0157835D01*
X0186105Y0156134D01*
X0186105Y0157268D02*
X0187239Y0158402D01*
X0186672Y0159817D02*
X0185538Y0159817D01*
X0185538Y0161518D01*
X0186105Y0162086D01*
X0186672Y0162086D01*
X0187239Y0161518D01*
X0187239Y0160384D01*
X0186672Y0159817D01*
X0185538Y0159817D02*
X0184403Y0160951D01*
X0183836Y0162086D01*
X0190550Y0163208D02*
X0190550Y0159806D01*
X0192251Y0159806D01*
X0192819Y0160373D01*
X0192819Y0162641D01*
X0192251Y0163208D01*
X0190550Y0163208D01*
X0194233Y0162641D02*
X0194800Y0163208D01*
X0195935Y0163208D01*
X0196502Y0162641D01*
X0196502Y0162074D01*
X0194233Y0159806D01*
X0196502Y0159806D01*
X0187750Y0175906D02*
X0184347Y0175906D01*
X0184347Y0177607D01*
X0184914Y0178174D01*
X0186049Y0178174D01*
X0186616Y0177607D01*
X0186616Y0175906D01*
X0186616Y0177040D02*
X0187750Y0178174D01*
X0187750Y0179589D02*
X0187750Y0181857D01*
X0186049Y0183272D02*
X0186049Y0185540D01*
X0184914Y0186955D02*
X0186049Y0188089D01*
X0187750Y0188089D01*
X0186049Y0188089D02*
X0184914Y0189224D01*
X0184347Y0189224D01*
X0185481Y0190638D02*
X0184347Y0191772D01*
X0187750Y0191772D01*
X0187750Y0190638D02*
X0187750Y0192907D01*
X0188530Y0198113D02*
X0186262Y0198113D01*
X0188530Y0200381D01*
X0188530Y0200948D01*
X0187963Y0201516D01*
X0186829Y0201516D01*
X0186262Y0200948D01*
X0184847Y0199814D02*
X0182579Y0199814D01*
X0181258Y0198113D02*
X0180123Y0198113D01*
X0180690Y0198113D02*
X0180690Y0201516D01*
X0180123Y0201516D02*
X0181258Y0201516D01*
X0178709Y0200948D02*
X0178709Y0199814D01*
X0178142Y0199247D01*
X0176440Y0199247D01*
X0176440Y0198113D02*
X0176440Y0201516D01*
X0178142Y0201516D01*
X0178709Y0200948D01*
X0175026Y0200948D02*
X0174458Y0201516D01*
X0173324Y0201516D01*
X0172757Y0200948D01*
X0172757Y0200381D01*
X0173324Y0199814D01*
X0174458Y0199814D01*
X0175026Y0199247D01*
X0175026Y0198680D01*
X0174458Y0198113D01*
X0173324Y0198113D01*
X0172757Y0198680D01*
X0171342Y0198113D02*
X0171342Y0200381D01*
X0170208Y0201516D01*
X0169074Y0200381D01*
X0169074Y0198113D01*
X0167659Y0198113D02*
X0166525Y0199247D01*
X0167092Y0199247D02*
X0165391Y0199247D01*
X0165391Y0198113D02*
X0165391Y0201516D01*
X0167092Y0201516D01*
X0167659Y0200948D01*
X0167659Y0199814D01*
X0167092Y0199247D01*
X0169074Y0199814D02*
X0171342Y0199814D01*
X0173484Y0203598D02*
X0170984Y0206098D01*
X0173484Y0203598D02*
X0178484Y0203598D01*
X0180984Y0206098D01*
X0190984Y0206098D02*
X0193484Y0203598D01*
X0198484Y0203598D01*
X0200984Y0206098D01*
X0200994Y0201516D02*
X0202696Y0201516D01*
X0203263Y0200948D01*
X0203263Y0199814D01*
X0202696Y0199247D01*
X0200994Y0199247D01*
X0200994Y0198113D02*
X0200994Y0201516D01*
X0199580Y0200948D02*
X0199013Y0201516D01*
X0197878Y0201516D01*
X0197311Y0200948D01*
X0197311Y0198680D01*
X0197878Y0198113D01*
X0199013Y0198113D01*
X0199580Y0198680D01*
X0199580Y0199814D01*
X0198446Y0199814D01*
X0195897Y0199814D02*
X0193628Y0199814D01*
X0192214Y0199247D02*
X0192214Y0198680D01*
X0191646Y0198113D01*
X0190512Y0198113D01*
X0189945Y0198680D01*
X0189945Y0199814D01*
X0191646Y0199814D01*
X0192214Y0199247D01*
X0191079Y0200948D02*
X0189945Y0199814D01*
X0191079Y0200948D02*
X0192214Y0201516D01*
X0204678Y0201516D02*
X0205812Y0201516D01*
X0205245Y0201516D02*
X0205245Y0198113D01*
X0204678Y0198113D02*
X0205812Y0198113D01*
X0207133Y0198680D02*
X0207700Y0198113D01*
X0208834Y0198113D01*
X0209402Y0198680D01*
X0209402Y0200948D01*
X0208834Y0201516D01*
X0207700Y0201516D01*
X0207133Y0200948D01*
X0207133Y0198680D01*
X0184914Y0186955D02*
X0184347Y0186955D01*
X0184347Y0179589D02*
X0187750Y0179589D01*
X0157959Y0192240D02*
X0157959Y0197949D01*
X0146541Y0197949D01*
X0146541Y0192240D01*
X0157959Y0192240D01*
X0158207Y0199094D02*
X0155939Y0199094D01*
X0158207Y0201363D01*
X0158207Y0201930D01*
X0157640Y0202497D01*
X0156506Y0202497D01*
X0155939Y0201930D01*
X0154524Y0201930D02*
X0154524Y0200796D01*
X0153957Y0200229D01*
X0152255Y0200229D01*
X0152255Y0199094D02*
X0152255Y0202497D01*
X0153957Y0202497D01*
X0154524Y0201930D01*
X0153484Y0203598D02*
X0150984Y0206098D01*
X0153484Y0203598D02*
X0158484Y0203598D01*
X0160984Y0206098D01*
X0154524Y0199094D02*
X0153390Y0200229D01*
X0150821Y0150993D02*
X0150821Y0148724D01*
X0150821Y0149859D02*
X0147418Y0149859D01*
X0148552Y0148724D01*
X0277150Y0083608D02*
X0277150Y0080206D01*
X0278284Y0081340D01*
X0279419Y0080206D01*
X0279419Y0083608D01*
X0280833Y0083041D02*
X0281400Y0083608D01*
X0282535Y0083608D01*
X0283102Y0083041D01*
X0283102Y0082474D01*
X0282535Y0081907D01*
X0283102Y0081340D01*
X0283102Y0080773D01*
X0282535Y0080206D01*
X0281400Y0080206D01*
X0280833Y0080773D01*
X0281967Y0081907D02*
X0282535Y0081907D01*
X0302188Y0083688D02*
X0305591Y0083688D01*
D11*
X0077350Y0157506D02*
X0077350Y0160306D01*
X0074450Y0158906D01*
X0077350Y0157506D01*
X0056750Y0159006D02*
X0053850Y0157606D01*
X0053850Y0160406D01*
X0056750Y0159006D01*
X0029450Y0157706D02*
X0029450Y0160506D01*
X0026550Y0159106D01*
X0029450Y0157706D01*
X0008450Y0158906D02*
X0005550Y0157506D01*
X0005550Y0160306D01*
X0008450Y0158906D01*
D12*
X0087761Y0063706D02*
X0087761Y0008706D01*
X0156161Y0008706D01*
X0156161Y0063706D01*
X0087761Y0063706D01*
X0024010Y0025797D02*
X0024010Y0014773D01*
X0012986Y0014773D01*
X0012986Y0025797D01*
X0024010Y0025797D01*
D13*
X0014561Y0024222D03*
D14*
X0116696Y0068446D02*
X0160004Y0068446D01*
X0160004Y0110965D01*
X0116696Y0110965D01*
X0116696Y0068446D01*
M02*
